SplineFontDB: 3.2
FontName: Inconsolata-UltraCondensedBold
FullName: Inconsolata Ultra Condensed Bold
FamilyName: Inconsolata Ultra Condensed Bold
Weight: Bold
Copyright: Copyright 2006 The Inconsolata Project Authors (https://github.com/cyrealtype/Inconsolata)
Version: 3.000; ttfautohint (v1.8.3)
ItalicAngle: 0
UnderlinePosition: -297
UnderlineWidth: 102
Ascent: 1802
Descent: 246
InvalidEm: 0
sfntRevision: 0x00030000
LayerCount: 2
Layer: 0 1 "Back" 1
Layer: 1 1 "Fore" 0
XUID: [1021 992 -142618737 4307]
StyleMap: 0x0040
FSType: 0
OS2Version: 4
OS2_WeightWidthSlopeOnly: 0
OS2_UseTypoMetrics: 1
CreationTime: 1576097233
ModificationTime: 1732392376
PfmFamily: 81
TTFWeight: 700
TTFWidth: 1
LineGap: 0
VLineGap: 0
Panose: 0 0 0 0 0 0 0 0 0 0
OS2TypoAscent: 1759
OS2TypoAOffset: 0
OS2TypoDescent: -389
OS2TypoDOffset: 0
OS2TypoLinegap: 0
OS2WinAscent: 2056
OS2WinAOffset: 0
OS2WinDescent: 930
OS2WinDOffset: 0
HheadAscent: 1759
HheadAOffset: 0
HheadDescent: -389
HheadDOffset: 0
OS2SubXSize: 1331
OS2SubYSize: 1229
OS2SubXOff: 0
OS2SubYOff: 154
OS2SupXSize: 1331
OS2SupYSize: 1229
OS2SupXOff: 0
OS2SupYOff: 717
OS2StrikeYSize: 102
OS2StrikeYPos: 571
OS2CapHeight: 1276
OS2XHeight: 952
OS2Vendor: 'CYRE'
OS2CodePages: 60000193.cdd40000
OS2UnicodeRanges: a00000ff.0000f9eb.00000020.00000000
Lookup: 1 0 0 "'aalt' Access All Alternates in Latin lookup 0" { "'aalt' Access All Alternates in Latin lookup 0 subtable"  } ['aalt' ('DFLT' <'dflt' > 'latn' <'AZE ' 'CAT ' 'CRT ' 'KAZ ' 'MOL ' 'ROM ' 'TAT ' 'TRK ' 'dflt' > ) ]
Lookup: 3 0 0 "'aalt' Access All Alternates in Latin lookup 1" { "'aalt' Access All Alternates in Latin lookup 1 subtable"  } ['aalt' ('DFLT' <'dflt' > 'latn' <'AZE ' 'CAT ' 'CRT ' 'KAZ ' 'MOL ' 'ROM ' 'TAT ' 'TRK ' 'dflt' > ) ]

StartChar: A
Encoding: 65 65 1
Width: 446
VWidth: 2441
GlyphClass: 2
Flags: HW
AnchorPoint: "Anchor-3" 317 0 basechar 0
AnchorPoint: "Anchor-2" 213 0 basechar 0
AnchorPoint: "Anchor-0" 213 1521 basechar 0
LayerCount: 2
Fore
SplineSet
213 988 m 1,0,-1
 174 532 l 1,1,-1
 252 532 l 1,2,-1
 213 988 l 1,0,-1
297 0 m 1,3,-1
 265 371 l 1,4,-1
 161 371 l 1,5,-1
 127 0 l 1,6,-1
 -11 0 l 1,7,-1
 168 1547 l 1,8,-1
 258 1547 l 1,9,-1
 437 0 l 1,10,-1
 297 0 l 1,3,-1
EndSplineSet
Substitution2: "Single Substitution lookup 29 subtable" ordfeminine
Substitution2: "'aalt' Access All Alternates in Latin lookup 0 subtable" ordfeminine
EndChar

StartChar: AE
Encoding: 198 198 26
Width: 435
VWidth: 2441
GlyphClass: 1
Flags: HW
LayerCount: 2
Fore
SplineSet
161 573 m 1,0,-1
 211 573 l 1,1,-1
 228 1225 l 1,2,-1
 161 573 l 1,0,-1
-15 0 m 1,3,-1
 168 1523 l 1,4,-1
 433 1523 l 1,5,-1
 433 1330 l 1,6,-1
 326 1330 l 1,7,-1
 326 892 l 1,8,-1
 408 892 l 1,9,-1
 408 696 l 1,10,-1
 326 696 l 1,11,-1
 326 193 l 1,12,-1
 431 193 l 1,13,-1
 431 0 l 1,14,-1
 211 0 l 1,15,-1
 211 393 l 1,16,-1
 143 393 l 1,17,-1
 97 0 l 1,18,-1
 -15 0 l 1,3,-1
EndSplineSet
EndChar

StartChar: B
Encoding: 66 66 28
Width: 512
VWidth: 2441
GlyphClass: 2
Flags: HW
AnchorPoint: "Anchor-2" 253 0 basechar 0
AnchorPoint: "Anchor-0" 253 1521 basechar 0
LayerCount: 2
Fore
SplineSet
179 193 m 1,0,-1
 245 193 l 2,1,2
 285 193 285 193 309 246.5 c 128,-1,3
 333 300 333 300 333 437 c 128,-1,4
 333 574 333 574 306 648 c 128,-1,5
 279 722 279 722 227 722 c 2,6,-1
 179 722 l 1,7,-1
 179 193 l 1,0,-1
179 916 m 1,8,-1
 223 916 l 2,9,10
 275 916 275 916 294.5 972 c 128,-1,11
 314 1028 314 1028 314 1132 c 0,12,13
 314 1223 314 1223 295.5 1275.5 c 128,-1,14
 277 1328 277 1328 234 1328 c 2,15,-1
 179 1328 l 1,16,-1
 179 916 l 1,8,-1
32 0 m 1,17,-1
 32 1521 l 1,18,-1
 227 1521 l 2,19,20
 284 1521 284 1521 337 1488.5 c 128,-1,21
 390 1456 390 1456 423.5 1376 c 128,-1,22
 457 1296 457 1296 457 1153 c 0,23,24
 457 990 457 990 433 916.5 c 128,-1,25
 409 843 409 843 360 815 c 1,26,27
 408 780 408 780 444 685.5 c 128,-1,28
 480 591 480 591 480 427 c 0,29,30
 480 210 480 210 417 105 c 128,-1,31
 354 0 354 0 225 0 c 2,32,-1
 32 0 l 1,17,-1
EndSplineSet
EndChar

StartChar: C
Encoding: 67 67 29
Width: 491
VWidth: 2441
GlyphClass: 2
Flags: HW
AnchorPoint: "Anchor-2" 274 0 basechar 0
AnchorPoint: "Anchor-0" 264 1521 basechar 0
LayerCount: 2
Fore
SplineSet
277 -24 m 0,0,1
 210 -24 210 -24 152 43 c 128,-1,2
 94 110 94 110 59 278.5 c 128,-1,3
 24 447 24 447 22 752 c 0,4,5
 22 1001 22 1001 47 1155 c 128,-1,6
 72 1309 72 1309 113.5 1390.5 c 128,-1,7
 155 1472 155 1472 202 1501.5 c 128,-1,8
 249 1531 249 1531 291 1531 c 0,9,10
 360 1531 360 1531 404 1481 c 128,-1,11
 448 1431 448 1431 470 1351 c 1,12,-1
 420 1162 l 1,13,-1
 412 1140 l 1,14,-1
 400 1148 l 1,15,16
 394 1167 394 1167 396 1195 c 0,17,18
 396.25 1198.5 396.25 1198.5 396.25 1202.140625 c 0,19,20
 396.25 1227.625 396.25 1227.625 384 1260 c 1,21,22
 364 1299 364 1299 342 1314.5 c 128,-1,23
 320 1330 320 1330 297 1330 c 0,24,25
 263 1330 263 1330 233 1280 c 128,-1,26
 203 1230 203 1230 184.5 1105.5 c 128,-1,27
 166 981 166 981 166 759 c 0,28,29
 166 542 166 542 185.5 413 c 128,-1,30
 205 284 205 284 236.5 227 c 128,-1,31
 268 170 268 170 301 170 c 0,32,33
 337 170 337 170 366.5 213 c 128,-1,34
 396 256 396 256 418 319 c 1,35,-1
 454 135 l 1,36,37
 422 54 422 54 380.5 15 c 128,-1,38
 339 -24 339 -24 277 -24 c 0,0,1
EndSplineSet
EndChar

StartChar: D
Encoding: 68 68 36
Width: 503
VWidth: 2441
GlyphClass: 2
Flags: HW
AnchorPoint: "Anchor-4" 248 762 basechar 0
AnchorPoint: "Anchor-2" 248 0 basechar 0
AnchorPoint: "Anchor-0" 217 1521 basechar 0
LayerCount: 2
Fore
SplineSet
180 191 m 1,0,-1
 205 191 l 2,1,2
 266 191 266 191 299 327.5 c 128,-1,3
 332 464 332 464 332 743 c 0,4,5
 332 1024 332 1024 306.5 1176 c 128,-1,6
 281 1328 281 1328 217 1328 c 2,7,-1
 180 1328 l 1,8,-1
 180 191 l 1,0,-1
31 -2 m 1,9,-1
 31 1521 l 1,10,-1
 197 1521 l 2,11,12
 279 1521 279 1521 333 1479.5 c 128,-1,13
 387 1438 387 1438 418 1338 c 128,-1,14
 449 1238 449 1238 464 1106 c 128,-1,15
 479 974 479 974 479 752 c 0,16,17
 479 -2.00132275132 479 -2.00132275132 185.777263374 -2.00132275132 c 0,18,19
 185.388888889 -2.00132275132 185.388888889 -2.00132275132 185 -2 c 2,20,-1
 31 -2 l 1,9,-1
EndSplineSet
EndChar

StartChar: Eth
Encoding: 208 208 37
Width: 451
VWidth: 2441
GlyphClass: 1
Flags: HW
LayerCount: 2
Fore
SplineSet
162 193 m 1,0,-1
 181 193 l 2,1,2
 253 193 253 193 279.5 326 c 128,-1,3
 306 459 306 459 306 747 c 0,4,5
 306 1040 306 1040 277.5 1181.5 c 128,-1,6
 249 1323 249 1323 179 1323 c 2,7,-1
 162 1323 l 1,8,-1
 162 896 l 1,9,-1
 223 896 l 1,10,-1
 223 715 l 1,11,-1
 162 715 l 1,12,-1
 162 193 l 1,0,-1
25 -2 m 1,13,-1
 25 715 l 1,14,-1
 -7 715 l 1,15,-1
 -7 896 l 1,16,-1
 25 896 l 1,17,-1
 25 1521 l 1,18,-1
 183 1521 l 2,19,20
 241 1521 241 1521 286 1479.5 c 128,-1,21
 331 1438 331 1438 360 1373.5 c 128,-1,22
 389 1309 389 1309 405 1237 c 0,23,24
 416 1179 416 1179 428.5 1064.5 c 128,-1,25
 441 950 441 950 441 755 c 0,26,27
 441 459 441 459 408.5 294.5 c 128,-1,28
 376 130 376 130 315.5 64 c 128,-1,29
 255 -2 255 -2 172 -2 c 2,30,-1
 25 -2 l 1,13,-1
EndSplineSet
EndChar

StartChar: E
Encoding: 69 69 42
Width: 512
VWidth: 2441
GlyphClass: 2
Flags: HW
AnchorPoint: "Anchor-3" 482 24 basechar 0
AnchorPoint: "Anchor-2" 257 0 basechar 0
AnchorPoint: "Anchor-0" 268 1521 basechar 0
LayerCount: 2
Fore
SplineSet
32 0 m 1,0,-1
 32 1523 l 1,1,-1
 480 1523 l 1,2,-1
 480 1330 l 1,3,-1
 195 1330 l 1,4,-1
 195 888 l 1,5,-1
 424 888 l 1,6,-1
 424 699 l 1,7,-1
 195 699 l 1,8,-1
 195 193 l 1,9,-1
 478 193 l 1,10,-1
 478 0 l 1,11,-1
 32 0 l 1,0,-1
EndSplineSet
EndChar

StartChar: uni01B8
Encoding: 440 440 65
Width: 512
VWidth: 2441
GlyphClass: 1
Flags: HW
LayerCount: 2
Fore
SplineSet
286 -27 m 0,0,1
 170 -27 170 -27 101 89 c 128,-1,2
 32 205 32 205 32 420 c 0,3,4
 32 613 32 613 85.5 743.5 c 128,-1,5
 139 874 139 874 220 918 c 1,6,-1
 63 1335 l 1,7,-1
 63 1521 l 1,8,-1
 445 1521 l 1,9,-1
 445 1328 l 1,10,-1
 231 1328 l 1,11,-1
 369 937 l 1,12,-1
 369 752 l 1,13,14
 357.023952096 753.19760479 357.023952096 753.19760479 345.929972391 753.19760479 c 0,15,16
 264.389221557 753.19760479 264.389221557 753.19760479 230.5 688.5 c 0,17,18
 192 615 192 615 192 432 c 0,19,20
 192 281 192 281 225 223.5 c 128,-1,21
 258 166 258 166 308 166 c 0,22,23
 365 166 365 166 402 210 c 1,24,25
 416 237 416 237 419.5 252.5 c 128,-1,26
 423 268 423 268 419 286 c 1,27,-1
 426 300 l 1,28,-1
 445 286 l 1,29,-1
 480 100 l 1,30,31
 439 27 439 27 391 0 c 128,-1,32
 343 -27 343 -27 286 -27 c 0,0,1
EndSplineSet
EndChar

StartChar: F
Encoding: 70 70 66
Width: 512
VWidth: 2441
GlyphClass: 2
Flags: HW
AnchorPoint: "Anchor-2" 246 0 basechar 0
AnchorPoint: "Anchor-0" 246 1521 basechar 0
LayerCount: 2
Fore
SplineSet
32 0 m 1,0,-1
 32 1523 l 1,1,-1
 480 1523 l 1,2,-1
 480 1330 l 1,3,-1
 197 1330 l 1,4,-1
 197 916 l 1,5,-1
 424 916 l 1,6,-1
 424 725 l 1,7,-1
 197 725 l 1,8,-1
 197 0 l 1,9,-1
 32 0 l 1,0,-1
EndSplineSet
EndChar

StartChar: G
Encoding: 71 71 67
Width: 512
VWidth: 2441
GlyphClass: 2
Flags: HW
AnchorPoint: "Anchor-2" 275 0 basechar 0
AnchorPoint: "Anchor-0" 284 1521 basechar 0
LayerCount: 2
Fore
SplineSet
286 -24 m 0,0,1
 162 -24 162 -24 97.5 164 c 128,-1,2
 33 352 33 352 33 743 c 1,3,4
 32.3469387755 782.836734694 32.3469387755 782.836734694 32.3469387755 820.327780092 c 0,5,6
 32.3469387755 1012.46938776 32.3469387755 1012.46938776 49.5 1143 c 0,7,8
 70 1299 70 1299 108 1384.5 c 128,-1,9
 146 1470 146 1470 193 1504 c 128,-1,10
 240 1538 240 1538 288 1538 c 0,11,12
 363 1538 363 1538 410.5 1486.5 c 128,-1,13
 458 1435 458 1435 478 1351 c 1,14,-1
 418 1202 l 1,15,-1
 407 1179 l 1,16,-1
 395 1189 l 1,17,18
 391 1208 391 1208 390 1233 c 128,-1,19
 389 1258 389 1258 373 1291 c 0,20,21
 342 1345 342 1345 298 1345 c 0,22,23
 261 1345 261 1345 235 1295 c 128,-1,24
 209 1245 209 1245 194 1122 c 128,-1,25
 179 999 179 999 179 778 c 0,26,27
 179 461 179 461 207 313.5 c 128,-1,28
 235 166 235 166 282 166 c 0,29,30
 321 166 321 166 345 212 c 1,31,-1
 345 573 l 1,32,33
 344 573 344 573 270 573 c 1,34,-1
 270 764 l 1,35,-1
 480 764 l 1,36,-1
 480 122 l 1,37,38
 434 43 434 43 385 9.5 c 128,-1,39
 336 -24 336 -24 286 -24 c 0,0,1
EndSplineSet
EndChar

StartChar: H
Encoding: 72 72 74
Width: 512
VWidth: 2441
GlyphClass: 2
Flags: HW
AnchorPoint: "Anchor-4" 520 762 basechar 0
AnchorPoint: "Anchor-2" 520 0 basechar 0
AnchorPoint: "Anchor-0" 361 1521 basechar 0
LayerCount: 2
Fore
SplineSet
32 1521 m 1,0,-1
 195 1521 l 1,1,-1
 195 1504 l 1,2,3
 189 1490 189 1490 186.5 1473 c 128,-1,4
 184 1456 184 1456 184 1414 c 2,5,-1
 184 896 l 1,6,-1
 315 896 l 1,7,-1
 315 1521 l 1,8,-1
 480 1521 l 1,9,-1
 480 1504 l 1,10,11
 474 1490 474 1490 472 1473 c 128,-1,12
 470 1456 470 1456 470 1414 c 2,13,-1
 470 0 l 1,14,-1
 315 0 l 1,15,-1
 315 701 l 1,16,-1
 184 701 l 1,17,-1
 184 0 l 1,18,-1
 32 0 l 1,19,-1
 32 1521 l 1,0,-1
EndSplineSet
EndChar

StartChar: Hbar
Encoding: 294 294 75
Width: 444
VWidth: 2441
GlyphClass: 2
Flags: HW
AnchorPoint: "Anchor-4" 445 762 basechar 0
AnchorPoint: "Anchor-2" 445 0 basechar 0
AnchorPoint: "Anchor-0" 305 1521 basechar 0
LayerCount: 2
Fore
SplineSet
149 896 m 1,0,-1
 264 896 l 1,1,-1
 264 1193 l 1,2,-1
 149 1193 l 1,3,-1
 149 896 l 1,0,-1
-16 1193 m 1,4,-1
 -16 1384 l 1,5,-1
 16 1384 l 1,6,-1
 16 1521 l 1,7,-1
 159 1521 l 1,8,-1
 159 1504 l 1,9,10
 154 1490 154 1490 151.5 1473 c 128,-1,11
 149 1456 149 1456 149 1414 c 2,12,-1
 149 1384 l 1,13,-1
 264 1384 l 1,14,-1
 264 1521 l 1,15,-1
 409 1521 l 1,16,-1
 409 1504 l 1,17,18
 404 1490 404 1490 402 1473 c 128,-1,19
 400 1456 400 1456 400 1414 c 2,20,-1
 400 1384 l 1,21,-1
 432 1384 l 1,22,-1
 432 1193 l 1,23,-1
 400 1193 l 1,24,-1
 400 0 l 1,25,-1
 264 0 l 1,26,-1
 264 701 l 1,27,-1
 149 701 l 1,28,-1
 149 0 l 1,29,-1
 16 0 l 1,30,-1
 16 1193 l 1,31,-1
 -16 1193 l 1,4,-1
EndSplineSet
EndChar

StartChar: I
Encoding: 73 73 79
Width: 506
VWidth: 2441
GlyphClass: 2
Flags: HW
AnchorPoint: "Anchor-3" 388 0 basechar 0
AnchorPoint: "Anchor-2" 264 0 basechar 0
AnchorPoint: "Anchor-0" 250 1521 basechar 0
LayerCount: 2
Fore
SplineSet
32 0 m 1,0,-1
 32 193 l 1,1,-1
 164 193 l 1,2,-1
 164 1323 l 1,3,-1
 36 1323 l 1,4,-1
 36 1521 l 1,5,-1
 467 1521 l 1,6,-1
 467 1323 l 1,7,-1
 337 1323 l 1,8,-1
 337 191 l 1,9,-1
 474 191 l 1,10,-1
 474 0 l 1,11,-1
 32 0 l 1,0,-1
EndSplineSet
EndChar

StartChar: J
Encoding: 74 74 94
Width: 512
VWidth: 2441
GlyphClass: 2
Flags: HW
AnchorPoint: "Anchor-2" 247 0 basechar 0
AnchorPoint: "Anchor-0" 330 1521 basechar 0
LayerCount: 2
Fore
SplineSet
190 -27 m 0,0,1
 145 -27 145 -27 102.5 4 c 128,-1,2
 60 35 60 35 32 98 c 1,3,-1
 73 300 l 1,4,-1
 79 324 l 1,5,-1
 92 319 l 1,6,7
 102 302 102 302 102 273 c 128,-1,8
 102 244 102 244 121 210 c 1,9,10
 148 173 148 173 182 173 c 0,11,12
 211 173 211 173 231 244 c 128,-1,13
 251 315 251 315 251 508 c 2,14,-1
 251 1328 l 1,15,-1
 129 1328 l 1,16,-1
 129 1521 l 1,17,-1
 480 1521 l 1,18,-1
 480 1328 l 1,19,-1
 397 1328 l 1,20,-1
 397 510 l 2,21,22
 397 303 397 303 373.5 185.5 c 128,-1,23
 350 68 350 68 303.5 20.5 c 128,-1,24
 257 -27 257 -27 190 -27 c 0,0,1
EndSplineSet
EndChar

StartChar: K
Encoding: 75 75 96
Width: 483
VWidth: 2441
GlyphClass: 1
Flags: HW
LayerCount: 2
Fore
SplineSet
186 643 m 1,0,-1
 164 564 l 1,1,-1
 168 0 l 1,2,-1
 23 0 l 1,3,-1
 23 1521 l 1,4,-1
 186 1521 l 1,5,-1
 186 1504 l 1,6,7
 174 1490 174 1490 171 1473 c 128,-1,8
 168 1456 168 1456 168 1414 c 2,9,-1
 168 939 l 1,10,-1
 313 1533 l 1,11,12
 338 1528 338 1528 373 1524.5 c 128,-1,13
 408 1521 408 1521 429 1521 c 2,14,-1
 454 1521 l 1,15,-1
 275 832 l 1,16,-1
 471 0 l 1,17,-1
 321 -12 l 1,18,-1
 186 643 l 1,0,-1
EndSplineSet
EndChar

StartChar: uni0198
Encoding: 408 408 98
Width: 495
VWidth: 2441
GlyphClass: 1
Flags: HW
LayerCount: 2
Fore
SplineSet
28 1521 m 1,0,-1
 193 1521 l 1,1,-1
 193 1504 l 1,2,3
 181 1490 181 1490 177.5 1473 c 128,-1,4
 174 1456 174 1456 174 1414 c 2,5,-1
 174 976 l 1,6,7
 221 1208 221 1208 259.5 1327.5 c 128,-1,8
 298 1447 298 1447 337 1489 c 128,-1,9
 376 1531 376 1531 422 1531 c 0,10,11
 432 1531 432 1531 446.5 1528.5 c 128,-1,12
 461 1526 461 1526 469 1521 c 1,13,-1
 469 1284 l 1,14,-1
 463 1284 l 1,15,16
 457 1298 457 1298 450 1308 c 128,-1,17
 443 1318 443 1318 426 1321 c 2,18,-1
 420 1321 l 2,19,20
 408 1321 408 1321 391 1287 c 128,-1,21
 374 1253 374 1253 344.5 1153 c 128,-1,22
 315 1053 315 1053 266 857 c 1,23,-1
 476 0 l 1,24,-1
 327 -12 l 1,25,-1
 199 587 l 1,26,27
 187 541 187 541 174 489 c 1,28,-1
 174 0 l 1,29,-1
 28 0 l 1,30,-1
 28 1521 l 1,0,-1
EndSplineSet
EndChar

StartChar: L
Encoding: 76 76 99
Width: 512
VWidth: 2441
GlyphClass: 2
Flags: HW
AnchorPoint: "Anchor-4" 97 762 basechar 0
AnchorPoint: "Anchor-2" 253 0 basechar 0
AnchorPoint: "Anchor-1" 175 1116 basechar 0
AnchorPoint: "Anchor-0" 198 1521 basechar 0
LayerCount: 2
Fore
SplineSet
32 1521 m 1,0,-1
 211 1521 l 1,1,-1
 211 1504 l 1,2,3
 198 1490 198 1490 194.5 1473 c 128,-1,4
 191 1456 191 1456 191 1414 c 2,5,-1
 191 198 l 1,6,-1
 480 198 l 1,7,-1
 480 0 l 1,8,-1
 32 0 l 1,9,-1
 32 1521 l 1,0,-1
EndSplineSet
EndChar

StartChar: uni01C7
Encoding: 455 455 100
Width: 528
VWidth: 2367
GlyphClass: 1
Flags: HW
LayerCount: 2
Fore
SplineSet
32 121 m 1,0,-1
 32 1521 l 1,1,-1
 191 1521 l 1,2,3
 191 1506 191 1506 187 1502 c 128,-1,4
 183 1498 183 1498 179.5 1489 c 128,-1,5
 176 1480 176 1480 176 1444 c 2,6,-1
 176 298 l 1,7,-1
 273 298 l 1,8,-1
 273 121 l 1,9,-1
 32 121 l 1,0,-1
294 -246 m 0,10,11
 188 -246 188 -246 116 -154 c 1,12,-1
 185 1 l 1,13,14
 197 -14 197 -14 194 -22 c 128,-1,15
 191 -30 191 -30 208 -53 c 0,16,17
 218 -64 218 -64 232 -71.5 c 128,-1,18
 246 -79 246 -79 269 -79 c 0,19,20
 293 -79 293 -79 307 -51 c 128,-1,21
 321 -23 321 -23 328.5 53 c 128,-1,22
 336 129 336 129 336 273 c 2,23,-1
 336 1343 l 1,24,-1
 264 1343 l 1,25,-1
 264 1521 l 1,26,-1
 480 1521 l 1,27,-1
 480 275 l 2,28,29
 480.166666667 258.333333333 480.166666667 258.333333333 480.166666667 242.267361111 c 0,0,0
 480.166666667 65.5416666667 480.166666667 65.5416666667 460 -38.5 c 128,-1,30
 438 -152 438 -152 395 -199 c 128,-1,31
 352 -246 352 -246 294 -246 c 0,10,11
EndSplineSet
EndChar

StartChar: Lcaron
Encoding: 317 317 102
Width: 512
VWidth: 2441
GlyphClass: 2
Flags: HW
AnchorPoint: "Anchor-4" 97 762 basechar 0
AnchorPoint: "Anchor-2" 253 0 basechar 0
AnchorPoint: "Anchor-1" 175 1116 basechar 0
AnchorPoint: "Anchor-0" 198 1521 basechar 0
LayerCount: 2
Fore
SplineSet
32 1521 m 1,0,-1
 211 1521 l 1,1,-1
 211 1504 l 1,2,3
 198 1490 198 1490 194.5 1473 c 128,-1,4
 191 1456 191 1456 191 1414 c 2,5,-1
 191 198 l 1,6,-1
 480 198 l 1,7,-1
 480 0 l 1,8,-1
 32 0 l 1,9,-1
 32 1521 l 1,0,-1
358 1011 m 1,10,-1
 280 1074 l 1,11,12
 313 1125 313 1125 332.5 1176.5 c 128,-1,13
 352 1228 352 1228 352 1270 c 0,14,15
 352 1309 352 1309 330 1338 c 128,-1,16
 308 1367 308 1367 308 1421 c 0,17,18
 308 1472 308 1472 334 1502.5 c 128,-1,19
 360 1533 360 1533 394 1533 c 0,20,21
 427 1533 427 1533 453.5 1501.5 c 128,-1,22
 480 1470 480 1470 480 1400 c 0,23,24
 480 1305 480 1305 448.5 1207 c 128,-1,25
 417 1109 417 1109 358 1011 c 1,10,-1
EndSplineSet
EndChar

StartChar: uni01C8
Encoding: 456 456 106
Width: 532
VWidth: 2362
GlyphClass: 1
Flags: HW
LayerCount: 2
Fore
SplineSet
253 -246 m 0,0,1
 214 -246 214 -246 174 -217.5 c 128,-1,2
 134 -189 134 -189 109 -142 c 1,3,-1
 171 38 l 1,4,5
 183 27 183 27 179.5 5.5 c 128,-1,6
 176 -16 176 -16 204 -47 c 0,7,8
 216 -58 216 -58 224.5 -60.5 c 128,-1,9
 233 -63 233 -63 249 -63 c 0,10,11
 286 -63 286 -63 309 -7 c 128,-1,12
 332 49 332 49 332 188 c 2,13,-1
 332 1009 l 1,14,-1
 225 1009 l 1,15,-1
 225 1177 l 1,16,-1
 457 1177 l 1,17,-1
 455 197 l 2,18,19
 455 -40 455 -40 401.5 -143 c 128,-1,20
 348 -246 348 -246 253 -246 c 0,0,1
32 146 m 1,21,-1
 32 1528 l 1,22,-1
 180 1528 l 1,23,24
 180 1506 180 1506 176.5 1492.5 c 128,-1,25
 173 1479 173 1479 173 1450 c 2,26,-1
 173 326 l 1,27,-1
 271 326 l 1,28,-1
 271 146 l 1,29,-1
 32 146 l 1,21,-1
382 1373 m 0,30,31
 341 1373 341 1373 312 1406 c 128,-1,32
 283 1439 283 1439 283 1483 c 0,33,34
 283 1530 283 1530 311.5 1562 c 128,-1,35
 340 1594 340 1594 382 1594 c 0,36,37
 421 1594 421 1594 450.5 1562 c 128,-1,38
 480 1530 480 1530 480 1483 c 0,39,40
 480 1439 480 1439 450.5 1406 c 128,-1,41
 421 1373 421 1373 382 1373 c 0,30,31
EndSplineSet
EndChar

StartChar: Lslash
Encoding: 321 321 108
Width: 513
VWidth: 2441
GlyphClass: 1
Flags: HW
LayerCount: 2
Fore
SplineSet
58 0 m 1,0,-1
 58 547 l 1,1,-1
 16 510 l 1,2,-1
 16 732 l 1,3,-1
 58 771 l 1,4,-1
 58 1521 l 1,5,-1
 216 1521 l 2,6,7
 224 1521 224 1521 225 1516 c 0,8,9
 225 1506 225 1506 216.5 1489 c 128,-1,10
 208 1472 208 1472 206 1438 c 2,11,-1
 206 876 l 1,12,-1
 339 983 l 2,13,14
 355 995 355 995 366 1009 c 1,15,-1
 366 767 l 1,16,-1
 210 647 l 1,17,-1
 208 198 l 1,18,-1
 464 198 l 1,19,-1
 464 0 l 1,20,-1
 58 0 l 1,0,-1
EndSplineSet
EndChar

StartChar: M
Encoding: 77 77 109
Width: 497
VWidth: 2441
GlyphClass: 2
Flags: HW
AnchorPoint: "Anchor-2" 248 0 basechar 0
AnchorPoint: "Anchor-0" 248 1521 basechar 0
LayerCount: 2
Fore
SplineSet
24 0 m 1,0,-1
 24 1521 l 1,1,-1
 136 1521 l 1,2,-1
 248 967 l 1,3,-1
 361 1523 l 1,4,-1
 472 1523 l 1,5,-1
 472 0 l 1,6,-1
 349 0 l 1,7,-1
 354 1030 l 1,8,-1
 256 564 l 1,9,-1
 230 564 l 1,10,-1
 143 1023 l 1,11,-1
 147 0 l 1,12,-1
 24 0 l 1,0,-1
EndSplineSet
EndChar

StartChar: N
Encoding: 78 78 111
Width: 499
VWidth: 2441
GlyphClass: 2
Flags: HW
AnchorPoint: "Anchor-2" 245 0 basechar 0
AnchorPoint: "Anchor-0" 245 1521 basechar 0
LayerCount: 2
Fore
SplineSet
29 1521 m 1,0,-1
 157 1521 l 1,1,-1
 333 627 l 1,2,-1
 333 1521 l 1,3,-1
 477 1521 l 1,4,-1
 477 1504 l 1,5,6
 465 1490 465 1490 462 1473 c 128,-1,7
 459 1456 459 1456 459 1414 c 2,8,-1
 459 0 l 1,9,-1
 351 0 l 1,10,-1
 157 962 l 1,11,-1
 157 0 l 1,12,-1
 29 0 l 1,13,-1
 29 1521 l 1,0,-1
EndSplineSet
EndChar

StartChar: Eng
Encoding: 330 330 117
Width: 524
VWidth: 2344
GlyphClass: 2
Flags: HW
AnchorPoint: "Anchor-2" 250 159 basechar 0
AnchorPoint: "Anchor-0" 250 1521 basechar 0
LayerCount: 2
Fore
SplineSet
346 1521 m 1,0,-1
 480 1521 l 1,1,2
 480 1508 480 1508 477 1497 c 128,-1,3
 474 1486 474 1486 474 1462 c 2,4,-1
 474 159 l 2,5,6
 474 -3 474 -3 450 -91.5 c 128,-1,7
 426 -180 426 -180 382 -213 c 128,-1,8
 338 -246 338 -246 286 -246 c 0,9,10
 260 -246 260 -246 235 -236 c 128,-1,11
 210 -226 210 -226 187 -200 c 1,12,-1
 231 -29 l 1,13,14
 245 -38 245 -38 249.5 -60 c 128,-1,15
 254 -82 254 -82 288 -82 c 0,16,17
 324 -82 324 -82 334 -18.5 c 128,-1,18
 344 45 344 45 346 207 c 1,19,-1
 164 1020 l 1,20,-1
 164 159 l 1,21,-1
 32 159 l 1,22,-1
 32 1521 l 1,23,-1
 138 1521 l 1,24,-1
 346 720 l 1,25,-1
 346 1521 l 1,0,-1
EndSplineSet
EndChar

StartChar: O
Encoding: 79 79 120
Width: 485
VWidth: 2441
GlyphClass: 2
Flags: HW
AnchorPoint: "Anchor-4" 239 762 basechar 0
AnchorPoint: "Anchor-3" 273 24 basechar 0
AnchorPoint: "Anchor-2" 239 0 basechar 0
AnchorPoint: "Anchor-1" 365 1426 basechar 0
AnchorPoint: "Anchor-0" 239 1521 basechar 0
LayerCount: 2
Fore
SplineSet
239 163 m 128,-1,1
 267 163 267 163 286 209.5 c 128,-1,2
 305 256 305 256 313.5 383 c 128,-1,3
 322 510 322 510 322 752 c 0,4,5
 322 984 322 984 313.5 1110.5 c 128,-1,6
 305 1237 305 1237 286 1288.5 c 128,-1,7
 267 1340 267 1340 239 1340 c 128,-1,8
 211 1340 211 1340 191 1288.5 c 128,-1,9
 171 1237 171 1237 162.5 1110 c 128,-1,10
 154 983 154 983 154 752 c 0,11,12
 154 510 154 510 162.5 383 c 128,-1,13
 171 256 171 256 191 209.5 c 128,-1,0
 211 163 211 163 239 163 c 128,-1,1
239 -27 m 128,-1,15
 162 -27 162 -27 111.5 40 c 128,-1,16
 61 107 61 107 37.5 277 c 128,-1,17
 14 447 14 447 14 752 c 0,18,19
 14 1050 14 1050 37.5 1219.5 c 128,-1,20
 61 1389 61 1389 111.5 1460 c 128,-1,21
 162 1531 162 1531 239 1531 c 128,-1,22
 316 1531 316 1531 366.5 1460 c 128,-1,23
 417 1389 417 1389 439.5 1219.5 c 128,-1,24
 462 1050 462 1050 462 752 c 0,25,26
 462 447 462 447 439.5 277 c 128,-1,27
 417 107 417 107 366.5 40 c 128,-1,14
 316 -27 316 -27 239 -27 c 128,-1,15
EndSplineSet
Substitution2: "Single Substitution lookup 29 subtable" ordmasculine
Substitution2: "'aalt' Access All Alternates in Latin lookup 0 subtable" ordmasculine
EndChar

StartChar: Oslash
Encoding: 216 216 148
Width: 485
VWidth: 2441
GlyphClass: 2
Flags: HW
AnchorPoint: "Anchor-4" 239 762 basechar 0
AnchorPoint: "Anchor-3" 273 24 basechar 0
AnchorPoint: "Anchor-2" 239 0 basechar 0
AnchorPoint: "Anchor-1" 365 1426 basechar 0
AnchorPoint: "Anchor-0" 239 1521 basechar 0
LayerCount: 2
Fore
SplineSet
239 163 m 0,0,1
 267 163 267 163 286 209.5 c 128,-1,2
 305 256 305 256 313.5 383 c 128,-1,3
 322 510 322 510 322 752 c 0,4,5
 322 882 322 882 320 976 c 1,6,-1
 180 252 l 1,7,8
 190 201 190 201 205 182 c 128,-1,9
 220 163 220 163 239 163 c 0,0,1
154 752 m 0,10,11
 154 645 154 645 156 564 c 1,12,-1
 292 1270 l 1,13,14
 275 1340 275 1340 239 1340 c 0,15,16
 211 1340 211 1340 191 1288.5 c 128,-1,17
 171 1237 171 1237 162.5 1110.5 c 128,-1,18
 154 984 154 984 154 752 c 0,10,11
111 -103 m 1,19,-1
 33 -63 l 1,20,-1
 71 126 l 1,21,22
 41 214 41 214 27.5 365.5 c 128,-1,23
 14 517 14 517 14 752 c 0,24,25
 14 1050 14 1050 37.5 1219.5 c 128,-1,26
 61 1389 61 1389 111.5 1460 c 128,-1,27
 162 1531 162 1531 239 1531 c 0,28,29
 296 1531 296 1531 336 1496 c 1,30,-1
 369 1665 l 1,31,-1
 445 1621 l 1,32,-1
 401 1391 l 1,33,34
 433 1303 433 1303 447.5 1148.5 c 128,-1,35
 462 994 462 994 462 752 c 0,36,37
 462 447 462 447 439.5 277 c 128,-1,38
 417 107 417 107 366.5 40 c 128,-1,39
 316 -27 316 -27 239 -27 c 0,40,41
 175 -27 175 -27 134 14 c 1,42,-1
 111 -103 l 1,19,-1
EndSplineSet
EndChar

StartChar: OE
Encoding: 338 338 154
Width: 452
VWidth: 2441
GlyphClass: 1
Flags: HW
LayerCount: 2
Fore
SplineSet
167 170 m 0,0,1
 197 170 197 170 205 329 c 1,2,-1
 205 1169 l 2,3,4
 203 1272 203 1272 192.5 1317.5 c 128,-1,5
 182 1363 182 1363 163 1363 c 0,6,7
 148 1363 148 1363 138.5 1316.5 c 128,-1,8
 129 1270 129 1270 123 1140.5 c 128,-1,9
 119 1054.16666667 119 1054.16666667 119 915.611111111 c 0,0,0
 119 846.333333333 119 846.333333333 120 764 c 0,10,11
 120 442 120 442 129 306 c 128,-1,12
 138 170 138 170 167 170 c 0,0,1
133 -17 m 0,13,14
 103 -17 103 -17 77.5 17 c 128,-1,15
 52 51 52 51 32 136.5 c 128,-1,16
 12 222 12 222 1.5 374.5 c 128,-1,17
 -9 527 -9 527 -9 762 c 0,18,19
 -9 1060 -9 1060 8 1230 c 128,-1,20
 25 1400 25 1400 57.5 1471.5 c 128,-1,21
 90 1543 90 1543 133 1543 c 0,22,23
 180 1543 180 1543 207 1463 c 1,24,-1
 207 1523 l 1,25,-1
 439 1523 l 1,26,-1
 439 1330 l 1,27,-1
 333 1330 l 1,28,-1
 333 892 l 1,29,-1
 423 892 l 1,30,-1
 423 696 l 1,31,-1
 333 696 l 1,32,-1
 333 191 l 1,33,-1
 437 191 l 1,34,-1
 437 0 l 1,35,-1
 205 0 l 1,36,-1
 205 54 l 1,37,38
 196 15 196 15 176 -1 c 128,-1,39
 156 -17 156 -17 133 -17 c 0,13,14
EndSplineSet
EndChar

StartChar: P
Encoding: 80 80 155
Width: 512
VWidth: 2441
GlyphClass: 2
Flags: HW
AnchorPoint: "Anchor-2" 104 0 basechar 0
AnchorPoint: "Anchor-0" 250 1521 basechar 0
LayerCount: 2
Fore
SplineSet
185 825 m 1,0,-1
 239 825 l 2,1,2
 277 825 277 825 303.5 891 c 128,-1,3
 330 957 330 957 330 1074 c 0,4,5
 330 1209 330 1209 304 1268.5 c 128,-1,6
 278 1328 278 1328 239 1328 c 2,7,-1
 185 1328 l 1,8,-1
 185 825 l 1,0,-1
32 0 m 1,9,-1
 32 1521 l 1,10,-1
 246 1521 l 2,11,12
 361 1521 361 1521 420.5 1415 c 128,-1,13
 480 1309 480 1309 480 1079 c 0,14,15
 480 869 480 869 413.5 750.5 c 128,-1,16
 347 632 347 632 252 632 c 2,17,-1
 185 632 l 1,18,-1
 185 0 l 1,19,-1
 32 0 l 1,9,-1
EndSplineSet
EndChar

StartChar: Thorn
Encoding: 222 222 156
Width: 489
VWidth: 2441
GlyphClass: 1
Flags: HW
LayerCount: 2
Fore
SplineSet
171 554 m 1,0,-1
 239 554 l 2,1,2
 289 554 289 554 309.5 621.5 c 128,-1,3
 330 689 330 689 330 801 c 128,-1,4
 330 913 330 913 307.5 984 c 128,-1,5
 285 1055 285 1055 231 1055 c 2,6,-1
 171 1055 l 1,7,-1
 171 554 l 1,0,-1
26 0 m 1,8,-1
 26 1521 l 1,9,-1
 182 1521 l 2,10,11
 184 1519 184 1519 184 1514 c 0,12,13
 184 1507 184 1507 177.5 1491 c 128,-1,14
 171 1475 171 1475 171 1453 c 2,15,-1
 171 1255 l 1,16,-1
 252 1255 l 2,17,18
 357 1255 357 1255 415.5 1132 c 128,-1,19
 474 1009 474 1009 474 806 c 0,20,21
 474 594 474 594 413 480 c 128,-1,22
 352 366 352 366 239 366 c 2,23,-1
 171 366 l 1,24,-1
 171 0 l 1,25,-1
 26 0 l 1,8,-1
EndSplineSet
EndChar

StartChar: Q
Encoding: 81 81 157
Width: 485
VWidth: 2391
GlyphClass: 2
Flags: HW
AnchorPoint: "Anchor-2" 239 83 basechar 0
AnchorPoint: "Anchor-0" 239 1522 basechar 0
LayerCount: 2
Fore
SplineSet
243 242 m 0,0,1
 285 242 285 242 303.5 360 c 128,-1,2
 322 478 322 478 322 762 c 0,3,4
 322 995 322 995 312.5 1124.5 c 128,-1,5
 303 1254 303 1254 284 1304.5 c 128,-1,6
 265 1355 265 1355 239 1355 c 128,-1,7
 213 1355 213 1355 194 1306.5 c 128,-1,8
 175 1258 175 1258 165.5 1143 c 128,-1,9
 156 1028 156 1028 156 830 c 0,10,11
 156 608 156 608 165.5 478.5 c 128,-1,12
 175 349 175 349 194 295.5 c 128,-1,13
 213 242 213 242 243 242 c 0,0,1
388 -245 m 1,14,15
 377.155279503 -246.00621118 377.155279503 -246.00621118 366.854288029 -246.00621118 c 0,16,17
 285.01863354 -246.00621118 285.01863354 -246.00621118 237.5 -182.5 c 0,18,19
 184 -111 184 -111 184 67 c 1,20,21
 129 95 129 95 91 171 c 128,-1,22
 53 247 53 247 33.5 396 c 128,-1,23
 14 545 14 545 14 795 c 0,24,25
 14 1026 14 1026 32.5 1171.5 c 128,-1,26
 51 1317 51 1317 82.5 1396.5 c 128,-1,27
 114 1476 114 1476 155 1507 c 128,-1,28
 196 1538 196 1538 239 1538 c 0,29,30
 284 1538 284 1538 324.5 1507 c 128,-1,31
 365 1476 365 1476 396 1396.5 c 128,-1,32
 427 1317 427 1317 444.5 1172.5 c 128,-1,33
 462 1028 462 1028 462 801 c 0,34,35
 462 550 462 550 445.5 395 c 128,-1,36
 429 240 429 240 394.5 164 c 128,-1,37
 360 88 360 88 307 67 c 1,38,39
 311 -10 311 -10 324 -46.5 c 128,-1,40
 337 -83 337 -83 371 -83 c 2,41,-1
 429 -78 l 1,42,-1
 427 -245 l 1,43,-1
 388 -245 l 1,14,15
EndSplineSet
EndChar

StartChar: R
Encoding: 82 82 158
Width: 512
VWidth: 2441
GlyphClass: 2
Flags: HW
AnchorPoint: "Anchor-2" 245 0 basechar 0
AnchorPoint: "Anchor-0" 245 1521 basechar 0
LayerCount: 2
Fore
SplineSet
183 830 m 1,0,-1
 235 830 l 2,1,2
 268 830 268 830 290 886.5 c 128,-1,3
 312 943 312 943 312 1084 c 0,4,5
 312 1226 312 1226 289.5 1277 c 128,-1,6
 267 1328 267 1328 235 1328 c 2,7,-1
 183 1328 l 1,8,-1
 183 830 l 1,0,-1
32 0 m 1,9,-1
 32 1521 l 1,10,-1
 221 1521 l 2,11,12
 460 1521 460 1521 461 1084 c 0,13,14
 461 898 461 898 433 806.5 c 128,-1,15
 405 715 405 715 346 674 c 1,16,-1
 480 0 l 1,17,-1
 338 0 l 1,18,-1
 213 650 l 1,19,-1
 183 650 l 1,20,-1
 183 0 l 1,21,-1
 32 0 l 1,9,-1
EndSplineSet
EndChar

StartChar: S
Encoding: 83 83 166
Width: 512
VWidth: 2441
GlyphClass: 2
Flags: HW
AnchorPoint: "Anchor-2" 252 0 basechar 0
AnchorPoint: "Anchor-0" 266 1521 basechar 0
LayerCount: 2
Fore
SplineSet
244 -24 m 0,0,1
 170 -24 170 -24 120 9 c 128,-1,2
 70 42 70 42 32 107 c 1,3,-1
 83 333 l 1,4,-1
 87 356 l 1,5,-1
 101 352 l 1,6,7
 108.485714286 336.092857143 108.485714286 336.092857143 108.485714286 303.281632653 c 0,8,9
 108.485714286 274 108.485714286 274 125 240 c 0,10,11
 169 167 169 167 230 166 c 0,12,13
 279 166 279 166 303.5 228.5 c 128,-1,14
 328 291 328 291 328 405 c 0,15,16
 328 491 328 491 315 558 c 128,-1,17
 302 625 302 625 226 706 c 1,18,19
 137 792 137 792 98.5 898 c 128,-1,20
 60 1004 60 1004 60 1150 c 0,21,22
 60 1346 60 1346 117.5 1443 c 128,-1,23
 175 1540 175 1540 268 1540 c 0,24,25
 401 1540 401 1540 466 1404 c 1,26,-1
 427 1204 l 1,27,-1
 423 1179 l 1,28,-1
 411 1181 l 1,29,30
 401 1198 401 1198 400 1229 c 128,-1,31
 399 1260 399 1260 381 1293 c 0,32,33
 360 1325 360 1325 337.5 1336 c 128,-1,34
 315 1347 315 1347 292 1347 c 0,35,36
 209.988095238 1347 209.988095238 1347 209.988095238 1166.37854308 c 0,37,38
 209.988095238 1067.03896104 209.988095238 1067.03896104 232 995 c 128,-1,39
 254 923 254 923 334 845 c 0,40,41
 415 764 415 764 447.5 658 c 128,-1,42
 480 552 480 552 480 429 c 0,43,44
 480 210 480 210 409.5 93 c 128,-1,45
 339 -24 339 -24 244 -24 c 0,0,1
EndSplineSet
EndChar

StartChar: uni1E9E
Encoding: 7838 7838 177
Width: 495
VWidth: 2441
GlyphClass: 1
Flags: HW
LayerCount: 2
Fore
SplineSet
296 -19 m 0,0,1
 239 -19 239 -19 197 27 c 1,2,-1
 217 212 l 1,3,4
 240 173 240 173 266 173 c 0,5,6
 301 173 301 173 315 244 c 128,-1,7
 329 315 329 315 329 464 c 0,8,9
 329 611 329 611 311.5 687.5 c 128,-1,10
 294 764 294 764 240 764 c 2,11,-1
 219 764 l 1,12,-1
 219 967 l 1,13,-1
 309 1223 l 1,14,15
 309 1316 309 1316 294.5 1377 c 128,-1,16
 280 1438 280 1438 238 1438 c 0,17,18
 201 1438 201 1438 184.5 1376 c 128,-1,19
 168 1314 168 1314 168 1160 c 2,20,-1
 168 0 l 1,21,-1
 28 0 l 1,22,-1
 28 1128 l 2,23,24
 28 1338 28 1338 57.5 1447 c 128,-1,25
 87 1556 87 1556 136 1594.5 c 128,-1,26
 185 1633 185 1633 240 1633 c 0,27,28
 333 1633 333 1633 387 1528 c 128,-1,29
 441 1423 441 1423 441 1189 c 1,30,-1
 333 932 l 1,31,32
 410 888 410 888 443 763 c 128,-1,33
 476 638 476 638 476 442 c 0,34,35
 476 195 476 195 429.5 88 c 128,-1,36
 383 -19 383 -19 296 -19 c 0,0,1
EndSplineSet
EndChar

StartChar: T
Encoding: 84 84 179
Width: 495
VWidth: 2441
GlyphClass: 2
Flags: HW
AnchorPoint: "Anchor-4" 240 762 basechar 0
AnchorPoint: "Anchor-2" 246 0 basechar 0
AnchorPoint: "Anchor-0" 246 1521 basechar 0
LayerCount: 2
Fore
SplineSet
168 0 m 1,0,-1
 168 1330 l 1,1,-1
 20 1330 l 1,2,-1
 20 1523 l 1,3,-1
 468 1523 l 1,4,-1
 468 1330 l 1,5,-1
 314 1330 l 1,6,-1
 314 0 l 1,7,-1
 168 0 l 1,0,-1
EndSplineSet
EndChar

StartChar: Tbar
Encoding: 358 358 180
Width: 495
VWidth: 2441
GlyphClass: 2
Flags: HW
AnchorPoint: "Anchor-4" 240 762 basechar 0
AnchorPoint: "Anchor-2" 246 0 basechar 0
AnchorPoint: "Anchor-0" 246 1521 basechar 0
LayerCount: 2
Fore
SplineSet
168 0 m 1,0,-1
 168 678 l 1,1,-1
 76 678 l 1,2,-1
 76 871 l 1,3,-1
 168 871 l 1,4,-1
 168 1330 l 1,5,-1
 20 1330 l 1,6,-1
 20 1523 l 1,7,-1
 468 1523 l 1,8,-1
 468 1330 l 1,9,-1
 314 1330 l 1,10,-1
 314 871 l 1,11,-1
 406 871 l 1,12,-1
 406 678 l 1,13,-1
 314 678 l 1,14,-1
 314 0 l 1,15,-1
 168 0 l 1,0,-1
EndSplineSet
EndChar

StartChar: U
Encoding: 85 85 186
Width: 512
VWidth: 2441
GlyphClass: 2
Flags: HW
AnchorPoint: "Anchor-3" 309 24 basechar 0
AnchorPoint: "Anchor-2" 254 0 basechar 0
AnchorPoint: "Anchor-1" 472 1521 basechar 0
AnchorPoint: "Anchor-0" 254 1521 basechar 0
LayerCount: 2
Fore
SplineSet
256 -27 m 0,0,1
 120 -27 120 -27 76 96 c 128,-1,2
 32 219 32 219 32 476 c 2,3,-1
 32 1521 l 1,4,-1
 205 1521 l 1,5,-1
 205 1504 l 1,6,7
 192 1490 192 1490 188.5 1473 c 128,-1,8
 185 1456 185 1456 185 1414 c 2,9,-1
 185 473 l 2,10,11
 185 307 185 307 200 235 c 128,-1,12
 215 163 215 163 256 163 c 0,13,14
 299 163 299 163 313 245 c 128,-1,15
 327 327 327 327 327 480 c 2,16,-1
 327 1521 l 1,17,-1
 480 1521 l 1,18,-1
 480 484 l 2,19,20
 480 203 480 203 431 88 c 128,-1,21
 382 -27 382 -27 256 -27 c 0,0,1
EndSplineSet
EndChar

StartChar: V
Encoding: 86 86 209
Width: 466
VWidth: 2441
GlyphClass: 2
Flags: HW
AnchorPoint: "Anchor-2" 227 0 basechar 0
AnchorPoint: "Anchor-0" 227 1521 basechar 0
LayerCount: 2
Fore
SplineSet
174 -10 m 1,0,-1
 4 1523 l 1,1,-1
 141 1523 l 1,2,-1
 234 525 l 1,3,-1
 318 1521 l 1,4,-1
 452 1521 l 1,5,-1
 284 -10 l 1,6,-1
 174 -10 l 1,0,-1
EndSplineSet
EndChar

StartChar: W
Encoding: 87 87 210
Width: 437
VWidth: 2441
GlyphClass: 2
Flags: HW
AnchorPoint: "Anchor-2" 211 0 basechar 0
AnchorPoint: "Anchor-0" 216 1521 basechar 0
LayerCount: 2
Fore
SplineSet
69 0 m 1,0,-1
 -15 1521 l 1,1,-1
 95 1521 l 1,2,-1
 129 676 l 1,3,-1
 184 1321 l 1,4,-1
 246 1321 l 1,5,-1
 305 674 l 1,6,-1
 328 1521 l 1,7,-1
 433 1521 l 1,8,-1
 349 0 l 1,9,-1
 280 0 l 1,10,-1
 213 778 l 1,11,-1
 142 0 l 1,12,-1
 69 0 l 1,0,-1
EndSplineSet
EndChar

StartChar: X
Encoding: 88 88 215
Width: 519
VWidth: 2441
GlyphClass: 2
Flags: HW
AnchorPoint: "Anchor-2" 252 0 basechar 0
AnchorPoint: "Anchor-0" 252 1521 basechar 0
LayerCount: 2
Fore
SplineSet
32 0 m 1,0,-1
 170 776 l 1,1,-1
 36 1523 l 1,2,-1
 170 1523 l 1,3,-1
 252 1028 l 1,4,-1
 336 1523 l 1,5,-1
 460 1523 l 1,6,-1
 334 778 l 1,7,-1
 480 0 l 1,8,-1
 348 0 l 1,9,-1
 252 520 l 1,10,-1
 160 0 l 1,11,-1
 32 0 l 1,0,-1
EndSplineSet
EndChar

StartChar: Y
Encoding: 89 89 216
Width: 483
VWidth: 2441
GlyphClass: 2
Flags: HW
AnchorPoint: "Anchor-2" 245 0 basechar 0
AnchorPoint: "Anchor-0" 237 1521 basechar 0
LayerCount: 2
Fore
SplineSet
176 0 m 1,0,-1
 176 547 l 1,1,-1
 14 1521 l 1,2,-1
 152 1521 l 1,3,-1
 245 874 l 1,4,-1
 330 1521 l 1,5,-1
 462 1521 l 1,6,-1
 312 547 l 1,7,-1
 312 0 l 1,8,-1
 176 0 l 1,0,-1
EndSplineSet
EndChar

StartChar: Z
Encoding: 90 90 226
Width: 524
VWidth: 2441
GlyphClass: 2
Flags: HW
AnchorPoint: "Anchor-2" 269 0 basechar 0
AnchorPoint: "Anchor-0" 259 1521 basechar 0
LayerCount: 2
Fore
SplineSet
32 110 m 1,0,-1
 297 1328 l 1,1,-1
 44 1328 l 1,2,-1
 44 1521 l 1,3,-1
 468 1521 l 1,4,-1
 468 1411 l 1,5,-1
 203 193 l 1,6,-1
 388 193 l 2,7,8
 422 193 422 193 438 198 c 128,-1,9
 454 203 454 203 466 217 c 1,10,-1
 480 217 l 1,11,-1
 480 0 l 1,12,-1
 32 0 l 1,13,-1
 32 110 l 1,0,-1
EndSplineSet
EndChar

StartChar: a
Encoding: 97 97 232
Width: 512
VWidth: 2441
GlyphClass: 2
Flags: HW
AnchorPoint: "Anchor-3" 435 0 basechar 0
AnchorPoint: "Anchor-2" 226 0 basechar 0
AnchorPoint: "Anchor-0" 269 1097 basechar 0
LayerCount: 2
Fore
SplineSet
175 337 m 0,0,1
 175 262 175 262 193 209 c 128,-1,2
 211 156 211 156 243 156 c 0,3,4
 290 156 290 156 311.5 241.5 c 128,-1,5
 333 327 333 327 335 525 c 1,6,7
 318 527 318 527 297 527 c 0,8,9
 240 527 240 527 207.5 484.5 c 128,-1,10
 175 442 175 442 175 337 c 0,0,1
205 -27 m 0,11,12
 122 -27 122 -27 77 71.5 c 128,-1,13
 32 170 32 170 32 312 c 0,14,15
 32 534 32 534 105.5 624.5 c 128,-1,16
 179 715 179 715 290 715 c 0,17,18
 309 715 309 715 333 710 c 1,19,20
 331 824 331 824 322 883.5 c 128,-1,21
 313 943 313 943 294 963 c 128,-1,22
 275 983 275 983 243 983 c 0,23,24
 207 983 207 983 182.5 963 c 128,-1,25
 158 943 158 943 132 899 c 1,26,-1
 61 1025 l 1,27,28
 91 1081 91 1081 139 1121.5 c 128,-1,29
 187 1162 187 1162 266 1162 c 128,-1,30
 345 1162 345 1162 391 1118 c 128,-1,31
 437 1074 437 1074 458.5 952 c 128,-1,32
 480 830 480 830 480 594 c 2,33,-1
 480 0 l 1,34,-1
 337 0 l 1,35,-1
 337 114 l 1,36,37
 316 31 316 31 282 2 c 128,-1,38
 248 -27 248 -27 205 -27 c 0,11,12
EndSplineSet
Substitution2: "Single Substitution lookup 29 subtable" ordfeminine
Substitution2: "'aalt' Access All Alternates in Latin lookup 0 subtable" ordfeminine
EndChar

StartChar: ae
Encoding: 230 230 257
Width: 434
VWidth: 2441
GlyphClass: 1
Flags: HW
LayerCount: 2
Fore
SplineSet
117 137 m 0,0,1
 150 137 150 137 151.5 243 c 128,-1,2
 153 349 153 349 153 517 c 1,3,4
 116 512 116 512 102.5 461 c 128,-1,5
 89 410 89 410 89 298 c 0,6,7
 89 217 89 217 95 177 c 128,-1,8
 101 137 101 137 117 137 c 0,0,1
256 696 m 1,9,-1
 323 703 l 1,10,11
 323 847 323 847 316.5 910.5 c 128,-1,12
 310 974 310 974 293 974 c 0,13,14
 272 974 272 974 264 907 c 128,-1,15
 256 840 256 840 256 696 c 1,9,-1
104 -27 m 0,16,17
 39 -27 39 -27 10.5 68 c 128,-1,18
 -18 163 -18 163 -18 300 c 0,19,20
 -18 432 -18 432 -4 510.5 c 128,-1,21
 10 589 10 589 47 629 c 128,-1,22
 84 669 84 669 153 683 c 1,23,24
 153 842 153 842 142.5 908 c 128,-1,25
 132 974 132 974 102 974 c 0,26,27
 65 974 65 974 42 913 c 1,28,-1
 5 1042 l 1,29,30
 42 1140 42 1140 108 1140 c 0,31,32
 143 1140 143 1140 170 1103.5 c 128,-1,33
 197 1067 197 1067 210 1016 c 1,34,35
 219 1072 219 1072 249.5 1106 c 128,-1,36
 280 1140 280 1140 308 1140 c 0,37,38
 371 1140 371 1140 398.5 1019.5 c 128,-1,39
 426 899 426 899 426 640 c 2,40,-1
 426 552 l 1,41,-1
 256 538 l 1,42,-1
 256 427 l 2,43,44
 256 285 256 285 274.5 210 c 128,-1,45
 293 135 293 135 330 135 c 0,46,47
 353 135 353 135 367.5 151.5 c 128,-1,48
 382 168 382 168 391 193 c 1,49,-1
 430 63 l 1,50,51
 393.402173913 -27.0108695652 393.402173913 -27.0108695652 325.496219282 -27.0108695652 c 0,52,53
 324.75 -27.0108695652 324.75 -27.0108695652 324 -27 c 0,54,55
 294 -27 294 -27 257 4 c 128,-1,56
 220 35 220 35 204 91 c 1,57,58
 171 -27 171 -27 104 -27 c 0,16,17
EndSplineSet
EndChar

StartChar: b
Encoding: 98 98 259
Width: 493
VWidth: 2441
GlyphClass: 2
Flags: HW
AnchorPoint: "Anchor-2" 486 0 basechar 0
AnchorPoint: "Anchor-0" 486 1116 basechar 0
LayerCount: 2
Fore
SplineSet
252 161 m 0,0,1
 281 161 281 161 299.5 184 c 128,-1,2
 318 207 318 207 327 292.5 c 128,-1,3
 336 378 336 378 336 559 c 0,4,5
 336 729 336 729 327 820 c 128,-1,6
 318 911 318 911 299.5 946 c 128,-1,7
 281 981 281 981 252 981 c 0,8,9
 217 981 217 981 190 883.5 c 128,-1,10
 163 786 163 786 163 554 c 0,11,12
 163 330 163 330 185 245.5 c 128,-1,13
 207 161 207 161 252 161 c 0,0,1
279 -27 m 0,14,15
 236 -27 236 -27 202.5 11 c 128,-1,16
 169 49 169 49 158 132 c 1,17,-1
 148 0 l 1,18,-1
 26 0 l 1,19,-1
 26 1624 l 1,20,-1
 180 1624 l 1,21,-1
 180 1607 l 1,22,23
 170 1593 170 1593 166.5 1575.5 c 128,-1,24
 163 1558 163 1558 163 1516 c 2,25,-1
 163 988 l 1,26,27
 181 1083 181 1083 223 1122.5 c 128,-1,28
 265 1162 265 1162 297 1162 c 0,29,30
 353 1162 353 1162 392 1118 c 128,-1,31
 431 1074 431 1074 452.5 946 c 128,-1,32
 474 818 474 818 474 569 c 0,33,34
 474 378 474 378 458.5 261 c 128,-1,35
 443 144 443 144 417 81.5 c 128,-1,36
 391 19 391 19 355.5 -4 c 128,-1,37
 320 -27 320 -27 279 -27 c 0,14,15
EndSplineSet
EndChar

StartChar: c
Encoding: 99 99 261
Width: 512
VWidth: 2441
GlyphClass: 2
Flags: HW
AnchorPoint: "Anchor-2" 287 0 basechar 0
AnchorPoint: "Anchor-0" 287 1140 basechar 0
LayerCount: 2
Fore
SplineSet
302 -27 m 0,0,1
 167 -27 167 -27 99.5 112.5 c 128,-1,2
 32 252 32 252 32 566 c 0,3,4
 32 790 32 790 68 920 c 128,-1,5
 104 1050 104 1050 162.5 1106 c 128,-1,6
 221 1162 221 1162 289 1162 c 0,7,8
 428 1162 428 1162 480 1009 c 1,9,-1
 432 848 l 1,10,-1
 426 823 l 1,11,-1
 413 830 l 1,12,13
 407 847 407 847 405.5 870.5 c 128,-1,14
 404 894 404 894 384 923 c 0,15,16
 351 962 351 962 310 962 c 0,17,18
 279 962 279 962 250 931.5 c 128,-1,19
 221 901 221 901 202 816.5 c 128,-1,20
 183 732 183 732 183 566 c 0,21,22
 183 407 183 407 199 318.5 c 128,-1,23
 215 230 215 230 244.5 193 c 128,-1,24
 274 156 274 156 310 156 c 0,25,26
 377 156 377 156 422 254 c 1,27,-1
 467 81 l 1,28,29
 408 -27 408 -27 302 -27 c 0,0,1
EndSplineSet
EndChar

StartChar: d
Encoding: 100 100 268
Width: 491
VWidth: 2441
GlyphClass: 2
Flags: HW
AnchorPoint: "Anchor-4" 356 1340 basechar 0
AnchorPoint: "Anchor-2" 245 0 basechar 0
AnchorPoint: "Anchor-1" 466 1116 basechar 0
AnchorPoint: "Anchor-0" 245 1116 basechar 0
LayerCount: 2
Fore
SplineSet
227 163 m 0,0,1
 313 163 313 163 314 564 c 0,2,3
 314 786 314 786 293 883.5 c 128,-1,4
 272 981 272 981 237 981 c 0,5,6
 212 981 212 981 194 949.5 c 128,-1,7
 176 918 176 918 167.5 835 c 128,-1,8
 159 752 159 752 159 596 c 0,9,10
 159 423 159 423 167.5 329 c 128,-1,11
 176 235 176 235 192.5 199 c 128,-1,12
 209 163 209 163 227 163 c 0,0,1
195 -24 m 0,13,14
 157 -24 157 -24 125.5 -1.5 c 128,-1,15
 94 21 94 21 71 85 c 128,-1,16
 48 149 48 149 35 266.5 c 128,-1,17
 22 384 22 384 22 569 c 0,18,19
 22 809 22 809 43 937 c 128,-1,20
 64 1065 64 1065 103.5 1113.5 c 128,-1,21
 143 1162 143 1162 197 1162 c 0,22,23
 297 1162 297 1162 314 999 c 1,24,-1
 314 1624 l 1,25,-1
 470 1624 l 1,26,-1
 470 1607 l 1,27,28
 458 1593 458 1593 455 1575.5 c 128,-1,29
 452 1558 452 1558 452 1516 c 2,30,-1
 452 173 l 2,31,32
 452 129 452 129 453 86.5 c 128,-1,33
 454 44 454 44 462 0 c 1,34,-1
 328 0 l 1,35,36
 320 30 320 30 315 59 c 128,-1,37
 310 88 310 88 310 132 c 1,38,39
 294 62 294 62 260.5 19 c 128,-1,40
 227 -24 227 -24 195 -24 c 0,13,14
EndSplineSet
EndChar

StartChar: eth
Encoding: 240 240 269
Width: 512
VWidth: 2441
GlyphClass: 1
Flags: HW
LayerCount: 2
Fore
SplineSet
262 156 m 0,0,1
 287 156 287 156 305.5 189 c 128,-1,2
 324 222 324 222 333 310 c 128,-1,3
 342 398 342 398 342 566 c 0,4,5
 342 764 342 764 319.5 864 c 128,-1,6
 297 964 297 964 260 964 c 0,7,8
 215 962 215 962 192.5 874 c 128,-1,9
 170 786 170 786 170 566 c 0,10,11
 170 342 170 342 193.5 249 c 128,-1,12
 217 156 217 156 262 156 c 0,0,1
262 -30 m 0,13,14
 203 -30 203 -30 150 18 c 128,-1,15
 97 66 97 66 64.5 190.5 c 128,-1,16
 32 315 32 315 32 545 c 0,17,18
 32 771 32 771 59.5 901.5 c 128,-1,19
 87 1032 87 1032 132.5 1086 c 128,-1,20
 178 1140 178 1140 231 1140 c 0,21,22
 262 1140 262 1140 287.5 1124.5 c 128,-1,23
 313 1109 313 1109 330 1072 c 1,24,25
 318 1135 318 1135 301.5 1194 c 128,-1,26
 285 1253 285 1253 262 1307 c 1,27,-1
 174 1253 l 1,28,-1
 118 1389 l 1,29,-1
 215 1442 l 1,30,31
 192 1488 192 1488 172 1529 c 128,-1,32
 152 1570 152 1570 122 1601 c 1,33,-1
 252 1643 l 1,34,35
 272 1611 272 1611 289.5 1580.5 c 128,-1,36
 307 1550 307 1550 328 1504 c 1,37,-1
 417 1560 l 1,38,-1
 466 1416 l 1,39,-1
 382 1365 l 1,40,41
 417 1274 417 1274 438.5 1171.5 c 128,-1,42
 460 1069 460 1069 470 936 c 128,-1,43
 480 803 480 803 480 617 c 0,44,45
 480 351 480 351 453.5 212 c 128,-1,46
 427 73 427 73 378.5 21.5 c 128,-1,47
 330 -30 330 -30 262 -30 c 0,13,14
EndSplineSet
EndChar

StartChar: dcaron
Encoding: 271 271 270
Width: 444
VWidth: 2441
GlyphClass: 1
Flags: HW
LayerCount: 2
Fore
SplineSet
147 161 m 0,0,1
 208 161 208 161 208 561 c 0,2,3
 208 787 208 787 194 886.5 c 128,-1,4
 180 986 180 986 159 986 c 0,5,6
 146 986 146 986 134.5 958 c 128,-1,7
 123 930 123 930 117.5 847 c 128,-1,8
 112 764 112 764 112 601 c 0,9,10
 112 420 112 420 115.5 326 c 128,-1,11
 119 232 119 232 127.5 196.5 c 128,-1,12
 136 161 136 161 147 161 c 0,0,1
116 -24 m 0,13,14
 89 -24 89 -24 67 -3.5 c 128,-1,15
 45 17 45 17 29 78 c 128,-1,16
 13 139 13 139 3.5 256 c 128,-1,17
 -6 373 -6 373 -6 566 c 0,18,19
 -6 815 -6 815 7 943.5 c 128,-1,20
 20 1072 20 1072 48 1118.5 c 128,-1,21
 76 1165 76 1165 117 1165 c 0,22,23
 164 1165 164 1165 184.5 1124.5 c 128,-1,24
 205 1084 205 1084 208 994 c 1,25,-1
 208 1621 l 1,26,-1
 343 1621 l 1,27,-1
 343 1605 l 1,28,29
 332 1591 332 1591 329 1572 c 128,-1,30
 326 1553 326 1553 326 1514 c 2,31,-1
 326 1184 l 1,32,33
 341 1238 341 1238 350.5 1286.5 c 128,-1,34
 360 1335 360 1335 360 1374 c 0,35,36
 360 1420 360 1420 351.5 1446 c 128,-1,37
 344.619047619 1467.04761905 344.619047619 1467.04761905 344.619047619 1511.03174603 c 0,0,0
 344.619047619 1521.38095238 344.619047619 1521.38095238 345 1533 c 0,38,39
 347 1577 347 1577 360 1604 c 128,-1,40
 373 1631 373 1631 393 1631 c 0,41,42
 442 1631 442 1631 442 1504 c 0,43,44
 442 1429 442 1429 428.5 1331 c 128,-1,45
 415 1233 415 1233 379 1111 c 1,46,-1
 326 1146 l 1,47,-1
 326 179 l 2,48,49
 326 133 326 133 327 88.5 c 128,-1,50
 328 44 328 44 333 0 c 1,51,-1
 219 0 l 1,52,53
 213 27 213 27 208 57.5 c 128,-1,54
 203 88 203 88 203 132 c 1,55,56
 192 62 192 62 164.5 19 c 128,-1,57
 137 -24 137 -24 116 -24 c 0,13,14
EndSplineSet
EndChar

StartChar: e
Encoding: 101 101 274
Width: 512
VWidth: 2441
GlyphClass: 2
Flags: HW
AnchorPoint: "Anchor-3" 348 24 basechar 0
AnchorPoint: "Anchor-2" 309 0 basechar 0
AnchorPoint: "Anchor-0" 266 1116 basechar 0
LayerCount: 2
Fore
SplineSet
185 685 m 1,0,-1
 333 685 l 1,1,2
 333 839 333 839 322 906.5 c 128,-1,3
 311 974 311 974 264 974 c 0,4,5
 225 974 225 974 208 909 c 128,-1,6
 191 844 191 844 185 685 c 1,0,-1
283 -24 m 0,7,8
 161 -24 161 -24 96.5 106.5 c 128,-1,9
 32 237 32 237 32 554 c 0,10,11
 32 780 32 780 57.5 914 c 128,-1,12
 83 1048 83 1048 136 1105 c 128,-1,13
 189 1162 189 1162 269 1162 c 0,14,15
 344 1162 344 1162 390.5 1107.5 c 128,-1,16
 437 1053 437 1053 458.5 924.5 c 128,-1,17
 480 796 480 796 480 576 c 0,18,19
 480 552 480 552 480 536 c 128,-1,20
 480 520 480 520 478 501 c 1,21,-1
 181 501 l 1,22,23
 185 303 185 303 209.5 234.5 c 128,-1,24
 234 166 234 166 290 163 c 0,25,26
 329 163 329 163 352.5 191 c 128,-1,27
 376 219 376 219 392 261 c 1,28,-1
 467 126 l 1,29,30
 439 63 439 63 391.5 19.5 c 128,-1,31
 344 -24 344 -24 283 -24 c 0,7,8
EndSplineSet
EndChar

StartChar: uni029A
Encoding: 666 666 296
Width: 512
VWidth: 2441
GlyphClass: 1
Flags: HW
LayerCount: 2
Fore
SplineSet
249 166 m 0,0,1
 283 166 283 166 301 200.5 c 128,-1,2
 319 235 319 235 326.5 321.5 c 128,-1,3
 334 408 334 408 334 561 c 0,4,5
 334 793 334 793 316.5 883.5 c 128,-1,6
 299 974 299 974 259 974 c 0,7,8
 234 974 234 974 220.5 928.5 c 128,-1,9
 207 883 207 883 207 827 c 0,10,11
 207 693.97080292 207 693.97080292 249.724705632 693.97080292 c 0,0,0
 250.357664234 693.97080292 250.357664234 693.97080292 251 694 c 0,12,13
 257 694 257 694 263 694 c 128,-1,14
 269 694 269 694 275 696 c 1,15,-1
 275 498 l 1,16,17
 265 500 265 500 257 502.5 c 128,-1,18
 249 505 249 505 239 505 c 0,19,20
 219 505 219 505 199.5 467 c 128,-1,21
 180 429 180 429 180 335 c 0,22,23
 180 256 180 256 198.5 211 c 128,-1,24
 217 166 217 166 249 166 c 0,0,1
245 -19 m 0,25,26
 147 -17 147 -17 89.5 75.5 c 128,-1,27
 32 168 32 168 32 349 c 0,28,29
 32 452 32 452 58 523 c 128,-1,30
 84 594 84 594 126 615 c 1,31,32
 62 698 62 698 61 840 c 0,33,34
 61 991 61 991 119.5 1065.5 c 128,-1,35
 178 1140 178 1140 253 1140 c 0,36,37
 370 1140 370 1140 425 1004.5 c 128,-1,38
 480 869 480 869 480 559 c 0,39,40
 480 240 480 240 421 109.5 c 128,-1,41
 362.890566038 -19.0301886792 362.890566038 -19.0301886792 248.518860805 -19.0301886792 c 0,0,0
 246.766037736 -19.0301886792 246.766037736 -19.0301886792 245 -19 c 0,25,26
EndSplineSet
EndChar

StartChar: f
Encoding: 102 102 300
Width: 476
VWidth: 2441
GlyphClass: 1
Flags: HW
LayerCount: 2
Fore
SplineSet
104 955 m 1,0,-1
 10 955 l 1,1,-1
 10 1135 l 1,2,-1
 104 1135 l 1,3,-1
 104 1209 l 2,4,5
 104 1433 104 1433 165 1535.5 c 128,-1,6
 226 1638 226 1638 299 1638 c 0,7,8
 340 1638 340 1638 388 1606.5 c 128,-1,9
 436 1575 436 1575 458 1507 c 1,10,-1
 421 1347 l 1,11,-1
 412 1323 l 1,12,-1
 399 1330 l 1,13,14
 393 1347 393 1347 389 1371.5 c 128,-1,15
 385 1396 385 1396 363 1426 c 0,16,17
 346 1450 346 1450 316 1451 c 0,18,19
 284 1451 284 1451 261.5 1393 c 128,-1,20
 239 1335 239 1335 239 1209 c 2,21,-1
 239 1135 l 1,22,-1
 365 1135 l 1,23,-1
 365 955 l 1,24,-1
 239 955 l 1,25,-1
 239 0 l 1,26,-1
 104 0 l 1,27,-1
 104 955 l 1,0,-1
EndSplineSet
EndChar

StartChar: g
Encoding: 103 103 301
Width: 470
VWidth: 2301
GlyphClass: 2
Flags: HW
AnchorPoint: "Anchor-2" 240 -225 basechar 0
AnchorPoint: "Anchor-0" 213 1122 basechar 0
LayerCount: 2
Fore
SplineSet
137 34 m 0,0,1
 137 -94 137 -94 225 -94 c 0,2,3
 268 -94 268 -94 290.5 -52.5 c 128,-1,4
 313 -11 313 -11 313 43 c 0,5,6
 313 115 313 115 292.5 141 c 128,-1,7
 272 167 272 167 240 167 c 0,8,9
 218 167 218 167 199 168 c 128,-1,10
 180 169 180 169 160 173 c 1,11,12
 137 119 137 119 137 34 c 0,0,1
215 613 m 0,13,14
 248 613 248 613 255 659.5 c 128,-1,15
 262 706 262 706 262 813 c 0,16,17
 262 919 262 919 255.5 966 c 128,-1,18
 249 1013 249 1013 215 1013 c 0,19,20
 185 1013 185 1013 176.5 966 c 128,-1,21
 168 919 168 919 168 813 c 128,-1,22
 168 707 168 707 176.5 660 c 128,-1,23
 185 613 185 613 215 613 c 0,13,14
215 464 m 0,24,25
 193 464 193 464 176 470 c 1,26,27
 168 453 168 453 162 437 c 128,-1,28
 156 421 156 421 156 404 c 0,29,30
 156 365 156 365 180.5 347.5 c 128,-1,31
 205 330 205 330 274 330 c 0,32,33
 362 330 362 330 399 265 c 128,-1,34
 436 200 436 200 436 61 c 0,35,36
 436 -67 436 -67 384.5 -156.5 c 128,-1,37
 333 -246 333 -246 225 -246 c 0,38,39
 115 -246 115 -246 61.5 -184.5 c 128,-1,40
 8 -123 8 -123 8 17 c 0,41,42
 8 91 8 91 24 143 c 128,-1,43
 40 195 40 195 68 230 c 1,44,45
 36.8857142857 273.371428571 36.8857142857 273.371428571 36.8857142857 356.746938776 c 0,46,47
 36.8857142857 361.8 36.8857142857 361.8 37 367 c 0,48,49
 39 408 39 408 53.5 449.5 c 128,-1,50
 68 491 68 491 90 528 c 1,51,52
 34 611 34 611 33 813 c 0,53,54
 33 994 33 994 82 1081.5 c 128,-1,55
 131 1169 131 1169 215 1169 c 128,-1,56
 299 1169 299 1169 346 1087 c 1,57,58
 368 1126 368 1126 393.5 1144.5 c 128,-1,59
 419 1163 419 1163 449 1159 c 1,60,-1
 456 1004 l 1,61,62
 449.5 1005.33333333 449.5 1005.33333333 443.194444444 1005.33333333 c 0,63,64
 411.666666667 1005.33333333 411.666666667 1005.33333333 385 972 c 1,65,66
 396 905 396 905 397 813 c 0,67,68
 397 622 397 622 343.5 543 c 128,-1,69
 290 464 290 464 215 464 c 0,24,25
EndSplineSet
EndChar

StartChar: h
Encoding: 104 104 308
Width: 512
VWidth: 2441
GlyphClass: 2
Flags: HW
AnchorPoint: "Anchor-4" 121 1340 basechar 0
AnchorPoint: "Anchor-2" 254 0 basechar 0
AnchorPoint: "Anchor-0" 108 1624 basechar 0
LayerCount: 2
Fore
SplineSet
32 1624 m 1,0,-1
 205 1624 l 1,1,-1
 205 1607 l 1,2,3
 192 1593 192 1593 189 1575.5 c 128,-1,4
 186 1558 186 1558 186 1516 c 2,5,-1
 186 972 l 1,6,7
 208 1072 208 1072 247.5 1117 c 128,-1,8
 287 1162 287 1162 343 1162 c 0,9,10
 421 1162 421 1162 450.5 1063 c 128,-1,11
 480 964 480 964 480 706 c 2,12,-1
 480 0 l 1,13,-1
 327 0 l 1,14,-1
 327 701 l 2,15,16
 327 855 327 855 317 911 c 128,-1,17
 307 967 307 967 275 967 c 0,18,19
 237 967 237 967 211.5 886.5 c 128,-1,20
 186 806 186 806 186 643 c 2,21,-1
 186 0 l 1,22,-1
 32 0 l 1,23,-1
 32 1624 l 1,0,-1
EndSplineSet
EndChar

StartChar: i
Encoding: 105 105 313
Width: 503
VWidth: 2441
GlyphClass: 2
Flags: HW
AnchorPoint: "Anchor-3" 371 0 basechar 0
AnchorPoint: "Anchor-2" 254 0 basechar 0
AnchorPoint: "Anchor-0" 254 1496 basechar 0
LayerCount: 2
Fore
SplineSet
32 0 m 1,0,-1
 32 186 l 1,1,-1
 176 186 l 1,2,-1
 176 952 l 1,3,-1
 39 952 l 1,4,-1
 39 1135 l 1,5,-1
 342 1135 l 1,6,-1
 342 186 l 1,7,-1
 471 186 l 1,8,-1
 471 0 l 1,9,-1
 32 0 l 1,0,-1
251 1372 m 128,-1,11
 205 1372 205 1372 170 1408.5 c 128,-1,12
 135 1445 135 1445 135 1494 c 0,13,14
 135 1545 135 1545 168.5 1580.5 c 128,-1,15
 202 1616 202 1616 251 1616 c 0,16,17
 297 1616 297 1616 331.5 1580.5 c 128,-1,18
 366 1545 366 1545 366 1494 c 0,19,20
 366 1445 366 1445 331.5 1408.5 c 128,-1,10
 297 1372 297 1372 251 1372 c 128,-1,11
EndSplineSet
Substitution2: "'locl' Localized Forms in Latin lookup 18 subtable" i.loclTRK
Substitution2: "'locl' Localized Forms in Latin lookup 17 subtable" i.loclTRK
Substitution2: "'locl' Localized Forms in Latin lookup 16 subtable" i.loclTRK
Substitution2: "'locl' Localized Forms in Latin lookup 15 subtable" i.loclTRK
Substitution2: "'locl' Localized Forms in Latin lookup 14 subtable" i.loclTRK
Substitution2: "Single Substitution lookup 4 subtable" dotlessi
Substitution2: "Single Substitution lookup 3 subtable" dotlessi
AlternateSubs2: "'aalt' Access All Alternates in Latin lookup 1 subtable" dotlessi i.loclTRK
EndChar

StartChar: dotlessi
Encoding: 305 305 314
Width: 503
VWidth: 2441
GlyphClass: 2
Flags: HW
AnchorPoint: "Anchor-3" 371 0 basechar 0
AnchorPoint: "Anchor-2" 254 0 basechar 0
AnchorPoint: "Anchor-0" 254 1135 basechar 0
LayerCount: 2
Fore
SplineSet
32 0 m 1,0,-1
 32 186 l 1,1,-1
 176 186 l 1,2,-1
 176 952 l 1,3,-1
 39 952 l 1,4,-1
 39 1135 l 1,5,-1
 342 1135 l 1,6,-1
 342 186 l 1,7,-1
 471 186 l 1,8,-1
 471 0 l 1,9,-1
 32 0 l 1,0,-1
EndSplineSet
EndChar

StartChar: j
Encoding: 106 106 329
Width: 538
VWidth: 2367
GlyphClass: 2
Flags: HW
AnchorPoint: "Anchor-2" 296 -282 basechar 0
AnchorPoint: "Anchor-0" 374 1507 basechar 0
LayerCount: 2
Fore
SplineSet
212 -246 m 0,0,1
 163 -246 163 -246 113.5 -225 c 128,-1,2
 64 -204 64 -204 29 -164 c 1,3,-1
 85 -1 l 1,4,-1
 91 21 l 1,5,-1
 104 16 l 1,6,7
 111 -1 111 -1 116 -19 c 128,-1,8
 121 -37 121 -37 143 -59 c 1,9,10
 160 -70 160 -70 177 -72.5 c 128,-1,11
 194 -75 194 -75 210 -75 c 0,12,13
 255 -75 255 -75 272 -13.5 c 128,-1,14
 289 48 289 48 289 182 c 2,15,-1
 289 1008 l 1,16,-1
 100 1008 l 1,17,-1
 100 1177 l 1,18,-1
 444 1177 l 1,19,-1
 444 190 l 2,20,21
 444 20 444 20 413.5 -74.5 c 128,-1,22
 383 -169 383 -169 332 -207.5 c 128,-1,23
 281 -246 281 -246 212 -246 c 0,0,1
372 1393 m 128,-1,25
 330 1393 330 1393 297.5 1426.5 c 128,-1,26
 265 1460 265 1460 265 1504 c 0,27,28
 265 1551 265 1551 296 1583.5 c 128,-1,29
 327 1616 327 1616 372 1616 c 0,30,31
 414 1616 414 1616 445 1583.5 c 128,-1,32
 476 1551 476 1551 476 1504 c 0,33,34
 476 1459 476 1459 445 1426 c 128,-1,24
 414 1393 414 1393 372 1393 c 128,-1,25
EndSplineSet
Substitution2: "Single Substitution lookup 4 subtable" uni0237
Substitution2: "Single Substitution lookup 3 subtable" uni0237
Substitution2: "'aalt' Access All Alternates in Latin lookup 0 subtable" uni0237
EndChar

StartChar: uni0237
Encoding: 567 567 330
Width: 491
VWidth: 2290
GlyphClass: 2
Flags: HW
AnchorPoint: "Anchor-2" 287 -281 basechar 0
AnchorPoint: "Anchor-0" 363 1135 basechar 0
LayerCount: 2
Fore
SplineSet
206 -246 m 0,0,1
 158 -246 158 -246 110 -225.5 c 128,-1,2
 62 -205 62 -205 29 -167 c 1,3,-1
 82 -8 l 1,4,-1
 89 13 l 1,5,-1
 101 8 l 1,6,7
 107 -9 107 -9 112 -26 c 128,-1,8
 117 -43 117 -43 138 -64 c 1,9,10
 155 -75 155 -75 171.5 -77.5 c 128,-1,11
 188 -80 188 -80 204 -80 c 0,12,13
 247 -80 247 -80 264 -20.5 c 128,-1,14
 281 39 281 39 281 169 c 2,15,-1
 281 971 l 1,16,-1
 97 971 l 1,17,-1
 97 1135 l 1,18,-1
 431 1135 l 1,19,-1
 431 177 l 2,20,21
 431 12 431 12 401.5 -79.5 c 128,-1,22
 372 -171 372 -171 322.5 -208.5 c 128,-1,23
 273 -246 273 -246 206 -246 c 0,0,1
EndSplineSet
EndChar

StartChar: k
Encoding: 107 107 332
Width: 481
VWidth: 2441
GlyphClass: 2
Flags: HW
AnchorPoint: "Anchor-2" 234 0 basechar 0
AnchorPoint: "Anchor-0" 88 1624 basechar 0
LayerCount: 2
Fore
SplineSet
188 461 m 1,0,-1
 161 378 l 1,1,-1
 159 0 l 1,2,-1
 21 0 l 1,3,-1
 21 1624 l 1,4,-1
 178 1624 l 1,5,-1
 178 1607 l 1,6,7
 166 1593 166 1593 162.5 1575.5 c 128,-1,8
 159 1558 159 1558 159 1516 c 2,9,-1
 159 640 l 1,10,-1
 328 1146 l 1,11,12
 344 1139 344 1139 367.5 1133.5 c 128,-1,13
 391 1128 391 1128 412 1128 c 2,14,-1
 450 1128 l 1,15,-1
 282 620 l 1,16,-1
 469 0 l 1,17,-1
 326 -10 l 1,18,-1
 188 461 l 1,0,-1
EndSplineSet
EndChar

StartChar: kgreenlandic
Encoding: 312 312 334
Width: 481
VWidth: 2441
GlyphClass: 2
Flags: HW
AnchorPoint: "Anchor-2" 232 0 basechar 0
AnchorPoint: "Anchor-0" 85 1116 basechar 0
LayerCount: 2
Fore
SplineSet
188 461 m 1,0,-1
 161 378 l 1,1,-1
 159 0 l 1,2,-1
 21 0 l 1,3,-1
 21 1135 l 1,4,-1
 178 1135 l 1,5,-1
 178 1118 l 1,6,7
 166 1104 166 1104 162.5 1086.5 c 128,-1,8
 159 1069 159 1069 159 1028 c 2,9,-1
 159 640 l 1,10,-1
 328 1146 l 1,11,12
 344 1139 344 1139 367.5 1133.5 c 128,-1,13
 391 1128 391 1128 412 1128 c 2,14,-1
 450 1128 l 1,15,-1
 282 620 l 1,16,-1
 469 0 l 1,17,-1
 326 -10 l 1,18,-1
 188 461 l 1,0,-1
EndSplineSet
EndChar

StartChar: l
Encoding: 108 108 335
Width: 512
VWidth: 2441
GlyphClass: 2
Flags: HW
AnchorPoint: "Anchor-4" 257 559 basechar 0
AnchorPoint: "Anchor-2" 257 0 basechar 0
AnchorPoint: "Anchor-1" 521 1116 basechar 0
AnchorPoint: "Anchor-0" 257 1624 basechar 0
LayerCount: 2
Fore
SplineSet
32 0 m 1,0,-1
 32 188 l 1,1,-1
 179 188 l 1,2,-1
 179 1435 l 1,3,-1
 39 1435 l 1,4,-1
 39 1624 l 1,5,-1
 338 1624 l 1,6,-1
 338 188 l 1,7,-1
 480 188 l 1,8,-1
 480 0 l 1,9,-1
 32 0 l 1,0,-1
EndSplineSet
EndChar

StartChar: ldot
Encoding: 320 320 339
Width: 539
VWidth: 2441
GlyphClass: 1
Flags: HW
LayerCount: 2
Fore
SplineSet
378 691 m 128,-1,1
 337 691 337 691 307.5 727.5 c 128,-1,2
 278 764 278 764 278 815 c 0,3,4
 278 869 278 869 307.5 906 c 128,-1,5
 337 943 337 943 378 943 c 128,-1,6
 419 943 419 943 449.5 906 c 128,-1,7
 480 869 480 869 480 815 c 0,8,9
 480 764 480 764 449.5 727.5 c 128,-1,0
 419 691 419 691 378 691 c 128,-1,1
32 0 m 1,10,-1
 32 188 l 1,11,-1
 134 188 l 1,12,-1
 134 1435 l 1,13,-1
 39 1435 l 1,14,-1
 39 1624 l 1,15,-1
 276 1624 l 1,16,-1
 276 188 l 1,17,-1
 412 188 l 1,18,-1
 410 0 l 1,19,-1
 32 0 l 1,10,-1
EndSplineSet
EndChar

StartChar: uni01C9
Encoding: 457 457 341
Width: 462
VWidth: 2368
GlyphClass: 1
Flags: HW
LayerCount: 2
Fore
SplineSet
230 -246 m 0,0,1
 188 -246 188 -246 149.5 -219.5 c 128,-1,2
 111 -193 111 -193 91 -157 c 1,3,-1
 139 33 l 1,4,5
 148 24 148 24 148 14.5 c 128,-1,6
 148 5 148 5 152.5 -10.5 c 128,-1,7
 157 -26 157 -26 183 -50 c 0,8,9
 194 -61 194 -61 204.5 -65 c 128,-1,10
 215 -69 215 -69 229 -69 c 0,11,12
 271 -69 271 -69 288 -16 c 128,-1,13
 305 37 305 37 305 182 c 2,14,-1
 305 1009 l 1,15,-1
 212 1009 l 1,16,-1
 212 1177 l 1,17,-1
 426 1177 l 1,18,-1
 426 190 l 2,19,20
 426 20 426 20 402.5 -74.5 c 128,-1,21
 379 -169 379 -169 334 -206.5 c 128,-1,22
 289 -244 289 -244 230 -246 c 0,0,1
355 1377 m 128,-1,24
 318 1377 318 1377 290.5 1410 c 128,-1,25
 263 1443 263 1443 263 1488 c 0,26,27
 263 1535 263 1535 290 1567 c 128,-1,28
 317 1599 317 1599 355 1599 c 0,29,30
 392 1599 392 1599 419 1566.5 c 128,-1,31
 446 1534 446 1534 446 1488 c 0,32,33
 446 1443 446 1443 419 1410 c 128,-1,23
 392 1377 392 1377 355 1377 c 128,-1,24
-2 141 m 1,34,-1
 -0 313 l 1,35,-1
 52 313 l 1,36,-1
 52 1452 l 1,37,-1
 6 1452 l 1,38,-1
 4 1624 l 1,39,-1
 171 1624 l 1,40,-1
 171 313 l 1,41,-1
 256 313 l 1,42,-1
 256 141 l 1,43,-1
 -2 141 l 1,34,-1
EndSplineSet
EndChar

StartChar: lslash
Encoding: 322 322 343
Width: 512
VWidth: 2441
GlyphClass: 1
Flags: HW
LayerCount: 2
Fore
SplineSet
32 0 m 1,0,-1
 32 188 l 1,1,-1
 170 188 l 1,2,-1
 170 617 l 1,3,-1
 98 557 l 1,4,-1
 98 811 l 1,5,-1
 170 871 l 1,6,-1
 170 1435 l 1,7,-1
 39 1435 l 1,8,-1
 39 1624 l 1,9,-1
 339 1624 l 1,10,-1
 339 967 l 1,11,-1
 426 1035 l 1,12,-1
 426 778 l 1,13,-1
 339 708 l 1,14,-1
 339 188 l 1,15,-1
 480 188 l 1,16,-1
 478 0 l 1,17,-1
 32 0 l 1,0,-1
EndSplineSet
EndChar

StartChar: m
Encoding: 109 109 344
Width: 487
VWidth: 2441
GlyphClass: 2
Flags: HW
AnchorPoint: "Anchor-2" 249 0 basechar 0
AnchorPoint: "Anchor-0" 484 1116 basechar 0
LayerCount: 2
Fore
SplineSet
18 0 m 1,0,-1
 18 1135 l 1,1,-1
 123 1135 l 1,2,-1
 123 1025 l 1,3,4
 135 1086 135 1086 152 1124 c 128,-1,5
 169 1162 169 1162 197 1162 c 0,6,7
 227 1162 227 1162 244 1117 c 128,-1,8
 261 1072 261 1072 267 999 c 1,9,10
 279 1072 279 1072 303.5 1117 c 128,-1,11
 328 1162 328 1162 363 1162 c 0,12,13
 409 1162 409 1162 439 1083 c 0,14,15
 466.272727273 1011.18181818 466.272727273 1011.18181818 466.272727273 883.165289256 c 0,16,17
 466.272727273 870.363636364 466.272727273 870.363636364 466 857 c 2,18,-1
 466 0 l 1,19,-1
 349 0 l 1,20,-1
 349 820 l 2,21,22
 349 932 349 932 344.5 964.5 c 128,-1,23
 340 997 340 997 330 997 c 0,24,25
 308 997 308 997 301 934 c 128,-1,26
 294 871 294 871 294 767 c 2,27,-1
 294 0 l 1,28,-1
 189 0 l 1,29,-1
 189 806 l 2,30,31
 189 920 189 920 185.5 957 c 128,-1,32
 182 994 182 994 169 994 c 0,33,34
 155 994 155 994 145.5 941 c 128,-1,35
 136 888 136 888 136 774 c 2,36,-1
 136 0 l 1,37,-1
 18 0 l 1,0,-1
EndSplineSet
EndChar

StartChar: n
Encoding: 110 110 346
Width: 512
VWidth: 2441
GlyphClass: 2
Flags: HW
AnchorPoint: "Anchor-2" 265 0 basechar 0
AnchorPoint: "Anchor-0" 271 1116 basechar 0
LayerCount: 2
Fore
SplineSet
32 0 m 1,0,-1
 32 1135 l 1,1,-1
 186 1135 l 1,2,-1
 186 972 l 1,3,4
 208 1060 208 1060 244.5 1111 c 128,-1,5
 281 1162 281 1162 332 1162 c 0,6,7
 381 1162 381 1162 413.5 1130.5 c 128,-1,8
 446 1099 446 1099 463 1006 c 128,-1,9
 480 913 480 913 480 730 c 2,10,-1
 480 0 l 1,11,-1
 327 0 l 1,12,-1
 327 725 l 2,13,14
 327 869 327 869 316 918 c 128,-1,15
 305 967 305 967 279 967 c 0,16,17
 243 967 243 967 214.5 891 c 128,-1,18
 186 815 186 815 186 666 c 2,19,-1
 186 0 l 1,20,-1
 32 0 l 1,0,-1
EndSplineSet
EndChar

StartChar: eng
Encoding: 331 331 352
Width: 501
VWidth: 2292
GlyphClass: 1
Flags: HW
LayerCount: 2
Fore
SplineSet
261 -246 m 0,0,1
 233 -246 233 -246 194 -232.5 c 128,-1,2
 155 -219 155 -219 131 -188 c 1,3,-1
 168 -27 l 1,4,5
 179 -29 179 -29 183.5 -42.5 c 128,-1,6
 188 -56 188 -56 197.5 -70.5 c 128,-1,7
 207 -85 207 -85 238 -85 c 0,8,9
 292 -85 292 -85 306 -10.5 c 128,-1,10
 320 64 320 64 320 231 c 2,11,-1
 320 728 l 2,12,13
 320 888 320 888 309 938.5 c 128,-1,14
 298 989 298 989 273 989 c 0,15,16
 236 989 236 989 209 916 c 128,-1,17
 182 843 182 843 182 702 c 2,18,-1
 182 134 l 1,19,-1
 32 134 l 1,20,-1
 32 1138 l 1,21,-1
 182 1138 l 1,22,-1
 182 993 l 1,23,24
 206 1084 206 1084 234.5 1123 c 128,-1,25
 263 1162 263 1162 320 1162 c 0,26,27
 363 1162 363 1162 396.5 1126.5 c 128,-1,28
 430 1091 430 1091 449.5 997 c 128,-1,29
 469 903 469 903 469 732 c 2,30,-1
 469 255 l 2,31,32
 469 67 469 67 445 -42 c 128,-1,33
 421 -151 421 -151 376 -198.5 c 128,-1,34
 331 -246 331 -246 261 -246 c 0,0,1
EndSplineSet
EndChar

StartChar: o
Encoding: 111 111 355
Width: 495
VWidth: 2441
GlyphClass: 2
Flags: HW
AnchorPoint: "Anchor-4" 247 559 basechar 0
AnchorPoint: "Anchor-3" 279 24 basechar 0
AnchorPoint: "Anchor-2" 247 0 basechar 0
AnchorPoint: "Anchor-1" 356 1065 basechar 0
AnchorPoint: "Anchor-0" 247 1116 basechar 0
LayerCount: 2
Fore
SplineSet
247 166 m 128,-1,1
 293 166 293 166 312 256.5 c 128,-1,2
 331 347 331 347 331 564 c 0,3,4
 331 788 331 788 312 881 c 128,-1,5
 293 974 293 974 247 974 c 0,6,7
 203 974 203 974 182 881.5 c 128,-1,8
 161 789 161 789 161 564 c 0,9,10
 161 347 161 347 181 256.5 c 128,-1,0
 201 166 201 166 247 166 c 128,-1,1
247 -19 m 128,-1,12
 178 -19 178 -19 128 32 c 128,-1,13
 78 83 78 83 50 209 c 128,-1,14
 22 335 22 335 22 559 c 0,15,16
 22 796 22 796 50 926.5 c 128,-1,17
 78 1057 78 1057 128 1109.5 c 128,-1,18
 178 1162 178 1162 247 1162 c 128,-1,19
 316 1162 316 1162 366 1109.5 c 128,-1,20
 416 1057 416 1057 443 926.5 c 128,-1,21
 470 796 470 796 470 559 c 0,22,23
 470 335 470 335 443 209 c 128,-1,24
 416 83 416 83 366 32 c 128,-1,11
 316 -19 316 -19 247 -19 c 128,-1,12
EndSplineSet
Substitution2: "Single Substitution lookup 29 subtable" ordmasculine
Substitution2: "'aalt' Access All Alternates in Latin lookup 0 subtable" ordmasculine
EndChar

StartChar: oslash
Encoding: 248 248 383
Width: 495
VWidth: 2441
GlyphClass: 2
Flags: HW
AnchorPoint: "Anchor-4" 247 559 basechar 0
AnchorPoint: "Anchor-3" 279 24 basechar 0
AnchorPoint: "Anchor-2" 247 0 basechar 0
AnchorPoint: "Anchor-1" 356 1065 basechar 0
AnchorPoint: "Anchor-0" 247 1116 basechar 0
LayerCount: 2
Fore
SplineSet
247 166 m 0,0,1
 293 166 293 166 312 256.5 c 128,-1,2
 331 347 331 347 331 564 c 0,3,4
 331 645 331 645 330 703 c 1,5,-1
 211 184 l 1,6,7
 227 166 227 166 247 166 c 0,0,1
161 564 m 0,8,9
 161 491 161 491 162 437 c 1,10,-1
 281 957 l 1,11,12
 267 974 267 974 247 974 c 0,13,14
 203 974 203 974 182 881 c 128,-1,15
 161 788 161 788 161 564 c 0,8,9
143 -119 m 1,16,-1
 46 -75 l 1,17,-1
 86 95 l 1,18,19
 56 161 56 161 39 275 c 128,-1,20
 22 389 22 389 22 559 c 0,21,22
 22 796 22 796 50 926.5 c 128,-1,23
 78 1057 78 1057 128 1109.5 c 128,-1,24
 178 1162 178 1162 247 1162 c 0,25,26
 289 1162 289 1162 324 1146 c 1,27,-1
 349 1260 l 1,28,-1
 446 1216 l 1,29,-1
 406 1045 l 1,30,31
 438 977 438 977 454 860 c 128,-1,32
 470 743 470 743 470 559 c 0,33,34
 470 335 470 335 443 209 c 128,-1,35
 416 83 416 83 366 32 c 128,-1,36
 316 -19 316 -19 247 -19 c 0,37,38
 203 -19 203 -19 168 -2 c 1,39,-1
 143 -119 l 1,16,-1
EndSplineSet
EndChar

StartChar: oe
Encoding: 339 339 389
Width: 426
VWidth: 2441
GlyphClass: 1
Flags: HW
LayerCount: 2
Fore
SplineSet
121 139 m 0,0,1
 132 139 132 139 142 156 c 128,-1,2
 152 173 152 173 152 217 c 0,3,4
 152 222 152 222 151 235.5 c 128,-1,5
 150 249 150 249 148 273 c 0,6,7
 137 446 137 446 137 581 c 0,8,9
 137 723 137 723 141.5 795 c 128,-1,10
 146 867 146 867 146 883 c 0,11,12
 146 929 146 929 141.5 955 c 128,-1,13
 137 981 137 981 119 981 c 0,14,15
 107 981 107 981 97.5 949.5 c 128,-1,16
 88 918 88 918 81.5 831.5 c 128,-1,17
 75 745 75 745 75 583 c 0,18,19
 75 402 75 402 80.5 306 c 128,-1,20
 86 210 86 210 96.5 174.5 c 128,-1,21
 107 139 107 139 121 139 c 0,0,1
239 694 m 1,22,-1
 321 694 l 1,23,24
 321 867 321 867 315 930.5 c 128,-1,25
 309 994 309 994 281 994 c 128,-1,26
 253 994 253 994 246 923.5 c 128,-1,27
 239 853 239 853 239 694 c 1,22,-1
311 -30 m 0,28,29
 274 -30 274 -30 245.5 -9 c 128,-1,30
 217 12 217 12 203 46 c 1,31,32
 187 11 187 11 165 -8 c 128,-1,33
 143 -27 143 -27 112 -27 c 0,34,35
 86 -27 86 -27 62 -4 c 128,-1,36
 38 19 38 19 19 80.5 c 128,-1,37
 0 142 0 142 -12 256.5 c 128,-1,38
 -24 371 -24 371 -24 557 c 0,39,40
 -24 783 -24 783 -7.5 911 c 128,-1,41
 9 1039 9 1039 41 1092.5 c 128,-1,42
 73 1146 73 1146 119 1146 c 0,43,44
 147 1146 147 1146 167.5 1126 c 128,-1,45
 188 1106 188 1106 204 1060 c 1,46,47
 222 1106 222 1106 245.5 1126 c 128,-1,48
 269 1146 269 1146 296 1146 c 0,49,50
 355 1146 355 1146 387 1048 c 128,-1,51
 419 950 419 950 419 691 c 2,52,-1
 419 525 l 1,53,-1
 237 525 l 1,54,55
 239 359 239 359 246.5 273.5 c 128,-1,56
 254 188 254 188 269.5 160 c 128,-1,57
 285 132 285 132 311 132 c 0,58,59
 362 132 362 132 389 226 c 1,60,-1
 424 79 l 1,61,62
 377 -30 377 -30 311 -30 c 0,28,29
EndSplineSet
EndChar

StartChar: p
Encoding: 112 112 390
Width: 501
VWidth: 2307
GlyphClass: 2
Flags: HW
AnchorPoint: "Anchor-2" 260 120 basechar 0
AnchorPoint: "Anchor-0" 260 1137 basechar 0
LayerCount: 2
Fore
SplineSet
260 258 m 0,0,1
 285 258 285 258 302.5 282 c 128,-1,2
 320 306 320 306 329 383.5 c 128,-1,3
 338 461 338 461 338 621 c 0,4,5
 338 778 338 778 331 859.5 c 128,-1,6
 324 941 324 941 307.5 970.5 c 128,-1,7
 291 1000 291 1000 262 1000 c 0,8,9
 221 1000 221 1000 194.5 897 c 128,-1,10
 168 794 168 794 168 586 c 0,11,12
 170 454 170 454 183.5 383 c 128,-1,13
 197 312 197 312 217 285 c 128,-1,14
 237 258 237 258 260 258 c 0,0,1
31 -246 m 1,15,-1
 31 1137 l 1,16,-1
 172 1137 l 1,17,-1
 172 1006 l 1,18,19
 188 1077 188 1077 219 1118.5 c 128,-1,20
 250 1160 250 1160 297 1160 c 0,21,22
 334 1160 334 1160 367 1142.5 c 128,-1,23
 400 1125 400 1125 425.5 1070.5 c 128,-1,24
 451 1016 451 1016 465 909.5 c 128,-1,25
 479 803 479 803 479 627 c 0,26,27
 479 416 479 416 459 300.5 c 128,-1,28
 439 185 439 185 398 139 c 128,-1,29
 357 93 357 93 295 93 c 0,30,31
 205 93 205 93 172 238 c 1,32,-1
 172 -246 l 1,33,-1
 31 -246 l 1,15,-1
EndSplineSet
EndChar

StartChar: thorn
Encoding: 254 254 391
Width: 501
VWidth: 2374
GlyphClass: 1
Flags: HW
LayerCount: 2
Fore
SplineSet
260 271 m 0,0,1
 285 271 285 271 302.5 295.5 c 128,-1,2
 320 320 320 320 329 399.5 c 128,-1,3
 338 479 338 479 338 644 c 0,4,5
 338 805 338 805 331 888.5 c 128,-1,6
 324 972 324 972 307.5 1002 c 128,-1,7
 291 1032 291 1032 262 1032 c 0,8,9
 221 1032 221 1032 194.5 927 c 128,-1,10
 168 822 168 822 168 608 c 0,11,12
 170 473 170 473 183.5 400 c 128,-1,13
 197 327 197 327 217 299 c 128,-1,14
 237 271 237 271 260 271 c 0,0,1
31 1624 m 1,15,-1
 191 1624 l 1,16,-1
 191 1608 l 1,17,18
 179 1595 179 1595 175.5 1579 c 128,-1,19
 172 1563 172 1563 172 1525 c 2,20,-1
 172 1039 l 1,21,22
 188 1111 188 1111 219 1154 c 128,-1,23
 250 1197 250 1197 297 1197 c 0,24,25
 334 1197 334 1197 367 1179 c 128,-1,26
 400 1161 400 1161 425.5 1105 c 128,-1,27
 451 1049 451 1049 465 939.5 c 128,-1,28
 479 830 479 830 479 650 c 0,29,30
 479 434 479 434 459 315 c 128,-1,31
 439 196 439 196 398 149 c 128,-1,32
 357 102 357 102 295 102 c 0,33,34
 205 102 205 102 172 251 c 1,35,-1
 172 -246 l 1,36,-1
 31 -246 l 1,37,-1
 31 1624 l 1,15,-1
EndSplineSet
EndChar

StartChar: q
Encoding: 113 113 392
Width: 538
VWidth: 2308
GlyphClass: 1
Flags: HW
LayerCount: 2
Fore
SplineSet
251 264 m 0,0,1
 294 264 294 264 313.5 346.5 c 128,-1,2
 333 429 333 429 333 648 c 0,3,4
 333 854 333 854 311.5 929 c 128,-1,5
 290 1004 290 1004 251 1004 c 0,6,7
 224 1004 224 1004 206.5 971.5 c 128,-1,8
 189 939 189 939 181 857.5 c 128,-1,9
 173 776 173 776 173 630 c 0,10,11
 173 488 173 488 181 408 c 128,-1,12
 189 328 189 328 206.5 296 c 128,-1,13
 224 264 224 264 251 264 c 0,0,1
335 -246 m 1,14,-1
 335 238 l 1,15,16
 315 155 315 155 288 125 c 128,-1,17
 263.454545455 97.7272727273 263.454545455 97.7272727273 222.380165289 97.7272727273 c 0,0,0
 218.272727273 97.7272727273 218.272727273 97.7272727273 214 98 c 0,18,19
 114 102 114 102 71.5 229 c 128,-1,20
 29 356 29 356 29 624 c 0,21,22
 29 848 29 848 53.5 963.5 c 128,-1,23
 78 1079 78 1079 121.5 1122 c 128,-1,24
 165 1165 165 1165 220 1165 c 0,25,26
 269 1165 269 1165 296 1125.5 c 128,-1,27
 323 1086 323 1086 338 1006 c 1,28,-1
 338 1138 l 1,29,-1
 477 1138 l 1,30,-1
 477 -246 l 1,31,-1
 335 -246 l 1,14,-1
EndSplineSet
EndChar

StartChar: r
Encoding: 114 114 393
Width: 529
VWidth: 2441
GlyphClass: 2
Flags: HW
AnchorPoint: "Anchor-2" 250 0 basechar 0
AnchorPoint: "Anchor-0" 278 1116 basechar 0
LayerCount: 2
Fore
SplineSet
32 1135 m 1,0,-1
 177 1135 l 1,1,-1
 177 979 l 1,2,3
 197 1074 197 1074 243.5 1119.5 c 0,4,5
 287.12371134 1162.18556701 287.12371134 1162.18556701 329.427250505 1162.18556701 c 0,6,7
 332.216494845 1162.18556701 332.216494845 1162.18556701 335 1162 c 0,8,9
 388 1162 388 1162 423.5 1123 c 128,-1,10
 459 1084 459 1084 480 1020 c 1,11,-1
 422 869 l 1,12,-1
 416 848 l 1,13,-1
 403 852 l 1,14,15
 395 871 395 871 390.5 894.5 c 128,-1,16
 386 918 386 918 364 948 c 1,17,18
 339 975 339 975 315 974 c 0,19,20
 284 974 284 974 252 946 c 128,-1,21
 220 918 220 918 197 840 c 128,-1,22
 174 762 174 762 174 606 c 2,23,-1
 174 -2 l 1,24,-1
 32 -2 l 1,25,-1
 32 1135 l 1,0,-1
EndSplineSet
EndChar

StartChar: uni027B
Encoding: 635 635 399
Width: 451
VWidth: 2285
GlyphClass: 1
Flags: HW
LayerCount: 2
Fore
SplineSet
355 -246 m 0,0,1
 317 -246 317 -246 280.5 -220 c 128,-1,2
 244 -194 244 -194 223 -131 c 128,-1,3
 202 -68 202 -68 202 46 c 2,4,-1
 204 225 l 1,5,6
 191 165 191 165 162 137.5 c 128,-1,7
 133 110 133 110 105 110 c 0,8,9
 74 110 74 110 46.5 124.5 c 128,-1,10
 19 139 19 139 -6 188 c 1,11,-1
 23 360 l 1,12,-1
 27 383 l 1,13,-1
 34 379 l 1,14,15
 40 366 40 366 40 349 c 128,-1,16
 40 332 40 332 50 315 c 0,17,18
 79 270 79 270 108 270 c 0,19,20
 152 270 152 270 177 341 c 128,-1,21
 202 412 202 412 202 597 c 2,22,-1
 202 1137 l 1,23,-1
 335 1137 l 1,24,-1
 335 46 l 2,25,26
 335 -30 335 -30 342.5 -65 c 128,-1,27
 350 -100 350 -100 373 -100 c 0,28,29
 392 -100 392 -100 404 -83 c 0,30,31
 410 -72 410 -72 411.5 -60 c 128,-1,32
 413 -48 413 -48 422 -44 c 1,33,-1
 442 -194 l 1,34,35
 423 -224 423 -224 401.5 -235 c 128,-1,36
 380 -246 380 -246 355 -246 c 0,0,1
EndSplineSet
EndChar

StartChar: uni024D
Encoding: 589 589 402
Width: 478
VWidth: 2441
GlyphClass: 2
Flags: HW
AnchorPoint: "Anchor-2" 241 0 basechar 0
AnchorPoint: "Anchor-0" 267 1116 basechar 0
LayerCount: 2
Fore
SplineSet
13 408 m 1,0,-1
 13 598 l 1,1,-1
 32 598 l 1,2,-1
 32 1135 l 1,3,-1
 171 1135 l 1,4,-1
 171 979 l 1,5,6
 190 1074 190 1074 234.5 1119.5 c 0,7,8
 276.24742268 1162.18556701 276.24742268 1162.18556701 316.674673185 1162.18556701 c 0,9,10
 319.340206186 1162.18556701 319.340206186 1162.18556701 322 1162 c 0,11,12
 373 1162 373 1162 407 1123 c 128,-1,13
 441 1084 441 1084 461 1020 c 1,14,-1
 405 869 l 1,15,-1
 399 848 l 1,16,-1
 388 852 l 1,17,18
 380 871 380 871 375.5 894.5 c 128,-1,19
 371 918 371 918 350 948 c 1,20,21
 326 975 326 975 303 974 c 0,22,23
 273 974 273 974 242.5 946 c 128,-1,24
 212 918 212 918 190 840 c 128,-1,25
 168 762 168 762 168 606 c 2,26,-1
 168 598 l 1,27,-1
 305 598 l 1,28,-1
 305 408 l 1,29,-1
 168 408 l 1,30,-1
 168 -2 l 1,31,-1
 32 -2 l 1,32,-1
 32 408 l 1,33,-1
 13 408 l 1,0,-1
EndSplineSet
EndChar

StartChar: s
Encoding: 115 115 403
Width: 512
VWidth: 2441
GlyphClass: 1
Flags: HW
LayerCount: 2
Fore
SplineSet
243 -24 m 0,0,1
 167 -24 167 -24 115.5 3 c 128,-1,2
 64 30 64 30 32 63 c 1,3,-1
 85 230 l 1,4,-1
 92 254 l 1,5,-1
 105 247 l 1,6,7
 114 230 114 230 123 213 c 128,-1,8
 132 196 132 196 161 173 c 0,9,10
 193 152 193 152 232 151 c 0,11,12
 270 151 270 151 294.5 199 c 128,-1,13
 319 247 319 247 319 315 c 0,14,15
 319 366 319 366 301 413.5 c 128,-1,16
 283 461 283 461 228 505 c 0,17,18
 156 563 156 563 104 638 c 128,-1,19
 52 713 52 713 52 855 c 0,20,21
 52 979 52 979 105.5 1070.5 c 128,-1,22
 159 1162 159 1162 266 1162 c 0,23,24
 426 1162 426 1162 480 1020 c 1,25,-1
 417 883 l 1,26,-1
 408 862 l 1,27,-1
 395 869 l 1,28,29
 388 888 388 888 382.5 909 c 128,-1,30
 377 930 377 930 353 960 c 0,31,32
 328.892857143 986.035714286 328.892857143 986.035714286 286.18877551 986.035714286 c 0,33,34
 284.607142857 986.035714286 284.607142857 986.035714286 283 986 c 0,35,36
 241 986 241 986 221.5 949.5 c 128,-1,37
 202 913 202 913 202 859 c 0,38,39
 202 796 202 796 227.5 754.5 c 128,-1,40
 253 713 253 713 315 662 c 0,41,42
 370 616 370 616 404 572.5 c 128,-1,43
 438 529 438 529 453 472 c 128,-1,44
 468 415 468 415 468 324 c 0,45,46
 468 138 468 138 403.5 57 c 128,-1,47
 339 -24 339 -24 243 -24 c 0,0,1
EndSplineSet
EndChar

StartChar: germandbls
Encoding: 223 223 414
Width: 478
VWidth: 2441
GlyphClass: 1
Flags: HW
LayerCount: 2
Fore
SplineSet
283 -24 m 0,0,1
 255 -24 255 -24 232.5 -13 c 128,-1,2
 210 -2 210 -2 188 17 c 1,3,-1
 210 193 l 1,4,5
 229 156 229 156 262 156 c 0,6,7
 296 156 296 156 310.5 240 c 128,-1,8
 325 324 325 324 325 471 c 0,9,10
 325 606 325 606 310.5 685 c 128,-1,11
 296 764 296 764 230 764 c 2,12,-1
 207 764 l 1,13,-1
 207 952 l 1,14,-1
 232 952 l 2,15,16
 283.018867925 952 283.018867925 952 283.018867925 1187.84193663 c 0,0,0
 283.018867925 1192.37735849 283.018867925 1192.37735849 283 1197 c 0,17,18
 283 1321 283 1321 270.5 1381.5 c 128,-1,19
 258 1442 258 1442 222 1442 c 128,-1,20
 186 1442 186 1442 172 1341 c 128,-1,21
 158 1240 158 1240 158 1037 c 2,22,-1
 158 0 l 1,23,-1
 17 0 l 1,24,-1
 17 1032 l 2,25,26
 17 1264 17 1264 39 1395 c 128,-1,27
 61 1526 61 1526 104.5 1579.5 c 128,-1,28
 148 1633 148 1633 212 1633 c 0,29,30
 299 1633 299 1633 360 1528 c 128,-1,31
 421 1423 421 1423 421 1204 c 0,32,33
 421 1099 421 1099 405 1013 c 128,-1,34
 389 927 389 927 351 881 c 1,35,36
 401 844 401 844 433 744.5 c 128,-1,37
 465 645 465 645 465 442 c 0,38,39
 465 261 465 261 441 159.5 c 128,-1,40
 417 58 417 58 376 17 c 128,-1,41
 335 -24 335 -24 283 -24 c 0,0,1
EndSplineSet
EndChar

StartChar: t
Encoding: 116 116 415
Width: 512
VWidth: 2441
GlyphClass: 2
Flags: HW
AnchorPoint: "Anchor-4" 198 762 basechar 0
AnchorPoint: "Anchor-2" 282 0 basechar 0
AnchorPoint: "Anchor-1" 303 1135 basechar 0
AnchorPoint: "Anchor-0" 229 1433 basechar 0
LayerCount: 2
Fore
SplineSet
312 -30 m 0,0,1
 238 -30 238 -30 196.5 21.5 c 128,-1,2
 155 73 155 73 137.5 211 c 0,3,4
 123.888888889 318.333333333 123.888888889 318.333333333 123.888888889 497.654320988 c 0,5,6
 123.888888889 548.888888889 123.888888889 548.888888889 125 606 c 2,7,-1
 129 904 l 1,8,-1
 32 904 l 1,9,-1
 32 1091 l 1,10,-1
 133 1091 l 1,11,-1
 138 1402 l 1,12,-1
 299 1423 l 1,13,-1
 321 1426 l 1,14,-1
 323 1409 l 1,15,16
 312 1392 312 1392 305.5 1375 c 128,-1,17
 299 1358 299 1358 297 1316 c 2,18,-1
 291 1091 l 1,19,-1
 433 1091 l 1,20,-1
 433 904 l 1,21,-1
 291 904 l 1,22,-1
 282 594 l 2,23,24
 280.5 532.25 280.5 532.25 280.5 479.90625 c 0,25,26
 280.5 322.875 280.5 322.875 294 250.5 c 0,27,28
 312 154 312 154 359 154 c 0,29,30
 392 154 392 154 416.5 175 c 128,-1,31
 441 196 441 196 457 219 c 1,32,-1
 480 56 l 1,33,34
 447 7 447 7 401 -11.5 c 128,-1,35
 355 -30 355 -30 312 -30 c 0,0,1
EndSplineSet
EndChar

StartChar: tbar
Encoding: 359 359 416
Width: 512
VWidth: 2441
GlyphClass: 2
Flags: HW
AnchorPoint: "Anchor-4" 198 762 basechar 0
AnchorPoint: "Anchor-2" 282 0 basechar 0
AnchorPoint: "Anchor-1" 303 1135 basechar 0
AnchorPoint: "Anchor-0" 229 1433 basechar 0
LayerCount: 2
Fore
SplineSet
312 -30 m 0,0,1
 243 -30 243 -30 202 15.5 c 128,-1,2
 161 61 161 61 141.5 178.5 c 0,3,4
 124.6 280.333333333 124.6 280.333333333 124.6 458.404444444 c 0,5,6
 124.6 485.8 124.6 485.8 125 515 c 1,7,-1
 32 515 l 1,8,-1
 32 720 l 1,9,-1
 127 720 l 1,10,-1
 129 904 l 1,11,-1
 32 904 l 1,12,-1
 32 1091 l 1,13,-1
 133 1091 l 1,14,-1
 138 1402 l 1,15,-1
 299 1423 l 1,16,-1
 321 1426 l 1,17,-1
 323 1409 l 1,18,19
 312 1392 312 1392 305.5 1375 c 128,-1,20
 299 1358 299 1358 297 1316 c 2,21,-1
 291 1091 l 1,22,-1
 433 1091 l 1,23,-1
 433 904 l 1,24,-1
 291 904 l 1,25,-1
 286 720 l 1,26,-1
 422 720 l 1,27,-1
 422 515 l 1,28,-1
 282 515 l 1,29,30
 281.8 495 281.8 495 281.8 476.195 c 0,31,32
 281.8 306.95 281.8 306.95 298 234.5 c 0,33,34
 316 154 316 154 359 154 c 0,35,36
 392 154 392 154 416.5 175 c 128,-1,37
 441 196 441 196 457 219 c 1,38,-1
 480 56 l 1,39,40
 447 7 447 7 401 -11.5 c 128,-1,41
 355 -30 355 -30 312 -30 c 0,0,1
EndSplineSet
EndChar

StartChar: u
Encoding: 117 117 423
Width: 512
VWidth: 2441
GlyphClass: 2
Flags: HW
AnchorPoint: "Anchor-3" 361 0 basechar 0
AnchorPoint: "Anchor-2" 221 0 basechar 0
AnchorPoint: "Anchor-1" 446 1116 basechar 0
AnchorPoint: "Anchor-0" 244 1116 basechar 0
LayerCount: 2
Fore
SplineSet
202 -27 m 0,0,1
 144 -27 144 -27 105 12 c 128,-1,2
 66 51 66 51 49 163 c 128,-1,3
 32 275 32 275 32 494 c 2,4,-1
 34 1135 l 1,5,-1
 189 1135 l 1,6,-1
 189 464 l 2,7,8
 189 329 189 329 194 264.5 c 128,-1,9
 199 200 199 200 212.5 180.5 c 128,-1,10
 226 161 226 161 246 161 c 0,11,12
 280 161 280 161 297.5 245 c 128,-1,13
 315 329 315 329 315 486 c 2,14,-1
 315 1135 l 1,15,-1
 469 1135 l 1,16,-1
 469 173 l 2,17,18
 469 129 469 129 470 86.5 c 128,-1,19
 471 44 471 44 480 0 c 1,20,-1
 338 0 l 1,21,22
 334 27 334 27 328 51 c 128,-1,23
 322 75 322 75 322 117 c 1,24,25
 309 56 309 56 279 14.5 c 128,-1,26
 249 -27 249 -27 202 -27 c 0,0,1
EndSplineSet
EndChar

StartChar: v
Encoding: 118 118 446
Width: 512
VWidth: 2441
GlyphClass: 2
Flags: HW
AnchorPoint: "Anchor-2" 258 0 basechar 0
AnchorPoint: "Anchor-0" 258 1135 basechar 0
LayerCount: 2
Fore
SplineSet
186 0 m 1,0,-1
 32 1135 l 1,1,-1
 165 1135 l 1,2,-1
 264 354 l 1,3,-1
 309 654 l 2,4,5
 330 789 330 789 340.5 914 c 128,-1,6
 351 1039 351 1039 355 1135 c 1,7,-1
 480 1135 l 1,8,9
 474 1032 474 1032 461 900.5 c 128,-1,10
 448 769 448 769 427 627 c 2,11,-1
 330 0 l 1,12,-1
 186 0 l 1,0,-1
EndSplineSet
EndChar

StartChar: w
Encoding: 119 119 447
Width: 450
VWidth: 2441
GlyphClass: 2
Flags: HW
AnchorPoint: "Anchor-2" 216 0 basechar 0
AnchorPoint: "Anchor-0" 216 1116 basechar 0
LayerCount: 2
Fore
SplineSet
63 -2 m 1,0,-1
 -9 1135 l 1,1,-1
 101 1135 l 1,2,-1
 138 376 l 1,3,-1
 178 913 l 1,4,-1
 263 913 l 1,5,-1
 312 376 l 1,6,7
 325 639 325 639 327 834.5 c 128,-1,8
 329 1030 329 1030 329 1099 c 2,9,-1
 329 1135 l 1,10,-1
 439 1135 l 1,11,12
 428 851 428 851 413.5 563 c 128,-1,13
 399 275 399 275 378 -2 c 1,14,-1
 261 -2 l 1,15,-1
 220 510 l 1,16,-1
 178 -2 l 1,17,-1
 63 -2 l 1,0,-1
EndSplineSet
EndChar

StartChar: x
Encoding: 120 120 452
Width: 512
VWidth: 2441
GlyphClass: 2
Flags: HW
AnchorPoint: "Anchor-2" 255 0 basechar 0
AnchorPoint: "Anchor-0" 255 1135 basechar 0
LayerCount: 2
Fore
SplineSet
32 0 m 1,0,-1
 186 576 l 1,1,-1
 36 1135 l 1,2,-1
 166 1135 l 1,3,-1
 253 796 l 1,4,-1
 334 1135 l 1,5,-1
 460 1135 l 1,6,-1
 319 583 l 1,7,-1
 480 0 l 1,8,-1
 346 0 l 1,9,-1
 253 361 l 1,10,-1
 166 0 l 1,11,-1
 32 0 l 1,0,-1
EndSplineSet
EndChar

StartChar: y
Encoding: 121 121 453
Width: 503
VWidth: 2290
GlyphClass: 2
Flags: HW
AnchorPoint: "Anchor-2" 393 130 basechar 0
AnchorPoint: "Anchor-0" 265 1135 basechar 0
LayerCount: 2
Fore
SplineSet
137 -246 m 0,0,1
 66 -246 66 -246 26 -177 c 1,2,-1
 67 -19 l 1,3,-1
 71 2 l 1,4,-1
 82 -2 l 1,5,6
 90 -17 90 -17 95 -35.5 c 128,-1,7
 100 -54 100 -54 123 -76 c 1,8,9
 131 -78 131 -78 141 -78 c 0,10,11
 172 -78 172 -78 184 -20 c 0,12,13
 196 38 196 38 212 142 c 2,14,-1
 218 182 l 1,15,-1
 38 1135 l 1,16,-1
 172 1135 l 1,17,-1
 276 553 l 1,18,-1
 302 724 l 2,19,20
 316 823 316 823 330 930.5 c 128,-1,21
 344 1038 344 1038 350 1135 c 1,22,-1
 474 1135 l 1,23,24
 466 1036 466 1036 450.5 925.5 c 128,-1,25
 435 815 435 815 419 714 c 2,26,-1
 304 18 l 2,27,28
 281 -118 281 -118 233.5 -182 c 128,-1,29
 186 -246 186 -246 137 -246 c 0,0,1
EndSplineSet
EndChar

StartChar: z
Encoding: 122 122 463
Width: 512
VWidth: 2441
GlyphClass: 2
Flags: HW
AnchorPoint: "Anchor-2" 309 0 basechar 0
AnchorPoint: "Anchor-0" 309 1135 basechar 0
LayerCount: 2
Fore
SplineSet
32 149 m 1,0,-1
 292 950 l 1,1,-1
 55 950 l 1,2,-1
 55 1135 l 1,3,-1
 455 1135 l 1,4,-1
 455 986 l 1,5,-1
 201 184 l 1,6,-1
 387 184 l 2,7,8
 423 184 423 184 437.5 188.5 c 128,-1,9
 452 193 452 193 466 207 c 1,10,-1
 480 207 l 1,11,-1
 480 0 l 1,12,-1
 32 0 l 1,13,-1
 32 149 l 1,0,-1
EndSplineSet
EndChar

StartChar: u.i
Encoding: 65539 -1 468
Width: 512
VWidth: 2441
GlyphClass: 2
Flags: HW
AnchorPoint: "Anchor-3" 404 0 basechar 0
AnchorPoint: "Anchor-2" 238 0 basechar 0
AnchorPoint: "Anchor-1" 444 1135 basechar 0
AnchorPoint: "Anchor-0" 245 1135 basechar 0
LayerCount: 2
Fore
SplineSet
200 -27 m 0,0,1
 142 -27 142 -27 104 12 c 128,-1,2
 66 51 66 51 49 163 c 128,-1,3
 32 275 32 275 32 494 c 2,4,-1
 34 1135 l 1,5,-1
 187 1135 l 1,6,-1
 187 464 l 2,7,8
 187 329 187 329 193.5 264.5 c 128,-1,9
 200 200 200 200 213.5 180.5 c 128,-1,10
 227 161 227 161 245 161 c 0,11,12
 281 161 281 161 298.5 245 c 128,-1,13
 316 329 316 329 316 486 c 2,14,-1
 316 1135 l 1,15,-1
 469 1135 l 1,16,-1
 469 173 l 2,17,18
 469 129 469 129 471 86.5 c 128,-1,19
 473 44 473 44 480 0 c 1,20,-1
 337 0 l 1,21,22
 332 27 332 27 327.5 51 c 128,-1,23
 323 75 323 75 323 117 c 1,24,25
 309 56 309 56 279 14.5 c 128,-1,26
 249 -27 249 -27 200 -27 c 0,0,1
EndSplineSet
EndChar

StartChar: r.serif
Encoding: 65540 -1 469
Width: 553
VWidth: 2441
GlyphClass: 1
Flags: HW
LayerCount: 2
Fore
SplineSet
32 -2 m 1,0,-1
 32 186 l 1,1,-1
 77 186 l 1,2,-1
 77 950 l 1,3,-1
 34 950 l 1,4,-1
 34 1135 l 1,5,-1
 231 1135 l 1,6,-1
 229 976 l 1,7,8
 246 1055 246 1055 283.5 1107.5 c 128,-1,9
 321 1160 321 1160 364 1160 c 0,10,11
 441 1160 441 1160 480 1039 c 1,12,-1
 433 852 l 1,13,14
 414 859 414 859 409.5 888.5 c 128,-1,15
 405 918 405 918 394.5 943.5 c 128,-1,16
 384 969 384 969 345 969 c 0,17,18
 298 969 298 969 263.5 872.5 c 128,-1,19
 229 776 229 776 229 610 c 2,20,-1
 229 186 l 1,21,-1
 293 186 l 1,22,-1
 293 -2 l 1,23,-1
 32 -2 l 1,0,-1
EndSplineSet
EndChar

StartChar: ordfeminine
Encoding: 170 170 470
Width: 512
VWidth: 2441
GlyphClass: 1
Flags: HW
LayerCount: 2
Fore
SplineSet
32 532 m 1,0,-1
 480 532 l 1,1,-1
 480 345 l 1,2,-1
 32 345 l 1,3,-1
 32 532 l 1,0,-1
196 920 m 0,4,5
 196 869 196 869 207.5 825 c 128,-1,6
 219 781 219 781 246 781 c 0,7,8
 279 781 279 781 289.5 841 c 128,-1,9
 300 901 300 901 302 1055 c 1,10,11
 293 1055 293 1055 281 1055 c 0,12,13
 243 1055 243 1055 219.5 1024 c 128,-1,14
 196 993 196 993 196 920 c 0,4,5
205 632 m 0,15,16
 137 632 137 632 101 709 c 128,-1,17
 65 786 65 786 65 896 c 0,18,19
 65 1066 65 1066 127 1138.5 c 128,-1,20
 189 1211 189 1211 273 1211 c 0,21,22
 287 1211 287 1211 300 1209 c 1,23,24
 298 1339 298 1339 283.5 1373 c 128,-1,25
 269 1407 269 1407 236 1407 c 0,26,27
 207 1407 207 1407 188 1392 c 128,-1,28
 169 1377 169 1377 151 1345 c 1,29,-1
 87 1442 l 1,30,31
 108 1484 108 1484 148.5 1517 c 128,-1,32
 189 1550 189 1550 262 1550 c 0,33,34
 328 1550 328 1550 366 1517 c 128,-1,35
 404 1484 404 1484 419.5 1388.5 c 128,-1,36
 435 1293 435 1293 435 1106 c 2,37,-1
 435 652 l 1,38,-1
 304 652 l 1,39,-1
 304 725 l 1,40,41
 288 671 288 671 263 651.5 c 128,-1,42
 238 632 238 632 205 632 c 0,15,16
EndSplineSet
EndChar

StartChar: ordmasculine
Encoding: 186 186 471
Width: 512
VWidth: 2441
GlyphClass: 1
Flags: HW
LayerCount: 2
Fore
SplineSet
32 532 m 1,0,-1
 480 532 l 1,1,-1
 480 345 l 1,2,-1
 32 345 l 1,3,-1
 32 532 l 1,0,-1
257 792 m 128,-1,5
 295 792 295 792 306.5 858.5 c 128,-1,6
 318 925 318 925 318 1086 c 0,7,8
 318 1254 318 1254 306.5 1324 c 128,-1,9
 295 1394 295 1394 257 1394 c 0,10,11
 221 1394 221 1394 206 1324.5 c 128,-1,12
 191 1255 191 1255 191 1086 c 0,13,14
 191 925 191 925 205 858.5 c 128,-1,4
 219 792 219 792 257 792 c 128,-1,5
257 638 m 128,-1,16
 196 638 196 638 152 675.5 c 128,-1,17
 108 713 108 713 83.5 809.5 c 128,-1,18
 59 906 59 906 59 1081 c 0,19,20
 59 1272 59 1272 83.5 1373.5 c 128,-1,21
 108 1475 108 1475 152 1512.5 c 128,-1,22
 196 1550 196 1550 257 1550 c 128,-1,23
 318 1550 318 1550 362 1512.5 c 128,-1,24
 406 1475 406 1475 428.5 1373.5 c 128,-1,25
 451 1272 451 1272 451 1081 c 0,26,27
 451 906 451 906 428.5 809.5 c 128,-1,28
 406 713 406 713 362 675.5 c 128,-1,15
 318 638 318 638 257 638 c 128,-1,16
EndSplineSet
EndChar

StartChar: uni2124
Encoding: 8484 8484 473
Width: 512
VWidth: 2441
GlyphClass: 1
Flags: HW
LayerCount: 2
Fore
SplineSet
393 1372 m 1,0,-1
 333 1372 l 1,1,-1
 121 147 l 1,2,-1
 184 147 l 1,3,-1
 393 1372 l 1,0,-1
480 1521 m 1,4,-1
 480 1358 l 1,5,-1
 270 147 l 1,6,-1
 385 147 l 2,7,8
 422 147 422 147 437.5 151.5 c 128,-1,9
 453 156 453 156 465 170 c 1,10,-1
 480 170 l 1,11,-1
 480 0 l 1,12,-1
 32 0 l 1,13,-1
 32 163 l 1,14,-1
 249 1372 l 1,15,-1
 34 1372 l 1,16,-1
 34 1521 l 1,17,-1
 480 1521 l 1,4,-1
EndSplineSet
EndChar

StartChar: zero
Encoding: 48 48 474
Width: 512
VWidth: 2441
GlyphClass: 1
Flags: HW
LayerCount: 2
Fore
SplineSet
257 166 m 0,0,1
 297 166 297 166 315 300.5 c 128,-1,2
 333 435 333 435 333 752 c 0,3,4
 333 789 333 789 331 820 c 1,5,-1
 189 432 l 1,6,7
 197 290 197 290 215 228 c 128,-1,8
 233 166 233 166 257 166 c 0,0,1
179 752 m 0,9,10
 179 703 179 703 181 662 c 1,11,-1
 325 1072 l 1,12,13
 311 1338 311 1338 257 1338 c 0,14,15
 223 1338 223 1338 201 1196.5 c 128,-1,16
 179 1055 179 1055 179 752 c 0,9,10
257 -27 m 128,-1,18
 192 -27 192 -27 141.5 47.5 c 128,-1,19
 91 122 91 122 61.5 293 c 128,-1,20
 32 464 32 464 32 752 c 0,21,22
 32 1036 32 1036 61.5 1206.5 c 128,-1,23
 91 1377 91 1377 141.5 1454 c 128,-1,24
 192 1531 192 1531 257 1531 c 128,-1,25
 322 1531 322 1531 372.5 1454 c 128,-1,26
 423 1377 423 1377 451.5 1206 c 128,-1,27
 480 1035 480 1035 480 752 c 0,28,29
 480 459 480 459 451.5 289 c 128,-1,30
 423 119 423 119 372.5 46 c 128,-1,17
 322 -27 322 -27 257 -27 c 128,-1,18
EndSplineSet
Substitution2: "'ss02' Style Set 2 in Latin lookup 36 subtable" zero.ss02
Substitution2: "'zero' Slashed Zero in Latin lookup 33 subtable" zero.zero
Substitution2: "'frac' Diagonal Fractions in Latin lookup 24 subtable" zero.numr
Substitution2: "'dnom' Denominators in Latin lookup 22 subtable" zero.dnom
Substitution2: "'numr' Numerators in Latin lookup 21 subtable" zero.numr
Substitution2: "'sups' Superscript in Latin lookup 20 subtable" uni2070
Substitution2: "'subs' Subscript in Latin lookup 19 subtable" uni2080
AlternateSubs2: "'aalt' Access All Alternates in Latin lookup 1 subtable" zero.zero zero.ss02 uni2080 zero.dnom zero.numr uni2070
EndChar

StartChar: one
Encoding: 49 49 475
Width: 391
VWidth: 2441
GlyphClass: 1
Flags: HW
LayerCount: 2
Fore
SplineSet
186 0 m 1,0,-1
 186 1228 l 1,1,-1
 61 1137 l 1,2,-1
 32 1316 l 1,3,-1
 242 1523 l 1,4,-1
 359 1523 l 1,5,-1
 359 0 l 1,6,-1
 186 0 l 1,0,-1
EndSplineSet
Substitution2: "'frac' Diagonal Fractions in Latin lookup 24 subtable" one.numr
Substitution2: "'dnom' Denominators in Latin lookup 22 subtable" one.dnom
Substitution2: "'numr' Numerators in Latin lookup 21 subtable" one.numr
Substitution2: "'sups' Superscript in Latin lookup 20 subtable" uni00B9
Substitution2: "'subs' Subscript in Latin lookup 19 subtable" uni2081
AlternateSubs2: "'aalt' Access All Alternates in Latin lookup 1 subtable" uni2081 one.dnom one.numr uni00B9
EndChar

StartChar: two
Encoding: 50 50 476
Width: 512
VWidth: 2441
GlyphClass: 1
Flags: HW
LayerCount: 2
Fore
SplineSet
53 147 m 1,0,1
 145 379 145 379 202 541 c 128,-1,2
 259 703 259 703 287.5 833.5 c 128,-1,3
 316 964 316 964 318 1101 c 0,4,5
 318.222222222 1112.66666667 318.222222222 1112.66666667 318.222222222 1123.85185185 c 0,0,0
 318.222222222 1213.33333333 318.222222222 1213.33333333 304 1272 c 128,-1,6
 288 1338 288 1338 259 1338 c 0,7,8
 238 1338 238 1338 223.5 1326 c 128,-1,9
 209 1314 209 1314 192 1277 c 0,10,11
 179 1242 179 1242 176.5 1224 c 128,-1,12
 174 1206 174 1206 182 1186 c 1,13,-1
 176 1172 l 1,14,-1
 157 1179 l 1,15,-1
 32 1218 l 1,16,17
 65 1360 65 1360 115 1445.5 c 128,-1,18
 165 1531 165 1531 268 1531 c 0,19,20
 476 1531 476 1531 476 1097 c 0,21,22
 476 941 476 941 447.5 803.5 c 128,-1,23
 419 666 419 666 368.5 521 c 128,-1,24
 318 376 318 376 249 193 c 1,25,-1
 384 193 l 2,26,27
 421 193 421 193 436 198 c 128,-1,28
 451 203 451 203 465 217 c 1,29,-1
 480 217 l 1,30,-1
 480 0 l 1,31,-1
 53 0 l 1,32,-1
 53 147 l 1,0,1
EndSplineSet
Substitution2: "'frac' Diagonal Fractions in Latin lookup 24 subtable" two.numr
Substitution2: "'dnom' Denominators in Latin lookup 22 subtable" two.dnom
Substitution2: "'numr' Numerators in Latin lookup 21 subtable" two.numr
Substitution2: "'sups' Superscript in Latin lookup 20 subtable" uni00B2
Substitution2: "'subs' Subscript in Latin lookup 19 subtable" uni2082
AlternateSubs2: "'aalt' Access All Alternates in Latin lookup 1 subtable" uni2082 two.dnom two.numr uni00B2
EndChar

StartChar: three
Encoding: 51 51 477
Width: 512
VWidth: 2441
GlyphClass: 1
Flags: HW
LayerCount: 2
Fore
SplineSet
253 -27 m 0,0,1
 175 -27 175 -27 122.5 30.5 c 128,-1,2
 70 88 70 88 32 173 c 1,3,-1
 142 254 l 1,4,-1
 158 266 l 1,5,-1
 164 256 l 1,6,7
 162 237 162 237 164.5 222 c 128,-1,8
 167 207 167 207 184 179 c 0,9,10
 209 147 209 147 239 147 c 0,11,12
 279 147 279 147 303 210 c 128,-1,13
 327 273 327 273 327 424 c 0,14,15
 327 597 327 597 290 659.5 c 128,-1,16
 259.77124183 710.562091503 259.77124183 710.562091503 198.171002606 710.562091503 c 0,0,0
 184.37254902 710.562091503 184.37254902 710.562091503 169 708 c 1,17,-1
 169 879 l 1,18,19
 235 879 235 879 264 915.5 c 128,-1,20
 293 952 293 952 299.5 1016.5 c 128,-1,21
 306 1081 306 1081 306 1160 c 0,22,23
 306 1365 306 1365 246 1365 c 0,24,25
 221 1365 221 1365 203.5 1336 c 128,-1,26
 186 1307 186 1307 171 1255 c 1,27,-1
 51 1328 l 1,28,29
 87 1423 87 1423 138.5 1477 c 128,-1,30
 190 1531 190 1531 257 1531 c 0,31,32
 341 1531 341 1531 399 1443 c 128,-1,33
 457 1355 457 1355 457 1153 c 0,34,35
 457 1034 457 1034 436 944.5 c 128,-1,36
 415 855 415 855 363 811 c 1,37,38
 420 765 420 765 450 669 c 128,-1,39
 480 573 480 573 480 417 c 0,40,41
 480 198 480 198 416 85.5 c 128,-1,42
 352 -27 352 -27 253 -27 c 0,0,1
EndSplineSet
Substitution2: "'frac' Diagonal Fractions in Latin lookup 24 subtable" three.numr
Substitution2: "'dnom' Denominators in Latin lookup 22 subtable" three.dnom
Substitution2: "'numr' Numerators in Latin lookup 21 subtable" three.numr
Substitution2: "'sups' Superscript in Latin lookup 20 subtable" uni00B3
Substitution2: "'subs' Subscript in Latin lookup 19 subtable" uni2083
AlternateSubs2: "'aalt' Access All Alternates in Latin lookup 1 subtable" uni2083 three.dnom three.numr uni00B3
EndChar

StartChar: four
Encoding: 52 52 478
Width: 486
VWidth: 2441
GlyphClass: 1
Flags: HW
LayerCount: 2
Fore
SplineSet
165 545 m 1,0,-1
 287 545 l 1,1,-1
 287 991 l 1,2,-1
 165 545 l 1,0,-1
287 0 m 1,3,-1
 287 354 l 1,4,-1
 32 354 l 1,5,-1
 32 525 l 1,6,-1
 324 1523 l 1,7,-1
 431 1523 l 1,8,-1
 431 542 l 1,9,-1
 480 542 l 1,10,-1
 480 352 l 1,11,-1
 431 352 l 1,12,-1
 431 0 l 1,13,-1
 287 0 l 1,3,-1
EndSplineSet
Substitution2: "'frac' Diagonal Fractions in Latin lookup 24 subtable" four.numr
Substitution2: "'dnom' Denominators in Latin lookup 22 subtable" four.dnom
Substitution2: "'numr' Numerators in Latin lookup 21 subtable" four.numr
Substitution2: "'sups' Superscript in Latin lookup 20 subtable" uni2074
Substitution2: "'subs' Subscript in Latin lookup 19 subtable" uni2084
AlternateSubs2: "'aalt' Access All Alternates in Latin lookup 1 subtable" uni2084 four.dnom four.numr uni2074
EndChar

StartChar: five
Encoding: 53 53 479
Width: 512
VWidth: 2441
GlyphClass: 1
Flags: HW
LayerCount: 2
Fore
SplineSet
256 -27 m 0,0,1
 184 -27 184 -27 126.5 26 c 128,-1,2
 69 79 69 79 32 200 c 1,3,-1
 141 278 l 1,4,-1
 157 288 l 1,5,-1
 166 278 l 1,6,7
 162 261 162 261 162.5 245.5 c 128,-1,8
 163 230 163 230 176 200 c 1,9,10
 202 161 202 161 243 161 c 0,11,12
 288 161 288 161 306.5 248 c 128,-1,13
 325 335 325 335 325 484 c 0,14,15
 325 659 325 659 309 742 c 128,-1,16
 293 825 293 825 254 825 c 0,17,18
 221 825 221 825 204 799.5 c 128,-1,19
 187 774 187 774 168 722 c 1,20,-1
 67 747 l 1,21,-1
 88 1521 l 1,22,-1
 441 1521 l 1,23,-1
 441 1330 l 1,24,-1
 232 1330 l 1,25,-1
 221 937 l 1,26,27
 256 995 256 995 316 997 c 0,28,29
 398 997 398 997 439 872 c 128,-1,30
 480 747 480 747 480 478 c 0,31,32
 480 224 480 224 421.5 98.5 c 128,-1,33
 363 -27 363 -27 256 -27 c 0,0,1
EndSplineSet
Substitution2: "'frac' Diagonal Fractions in Latin lookup 24 subtable" five.numr
Substitution2: "'dnom' Denominators in Latin lookup 22 subtable" five.dnom
Substitution2: "'numr' Numerators in Latin lookup 21 subtable" five.numr
Substitution2: "'sups' Superscript in Latin lookup 20 subtable" uni2075
Substitution2: "'subs' Subscript in Latin lookup 19 subtable" uni2085
AlternateSubs2: "'aalt' Access All Alternates in Latin lookup 1 subtable" uni2085 five.dnom five.numr uni2075
EndChar

StartChar: six
Encoding: 54 54 480
Width: 512
VWidth: 2441
GlyphClass: 1
Flags: HW
LayerCount: 2
Fore
SplineSet
266 168 m 0,0,1
 293 168 293 168 308 238 c 128,-1,2
 323 308 323 308 323 480 c 0,3,4
 323 641 323 641 311.5 715 c 128,-1,5
 300 789 300 789 268 789 c 0,6,7
 238 789 238 789 223 755.5 c 128,-1,8
 208 722 208 722 195 666 c 1,9,10
 192.3 598.8 192.3 598.8 192.3 539.43 c 0,0,0
 192.3 400.9 192.3 400.9 207 305 c 128,-1,11
 228 168 228 168 266 168 c 0,0,1
264 -24 m 0,12,13
 150 -24 150 -24 91 145.5 c 128,-1,14
 32 315 32 315 32 694 c 0,15,16
 32 1141 32 1141 100.5 1339.5 c 128,-1,17
 169 1538 169 1538 307 1538 c 0,18,19
 365 1538 365 1538 410 1495.5 c 128,-1,20
 455 1453 455 1453 480 1377 c 1,21,-1
 401 1242 l 1,22,-1
 392 1225 l 1,23,-1
 381 1230 l 1,24,25
 379 1247 379 1247 378 1266.5 c 128,-1,26
 377 1286 377 1286 360 1314 c 0,27,28
 338.666666667 1345.03030303 338.666666667 1345.03030303 306.049586777 1345.03030303 c 0,0,0
 305.03030303 1345.03030303 305.03030303 1345.03030303 304 1345 c 0,29,30
 282 1345 282 1345 256.5 1312 c 128,-1,31
 231 1279 231 1279 213 1181.5 c 128,-1,32
 195 1084 195 1084 192 896 c 1,33,34
 238.459770115 981.011494253 238.459770115 981.011494253 307.393843308 981.011494253 c 0,0,0
 308.195402299 981.011494253 308.195402299 981.011494253 309 981 c 0,35,36
 388 981 388 981 433 855.5 c 128,-1,37
 478 730 478 730 478 484 c 0,38,39
 478 247 478 247 426 111.5 c 128,-1,40
 374 -24 374 -24 264 -24 c 0,12,13
EndSplineSet
Substitution2: "'frac' Diagonal Fractions in Latin lookup 24 subtable" six.numr
Substitution2: "'dnom' Denominators in Latin lookup 22 subtable" six.dnom
Substitution2: "'numr' Numerators in Latin lookup 21 subtable" six.numr
Substitution2: "'sups' Superscript in Latin lookup 20 subtable" uni2076
Substitution2: "'subs' Subscript in Latin lookup 19 subtable" uni2086
AlternateSubs2: "'aalt' Access All Alternates in Latin lookup 1 subtable" uni2086 six.dnom six.numr uni2076
EndChar

StartChar: seven
Encoding: 55 55 481
Width: 512
VWidth: 2441
GlyphClass: 1
Flags: HW
LayerCount: 2
Fore
SplineSet
89 0 m 1,0,1
 141 349 141 349 182 671.5 c 128,-1,2
 223 994 223 994 286 1330 c 1,3,-1
 32 1330 l 1,4,-1
 32 1521 l 1,5,-1
 480 1521 l 1,6,-1
 480 1386 l 1,7,8
 414 1034 414 1034 367 700 c 128,-1,9
 320 366 320 366 273 0 c 1,10,-1
 89 0 l 1,0,1
EndSplineSet
Substitution2: "'frac' Diagonal Fractions in Latin lookup 24 subtable" seven.numr
Substitution2: "'dnom' Denominators in Latin lookup 22 subtable" seven.dnom
Substitution2: "'numr' Numerators in Latin lookup 21 subtable" seven.numr
Substitution2: "'sups' Superscript in Latin lookup 20 subtable" uni2077
Substitution2: "'subs' Subscript in Latin lookup 19 subtable" uni2087
AlternateSubs2: "'aalt' Access All Alternates in Latin lookup 1 subtable" uni2087 seven.dnom seven.numr uni2077
EndChar

StartChar: eight
Encoding: 56 56 482
Width: 512
VWidth: 2441
GlyphClass: 1
Flags: HW
LayerCount: 2
Fore
SplineSet
257 163 m 0,0,1
 293 163 293 163 311.5 214.5 c 128,-1,2
 330 266 330 266 330 393 c 0,3,4
 330 512 330 512 312.5 585.5 c 128,-1,5
 295 659 295 659 257 699 c 1,6,7
 221 662 221 662 201.5 589.5 c 128,-1,8
 182 517 182 517 182 401 c 0,9,10
 182 275 182 275 205 219 c 128,-1,11
 228 163 228 163 257 163 c 0,0,1
268 916 m 1,12,13
 297 951 297 951 305.5 1025 c 128,-1,14
 314 1099 314 1099 314 1174 c 0,15,16
 314 1257 314 1257 300 1304 c 128,-1,17
 286 1351 286 1351 259 1351 c 0,18,19
 230 1351 230 1351 218 1305.5 c 128,-1,20
 206 1260 206 1260 206 1181 c 0,21,22
 206 1078 206 1078 219 1018 c 128,-1,23
 232 958 232 958 268 916 c 1,12,13
255 -24 m 0,24,25
 149 -24 149 -24 90.5 86 c 128,-1,26
 32 196 32 196 32 384 c 0,27,28
 32 689 32 689 160 823 c 1,29,30
 107 884 107 884 86 969.5 c 128,-1,31
 65 1055 65 1055 65 1165 c 0,32,33
 65 1338 65 1338 118 1439 c 128,-1,34
 171 1540 171 1540 261 1540 c 0,35,36
 356 1540 356 1540 405.5 1442.5 c 128,-1,37
 455 1345 455 1345 455 1179 c 0,38,39
 455 1069 455 1069 438 969 c 128,-1,40
 421 869 421 869 372 808 c 1,41,42
 431 738 431 738 455.5 641.5 c 128,-1,43
 480 545 480 545 480 393 c 0,44,45
 480 197 480 197 421.5 86.5 c 128,-1,46
 363 -24 363 -24 255 -24 c 0,24,25
EndSplineSet
Substitution2: "'frac' Diagonal Fractions in Latin lookup 24 subtable" eight.numr
Substitution2: "'dnom' Denominators in Latin lookup 22 subtable" eight.dnom
Substitution2: "'numr' Numerators in Latin lookup 21 subtable" eight.numr
Substitution2: "'sups' Superscript in Latin lookup 20 subtable" uni2078
Substitution2: "'subs' Subscript in Latin lookup 19 subtable" uni2088
AlternateSubs2: "'aalt' Access All Alternates in Latin lookup 1 subtable" uni2088 eight.dnom eight.numr uni2078
EndChar

StartChar: nine
Encoding: 57 57 483
Width: 512
VWidth: 2441
GlyphClass: 1
Flags: HW
LayerCount: 2
Fore
SplineSet
189 1037 m 0,0,1
 189 742.986577181 189 742.986577181 265.956533489 742.986577181 c 0,0,0
 266.476510067 742.986577181 266.476510067 742.986577181 267 743 c 0,2,3
 305 743 305 743 328 764 c 1,4,-1
 328 781 l 2,5,6
 328 1007 328 1007 321 1128.5 c 128,-1,7
 314 1250 314 1250 298.5 1296 c 128,-1,8
 283 1342 283 1342 254 1342 c 0,9,10
 224 1342 224 1342 206.5 1277 c 128,-1,11
 189 1212 189 1212 189 1037 c 0,0,1
229 -24 m 0,12,13
 160 -24 160 -24 111 15 c 128,-1,14
 62 54 62 54 32 124 c 1,15,-1
 108 256 l 1,16,-1
 122 275 l 1,17,-1
 133 271 l 1,18,19
 135 250 135 250 138.5 230 c 128,-1,20
 142 210 142 210 162 184 c 1,21,22
 187 163 187 163 213 161 c 0,23,24
 253 161 253 161 276 217 c 128,-1,25
 299 273 299 273 309.5 369.5 c 128,-1,26
 320 466 320 466 326 587 c 1,27,28
 299 560 299 560 254 559 c 0,29,30
 167 559 167 559 101.5 677.5 c 128,-1,31
 36 796 36 796 36 1035 c 0,32,33
 36 1296 36 1296 99 1413.5 c 128,-1,34
 162 1531 162 1531 252 1531 c 0,35,36
 378 1531 378 1531 429 1376 c 128,-1,37
 480 1221 480 1221 480 886 c 0,38,39
 480 557 480 557 454.5 358 c 128,-1,40
 429 159 429 159 372.5 70 c 128,-1,41
 316 -19 316 -19 229 -24 c 0,12,13
EndSplineSet
Substitution2: "'frac' Diagonal Fractions in Latin lookup 24 subtable" nine.numr
Substitution2: "'dnom' Denominators in Latin lookup 22 subtable" nine.dnom
Substitution2: "'numr' Numerators in Latin lookup 21 subtable" nine.numr
Substitution2: "'sups' Superscript in Latin lookup 20 subtable" uni2079
Substitution2: "'subs' Subscript in Latin lookup 19 subtable" uni2089
AlternateSubs2: "'aalt' Access All Alternates in Latin lookup 1 subtable" uni2089 nine.dnom nine.numr uni2079
EndChar

StartChar: zero.zero
Encoding: 65541 -1 484
Width: 512
VWidth: 2441
GlyphClass: 1
Flags: HW
LayerCount: 2
Fore
SplineSet
257 689 m 0,0,1
 229 689 229 689 209 713 c 128,-1,2
 189 737 189 737 189 771 c 0,3,4
 189 806 189 806 209 830.5 c 128,-1,5
 229 855 229 855 257 855 c 0,6,7
 283 855 283 855 302.5 830.5 c 128,-1,8
 322 806 322 806 322 771 c 128,-1,9
 322 736 322 736 302.5 712.5 c 128,-1,10
 283 689 283 689 257 689 c 0,0,1
257 166 m 0,11,12
 297 166 297 166 315 300.5 c 128,-1,13
 333 435 333 435 333 752 c 0,14,15
 333 1055 333 1055 314 1196.5 c 128,-1,16
 295 1338 295 1338 257 1338 c 0,17,18
 223 1338 223 1338 201 1196.5 c 128,-1,19
 179 1055 179 1055 179 752 c 0,20,21
 179 435 179 435 201 300.5 c 128,-1,22
 223 166 223 166 257 166 c 0,11,12
257 -27 m 128,-1,24
 192 -27 192 -27 141.5 47.5 c 128,-1,25
 91 122 91 122 61.5 293 c 128,-1,26
 32 464 32 464 32 752 c 0,27,28
 32 1036 32 1036 61.5 1206.5 c 128,-1,29
 91 1377 91 1377 141.5 1454 c 128,-1,30
 192 1531 192 1531 257 1531 c 128,-1,31
 322 1531 322 1531 372.5 1454 c 128,-1,32
 423 1377 423 1377 451.5 1206 c 128,-1,33
 480 1035 480 1035 480 752 c 0,34,35
 480 459 480 459 451.5 289 c 128,-1,36
 423 119 423 119 372.5 46 c 128,-1,23
 322 -27 322 -27 257 -27 c 128,-1,24
EndSplineSet
EndChar

StartChar: zero.ss02
Encoding: 65542 -1 485
Width: 512
VWidth: 2441
GlyphClass: 1
Flags: HW
LayerCount: 2
Fore
SplineSet
257 166 m 0,0,1
 297 166 297 166 315 300.5 c 128,-1,2
 333 435 333 435 333 752 c 0,3,4
 333 1055 333 1055 314 1196.5 c 128,-1,5
 295 1338 295 1338 257 1338 c 0,6,7
 223 1338 223 1338 201 1196.5 c 128,-1,8
 179 1055 179 1055 179 752 c 0,9,10
 179 435 179 435 201 300.5 c 128,-1,11
 223 166 223 166 257 166 c 0,0,1
257 -27 m 128,-1,13
 192 -27 192 -27 141.5 47.5 c 128,-1,14
 91 122 91 122 61.5 293 c 128,-1,15
 32 464 32 464 32 752 c 0,16,17
 32 1036 32 1036 61.5 1206.5 c 128,-1,18
 91 1377 91 1377 141.5 1454 c 128,-1,19
 192 1531 192 1531 257 1531 c 128,-1,20
 322 1531 322 1531 372.5 1454 c 128,-1,21
 423 1377 423 1377 451.5 1206 c 128,-1,22
 480 1035 480 1035 480 752 c 0,23,24
 480 459 480 459 451.5 289 c 128,-1,25
 423 119 423 119 372.5 46 c 128,-1,12
 322 -27 322 -27 257 -27 c 128,-1,13
EndSplineSet
EndChar

StartChar: uni2070
Encoding: 8304 8304 516
Width: 426
VWidth: 2441
GlyphClass: 1
Flags: HW
LayerCount: 2
Fore
SplineSet
213 718 m 0,0,1
 245 718 245 718 258.5 797 c 128,-1,2
 272 876 272 876 272 1067 c 2,3,4
 272 1066 272 1066 272 1070 c 130,-1,5
 272 1074 272 1074 272 1101 c 1,6,-1
 162 876 l 1,7,8
 167 790 167 790 180.5 754 c 128,-1,9
 194 718 194 718 213 718 c 0,0,1
155 1067 m 0,10,11
 155 1046 155 1046 155 1028 c 1,12,-1
 264 1267 l 1,13,14
 252 1416 252 1416 213 1416 c 0,15,16
 183 1416 183 1416 169 1332 c 128,-1,17
 155 1248 155 1248 155 1067 c 0,10,11
213 583 m 0,18,19
 134 583 134 583 83 689.5 c 128,-1,20
 32 796 32 796 32 1067 c 0,21,22
 32 1333 32 1333 83.5 1441.5 c 128,-1,23
 135 1550 135 1550 213 1550 c 0,24,25
 292 1550 292 1550 343 1441.5 c 128,-1,26
 394 1333 394 1333 394 1067 c 0,27,28
 394 883 394 883 371 778.5 c 128,-1,29
 348 674 348 674 306 628.5 c 128,-1,30
 264 583 264 583 213 583 c 0,18,19
EndSplineSet
Substitution2: "'ss02' Style Set 2 in Latin lookup 36 subtable" uni2070.ss02
Substitution2: "'zero' Slashed Zero in Latin lookup 33 subtable" uni2070.zero
AlternateSubs2: "'aalt' Access All Alternates in Latin lookup 1 subtable" uni2070.ss02 uni2070.zero
EndChar

StartChar: uni00B9
Encoding: 185 185 517
Width: 293
VWidth: 2441
GlyphClass: 1
Flags: HW
LayerCount: 2
Fore
SplineSet
135 601 m 1,0,-1
 135 1347 l 1,1,-1
 53 1291 l 1,2,-1
 32 1416 l 1,3,-1
 174 1545 l 1,4,-1
 261 1545 l 1,5,-1
 261 601 l 1,6,-1
 135 601 l 1,0,-1
EndSplineSet
EndChar

StartChar: uni00B2
Encoding: 178 178 518
Width: 410
VWidth: 2441
GlyphClass: 1
Flags: HW
LayerCount: 2
Fore
SplineSet
46 701 m 1,0,1
 116 848 116 848 160.5 945 c 128,-1,2
 205 1042 205 1042 226 1120.5 c 128,-1,3
 247 1199 247 1199 249 1284 c 0,4,5
 249.275862069 1291.44827586 249.275862069 1291.44827586 249.275862069 1298.61117717 c 0,6,7
 249.275862069 1343.37931034 249.275862069 1343.37931034 238.5 1377 c 0,8,9
 226 1416 226 1416 205 1416 c 0,10,11
 191 1416 191 1416 191 1411 c 0,12,13
 170 1379 170 1379 163 1363 c 128,-1,14
 156 1347 156 1347 158 1326 c 1,15,-1
 149 1311 l 1,16,-1
 129 1326 l 1,17,-1
 32 1360 l 1,18,19
 56 1446 56 1446 95.5 1498 c 128,-1,20
 135 1550 135 1550 212 1550 c 0,21,22
 291 1550 291 1550 333 1483 c 128,-1,23
 375 1416 375 1416 375 1281 c 0,24,25
 375 1183 375 1183 354.5 1103 c 128,-1,26
 334 1023 334 1023 297.5 936.5 c 128,-1,27
 261 850 261 850 207 734 c 1,28,-1
 270 734 l 2,29,30
 312 734 312 734 329.5 739.5 c 128,-1,31
 347 745 347 745 361 759 c 1,32,-1
 378 759 l 1,33,-1
 378 601 l 1,34,-1
 46 601 l 1,35,-1
 46 701 l 1,0,1
EndSplineSet
EndChar

StartChar: uni00B3
Encoding: 179 179 519
Width: 409
VWidth: 2441
GlyphClass: 1
Flags: HW
LayerCount: 2
Fore
SplineSet
201 583 m 0,0,1
 145 583 145 583 102 617.5 c 128,-1,2
 59 652 59 652 32 708 c 1,3,-1
 113 767 l 1,4,-1
 132 778 l 1,5,-1
 140 769 l 1,6,7
 138 752 138 752 146.5 739.5 c 128,-1,8
 155 727 155 727 176 703 c 1,9,-1
 192 703 l 2,10,11
 219 703 219 703 237 738.5 c 128,-1,12
 255 774 255 774 255 864 c 0,13,14
 255 971 255 971 227 1006.5 c 0,15,16
 205.153846154 1034.1978022 205.153846154 1034.1978022 163.219176428 1034.1978022 c 0,17,18
 151.406593407 1034.1978022 151.406593407 1034.1978022 138 1032 c 1,19,-1
 138 1153 l 1,20,21
 208 1153 208 1153 224.5 1199 c 128,-1,22
 241 1245 241 1245 241 1316 c 0,23,24
 241 1435 241 1435 197 1435 c 0,25,26
 165 1435 165 1435 138 1372 c 1,27,-1
 47 1426 l 1,28,29
 101 1550 101 1550 204 1550 c 0,30,31
 270 1550 270 1550 315 1495 c 128,-1,32
 360 1440 360 1440 360 1316 c 0,33,34
 360 1241 360 1241 344 1185.5 c 128,-1,35
 328 1130 328 1130 289 1104 c 1,36,37
 331 1074 331 1074 354 1015.5 c 128,-1,38
 377 957 377 957 377 859 c 0,39,40
 377 722 377 722 328.5 652.5 c 128,-1,41
 280 583 280 583 201 583 c 0,0,1
EndSplineSet
EndChar

StartChar: uni2074
Encoding: 8308 8308 520
Width: 432
VWidth: 2441
GlyphClass: 1
Flags: HW
LayerCount: 2
Fore
SplineSet
146 948 m 1,0,-1
 237 948 l 1,1,-1
 237 1193 l 1,2,-1
 146 948 l 1,0,-1
237 601 m 1,3,-1
 237 813 l 1,4,-1
 32 813 l 1,5,-1
 32 932 l 1,6,-1
 268 1545 l 1,7,-1
 359 1545 l 1,8,-1
 359 948 l 1,9,-1
 400 948 l 1,10,-1
 400 813 l 1,11,-1
 359 813 l 1,12,-1
 359 601 l 1,13,-1
 237 601 l 1,3,-1
EndSplineSet
EndChar

StartChar: uni2075
Encoding: 8309 8309 521
Width: 418
VWidth: 2441
GlyphClass: 1
Flags: HW
LayerCount: 2
Fore
SplineSet
207 583 m 0,0,1
 151 583 151 583 106 616.5 c 128,-1,2
 61 650 61 650 32 730 c 1,3,-1
 121 786 l 1,4,-1
 139 796 l 1,5,-1
 146 781 l 1,6,7
 144 767 144 767 150 753.5 c 128,-1,8
 156 740 156 740 177 715 c 0,9,10
 179 715 179 715 185 714 c 128,-1,11
 191 713 191 713 195 713 c 0,12,13
 230 713 230 713 243 765.5 c 128,-1,14
 256 818 256 818 256 901 c 0,15,16
 256 1104 256 1104 205 1104 c 0,17,18
 168 1104 168 1104 144 1045 c 1,19,-1
 58 1060 l 1,20,-1
 75 1543 l 1,21,-1
 354 1543 l 1,22,-1
 354 1414 l 1,23,-1
 191 1414 l 1,24,-1
 183 1186 l 1,25,26
 210 1223 210 1223 256 1223 c 0,27,28
 319 1223 319 1223 352.5 1145 c 128,-1,29
 386 1067 386 1067 386 901 c 0,30,31
 386 742 386 742 338 662.5 c 128,-1,32
 290 583 290 583 207 583 c 0,0,1
EndSplineSet
EndChar

StartChar: uni2076
Encoding: 8310 8310 522
Width: 405
VWidth: 2441
GlyphClass: 1
Flags: HW
LayerCount: 2
Fore
SplineSet
207 718 m 0,0,1
 228 718 228 718 238.5 757 c 128,-1,2
 249 796 249 796 249 901 c 0,3,4
 249 1079.00555556 249 1079.00555556 212.409969136 1079.00555556 c 0,5,6
 193.003753754 1079.00555556 193.003753754 1079.00555556 180.5 1060.5 c 128,-1,7
 168 1042 168 1042 158 1013 c 1,8,9
 156.75 977.5 156.75 977.5 156.75 946.09375 c 0,10,11
 156.75 851.875 156.75 851.875 168 794.5 c 0,12,13
 183 718 183 718 207 718 c 0,0,1
207 587 m 0,14,15
 119 587 119 587 75.5 691.5 c 128,-1,16
 32 796 32 796 32 1030 c 0,17,18
 32 1305 32 1305 85.5 1430.5 c 128,-1,19
 139 1556 139 1556 239 1556 c 0,20,21
 327 1556 327 1556 373 1453 c 1,22,-1
 310 1363 l 1,23,-1
 300 1345 l 1,24,-1
 288 1355 l 1,25,26
 286 1369 286 1369 279.5 1384.5 c 128,-1,27
 273 1400 273 1400 249 1421 c 1,28,-1
 239 1421 l 2,29,30
 225 1421 225 1421 205.5 1400 c 128,-1,31
 186 1379 186 1379 172 1323 c 128,-1,32
 158 1267 158 1267 156 1158 c 1,33,34
 187.418181818 1211.01818182 187.418181818 1211.01818182 240.043636364 1211.01818182 c 0,35,36
 241.018181818 1211.01818182 241.018181818 1211.01818182 242 1211 c 0,37,38
 300 1211 300 1211 334 1135.5 c 128,-1,39
 368 1060 368 1060 368 904 c 0,40,41
 368 753 368 753 328 670 c 128,-1,42
 288 587 288 587 207 587 c 0,14,15
EndSplineSet
EndChar

StartChar: uni2077
Encoding: 8311 8311 523
Width: 386
VWidth: 2441
GlyphClass: 1
Flags: HW
LayerCount: 2
Fore
SplineSet
69 601 m 1,0,1
 106 816 106 816 136.5 1010 c 128,-1,2
 167 1204 167 1204 210 1411 c 1,3,-1
 32 1411 l 1,4,-1
 32 1543 l 1,5,-1
 354 1543 l 1,6,-1
 354 1447 l 1,7,8
 305 1230 305 1230 273.5 1028.5 c 128,-1,9
 242 827 242 827 207 601 c 1,10,-1
 69 601 l 1,0,1
EndSplineSet
EndChar

StartChar: uni2078
Encoding: 8312 8312 524
Width: 410
VWidth: 2441
GlyphClass: 1
Flags: HW
LayerCount: 2
Fore
SplineSet
207 715 m 0,0,1
 231 715 231 715 244.5 742 c 128,-1,2
 258 769 258 769 258 848 c 0,3,4
 258 980 258 980 205 1025 c 1,5,6
 181 1004 181 1004 167.5 962 c 128,-1,7
 154 920 154 920 154 852 c 0,8,9
 154 773 154 773 170 744 c 128,-1,10
 186 715 186 715 207 715 c 0,0,1
217 1169 m 1,11,12
 234 1188 234 1188 240.5 1234.5 c 128,-1,13
 247 1281 247 1281 247 1326 c 0,14,15
 247 1423.01010101 247 1423.01010101 207.803999592 1423.01010101 c 0,16,17
 207.404040404 1423.01010101 207.404040404 1423.01010101 207 1423 c 0,18,19
 188 1423 188 1423 179 1398.5 c 128,-1,20
 170 1374 170 1374 170 1330 c 0,21,22
 171 1213 171 1213 217 1169 c 1,11,12
205 587 m 128,-1,24
 122 587 122 587 77 654.5 c 128,-1,25
 32 722 32 722 32 840 c 0,26,27
 32 1024 32 1024 130 1111 c 1,28,29
 91 1150 91 1150 74.5 1202.5 c 128,-1,30
 58 1255 58 1255 58 1321 c 0,31,32
 58 1428 58 1428 100 1493 c 128,-1,33
 142 1558 142 1558 210 1558 c 0,34,35
 280 1558 280 1558 320.5 1495.5 c 128,-1,36
 361 1433 361 1433 361 1330 c 0,37,38
 361 1262 361 1262 348 1199.5 c 128,-1,39
 335 1137 335 1137 298 1101 c 1,40,41
 344 1057 344 1057 361 997 c 128,-1,42
 378 937 378 937 378 845 c 0,43,44
 378 726 378 726 333 656.5 c 128,-1,23
 288 587 288 587 205 587 c 128,-1,24
EndSplineSet
EndChar

StartChar: uni2079
Encoding: 8313 8313 525
Width: 407
VWidth: 2441
GlyphClass: 1
Flags: HW
LayerCount: 2
Fore
SplineSet
156 1240 m 0,0,1
 156 1070 156 1070 214 1069 c 0,2,3
 241 1069 241 1069 256 1079 c 1,4,-1
 256 1081 l 2,5,6
 256 1220 256 1220 251.5 1293.5 c 128,-1,7
 247 1367 247 1367 235.5 1394 c 128,-1,8
 224 1421 224 1421 205 1421 c 0,9,10
 184 1421 184 1421 170 1383 c 128,-1,11
 156 1345 156 1345 156 1240 c 0,0,1
186 587 m 0,12,13
 81 587 81 587 32 683 c 1,14,-1
 98 771 l 1,15,-1
 109 792 l 1,16,-1
 124 781 l 1,17,18
 126 764 126 764 135 749 c 128,-1,19
 144 734 144 734 170 713 c 1,20,21
 170 715 170 715 175 715 c 0,22,23
 212 715 212 715 230.5 783.5 c 128,-1,24
 249 852 249 852 254 957 c 1,25,26
 235 940 235 940 202 939 c 0,27,28
 136 939 136 939 87.5 1012.5 c 128,-1,29
 39 1086 39 1086 39 1240 c 0,30,31
 39 1403 39 1403 87 1476.5 c 128,-1,32
 135 1550 135 1550 205 1550 c 0,33,34
 296 1550 296 1550 335.5 1452.5 c 128,-1,35
 375 1355 375 1355 375 1148 c 0,36,37
 375 843 375 843 328 716 c 128,-1,38
 281 589 281 589 186 587 c 0,12,13
EndSplineSet
EndChar

StartChar: fraction
Encoding: 8260 8260 526
Width: 512
VWidth: 2441
GlyphClass: 1
Flags: HW
LayerCount: 2
Fore
SplineSet
120 -105 m 1,0,-1
 32 -63 l 1,1,-1
 392 1638 l 1,2,-1
 480 1591 l 1,3,-1
 120 -105 l 1,0,-1
EndSplineSet
EndChar

StartChar: onehalf
Encoding: 189 189 527
Width: 438
VWidth: 2441
GlyphClass: 1
Flags: HW
LayerCount: 2
Fore
SplineSet
230 -170 m 1,0,-1
 230 -88 l 1,1,2
 271 26 271 26 296.5 103.5 c 128,-1,3
 322 181 322 181 334.5 242 c 128,-1,4
 347 303 347 303 349 368 c 0,5,6
 349 403 349 403 343 433.5 c 128,-1,7
 337 464 337 464 326 464 c 0,8,9
 313 464 313 464 304.5 454.5 c 128,-1,10
 296 445 296 445 283 401 c 1,11,-1
 220 429 l 1,12,13
 235 497 235 497 258 539 c 128,-1,14
 281 581 281 581 331 581 c 0,15,16
 377 581 377 581 404.5 527 c 128,-1,17
 432 473 432 473 432 366 c 0,18,19
 432 291 432 291 420.5 229.5 c 128,-1,20
 409 168 409 168 388 102.5 c 128,-1,21
 367 37 367 37 335 -56 c 1,22,-1
 432 -56 l 1,23,-1
 432 -170 l 1,24,-1
 230 -170 l 1,0,-1
90 -105 m 1,25,-1
 16 -63 l 1,26,-1
 319 1638 l 1,27,-1
 393 1591 l 1,28,-1
 90 -105 l 1,25,-1
44 927 m 1,29,-1
 44 1509 l 1,30,-1
 -2 1463 l 1,31,-1
 -16 1572 l 1,32,-1
 67 1675 l 1,33,-1
 125 1675 l 1,34,-1
 125 927 l 1,35,-1
 44 927 l 1,29,-1
EndSplineSet
EndChar

StartChar: onequarter
Encoding: 188 188 528
Width: 427
VWidth: 2441
GlyphClass: 1
Flags: HW
LayerCount: 2
Fore
SplineSet
277 107 m 1,0,-1
 327 107 l 1,1,-1
 327 281 l 1,2,-1
 277 107 l 1,0,-1
325 -170 m 1,3,-1
 325 -5 l 1,4,-1
 206 -5 l 1,5,-1
 206 98 l 1,6,-1
 349 576 l 1,7,-1
 404 576 l 1,8,-1
 404 107 l 1,9,-1
 426 107 l 1,10,-1
 426 -7 l 1,11,-1
 404 -7 l 1,12,-1
 404 -170 l 1,13,-1
 325 -170 l 1,3,-1
83 -105 m 1,14,-1
 9 -63 l 1,15,-1
 309 1638 l 1,16,-1
 382 1591 l 1,17,-1
 83 -105 l 1,14,-1
37 927 m 1,18,-1
 37 1509 l 1,19,-1
 -9 1463 l 1,20,-1
 -22 1572 l 1,21,-1
 60 1675 l 1,22,-1
 118 1675 l 1,23,-1
 118 927 l 1,24,-1
 37 927 l 1,18,-1
EndSplineSet
EndChar

StartChar: threequarters
Encoding: 190 190 529
Width: 410
VWidth: 2441
GlyphClass: 1
Flags: HW
LayerCount: 2
Fore
SplineSet
314 107 m 1,0,-1
 314 281 l 1,1,-1
 266 107 l 1,2,-1
 314 107 l 1,0,-1
312 -5 m 1,3,-1
 197 -5 l 1,4,-1
 197 98 l 1,5,-1
 336 576 l 1,6,-1
 388 576 l 1,7,-1
 388 107 l 1,8,-1
 410 107 l 1,9,-1
 410 -7 l 1,10,-1
 388 -7 l 1,11,-1
 388 -170 l 1,12,-1
 312 -170 l 1,13,-1
 312 -5 l 1,3,-1
79 -105 m 1,14,-1
 8 -63 l 1,15,-1
 297 1638 l 1,16,-1
 368 1591 l 1,17,-1
 79 -105 l 1,14,-1
61 916 m 0,18,19
 29 916 29 916 3.5 942.5 c 128,-1,20
 -22 969 -22 969 -38 1013 c 1,21,-1
 10 1062 l 1,22,-1
 23 1074 l 1,23,-1
 28 1067 l 1,24,25
 23 1053 23 1053 25.5 1045 c 128,-1,26
 28 1037 28 1037 38 1023 c 0,27,28
 43 1013 43 1013 54 1013 c 0,29,30
 68 1013 68 1013 77.5 1039 c 128,-1,31
 87 1065 87 1065 87 1137 c 0,32,33
 87 1220 87 1220 72 1246 c 128,-1,34
 57 1272 57 1272 22 1265 c 1,35,-1
 22 1367 l 1,36,37
 63 1367 63 1367 71 1402.5 c 128,-1,38
 79 1438 79 1438 79 1491 c 0,39,40
 79 1582 79 1582 57 1582 c 0,41,42
 40 1582 40 1582 26 1533 c 1,43,-1
 -29 1580 l 1,44,45
 1 1680 1 1680 61 1680 c 0,46,47
 100 1680 100 1680 127.5 1635.5 c 128,-1,48
 155 1591 155 1591 155 1491 c 0,49,50
 155 1433 155 1433 145.5 1390 c 128,-1,51
 136 1347 136 1347 114 1326 c 1,52,53
 137 1302 137 1302 150.5 1256.5 c 128,-1,54
 164 1211 164 1211 164 1132 c 0,55,56
 164 1022 164 1022 134.5 969 c 128,-1,57
 105 916 105 916 61 916 c 0,18,19
EndSplineSet
EndChar

StartChar: uni2070.ss02
Encoding: 65566 -1 533
Width: 426
VWidth: 2441
GlyphClass: 1
Flags: HW
LayerCount: 2
Fore
SplineSet
213 718 m 0,0,1
 245 718 245 718 258.5 797 c 128,-1,2
 272 876 272 876 272 1067 c 0,3,4
 272 1248 272 1248 257.5 1332 c 128,-1,5
 243 1416 243 1416 213 1416 c 128,-1,6
 183 1416 183 1416 169 1332 c 128,-1,7
 155 1248 155 1248 155 1067 c 0,8,9
 155 876 155 876 170.5 797 c 128,-1,10
 186 718 186 718 213 718 c 0,0,1
213 583 m 0,11,12
 134 583 134 583 83 689.5 c 128,-1,13
 32 796 32 796 32 1067 c 0,14,15
 32 1333 32 1333 83.5 1441.5 c 128,-1,16
 135 1550 135 1550 213 1550 c 0,17,18
 292 1550 292 1550 343 1441.5 c 128,-1,19
 394 1333 394 1333 394 1067 c 0,20,21
 394 883 394 883 371 778.5 c 128,-1,22
 348 674 348 674 306 628.5 c 128,-1,23
 264 583 264 583 213 583 c 0,11,12
EndSplineSet
EndChar

StartChar: uni2070.zero
Encoding: 65570 -1 537
Width: 426
VWidth: 2441
GlyphClass: 1
Flags: HW
LayerCount: 2
Fore
SplineSet
216 1048 m 0,0,1
 197 1048 197 1048 180.5 1063.5 c 128,-1,2
 164 1079 164 1079 164 1101 c 0,3,4
 164 1125 164 1125 180.5 1141.5 c 128,-1,5
 197 1158 197 1158 216 1158 c 0,6,7
 237 1158 237 1158 252 1141.5 c 128,-1,8
 267 1125 267 1125 267 1101 c 0,9,10
 267 1080 267 1080 252 1064 c 128,-1,11
 237 1048 237 1048 216 1048 c 0,0,1
213 718 m 0,12,13
 245 718 245 718 258.5 797 c 128,-1,14
 272 876 272 876 272 1067 c 0,15,16
 272 1248 272 1248 257.5 1332 c 128,-1,17
 243 1416 243 1416 213 1416 c 128,-1,18
 183 1416 183 1416 169 1332 c 128,-1,19
 155 1248 155 1248 155 1067 c 0,20,21
 155 876 155 876 170.5 797 c 128,-1,22
 186 718 186 718 213 718 c 0,12,13
213 583 m 0,23,24
 134 583 134 583 83 689.5 c 128,-1,25
 32 796 32 796 32 1067 c 0,26,27
 32 1333 32 1333 83.5 1441.5 c 128,-1,28
 135 1550 135 1550 213 1550 c 0,29,30
 292 1550 292 1550 343 1441.5 c 128,-1,31
 394 1333 394 1333 394 1067 c 0,32,33
 394 883 394 883 371 778.5 c 128,-1,34
 348 674 348 674 306 628.5 c 128,-1,35
 264 583 264 583 213 583 c 0,23,24
EndSplineSet
EndChar

StartChar: period
Encoding: 46 46 538
Width: 302
VWidth: 2607
GlyphClass: 1
Flags: HW
LayerCount: 2
Fore
SplineSet
151 139 m 128,-1,1
 102 139 102 139 67 175.5 c 128,-1,2
 32 212 32 212 32 264 c 0,3,4
 32 318 32 318 67 354 c 128,-1,5
 102 390 102 390 151 390 c 128,-1,6
 200 390 200 390 235 353.5 c 128,-1,7
 270 317 270 317 270 264 c 0,8,9
 270 213 270 213 235 176 c 128,-1,0
 200 139 200 139 151 139 c 128,-1,1
EndSplineSet
EndChar

StartChar: comma
Encoding: 44 44 539
Width: 342
VWidth: 2607
GlyphClass: 1
Flags: HW
LayerCount: 2
Fore
SplineSet
139 -244 m 1,0,-1
 32 -167 l 1,1,2
 76 -104 76 -104 103.5 -40 c 128,-1,3
 131 24 131 24 131 78 c 0,4,5
 131 110 131 110 116.5 137 c 128,-1,6
 102 164 102 164 86 193 c 128,-1,7
 70 222 70 222 70 266 c 0,8,9
 70 329 70 329 107 367.5 c 128,-1,10
 144 406 144 406 188 406 c 0,11,12
 237 406 237 406 273.5 366.5 c 128,-1,13
 310 327 310 327 310 239 c 0,14,15
 310 122 310 122 266 -1.5 c 128,-1,16
 222 -125 222 -125 139 -244 c 1,0,-1
EndSplineSet
EndChar

StartChar: colon
Encoding: 58 58 540
Width: 311
VWidth: 2716
GlyphClass: 1
Flags: HW
LayerCount: 2
Fore
SplineSet
155 248 m 128,-1,1
 104 248 104 248 68 284.5 c 128,-1,2
 32 321 32 321 32 373 c 0,3,4
 32 427 32 427 69 464 c 128,-1,5
 106 501 106 501 155 501 c 128,-1,6
 204 501 204 501 241.5 463.5 c 128,-1,7
 279 426 279 426 279 373 c 0,8,9
 279 322 279 322 242.5 285 c 128,-1,0
 206 248 206 248 155 248 c 128,-1,1
155 1039 m 0,10,11
 106 1039 106 1039 69 1077 c 128,-1,12
 32 1115 32 1115 32 1167 c 0,13,14
 32 1221 32 1221 69 1257 c 128,-1,15
 106 1293 106 1293 155 1293 c 128,-1,16
 204 1293 204 1293 241.5 1256.5 c 128,-1,17
 279 1220 279 1220 279 1167 c 0,18,19
 279 1116 279 1116 242.5 1077.5 c 128,-1,20
 206 1039 206 1039 155 1039 c 0,10,11
EndSplineSet
EndChar

StartChar: semicolon
Encoding: 59 59 541
Width: 342
VWidth: 2716
GlyphClass: 1
Flags: HW
LayerCount: 2
Fore
SplineSet
139 -135 m 1,0,-1
 32 -58 l 1,1,2
 78 5 78 5 106.5 69 c 128,-1,3
 135 133 135 133 135 187 c 0,4,5
 135 219 135 219 118.5 246 c 128,-1,6
 102 273 102 273 88 302 c 128,-1,7
 74 331 74 331 74 375 c 0,8,9
 74 438 74 438 109 476.5 c 128,-1,10
 144 515 144 515 188 515 c 0,11,12
 237 515 237 515 273.5 475.5 c 128,-1,13
 310 436 310 436 310 348 c 0,14,15
 310 231 310 231 266 107.5 c 128,-1,16
 222 -16 222 -16 139 -135 c 1,0,-1
176 1039 m 0,17,18
 127 1039 127 1039 90 1077 c 128,-1,19
 53 1115 53 1115 53 1167 c 0,20,21
 53 1221 53 1221 90 1257 c 128,-1,22
 127 1293 127 1293 176 1293 c 128,-1,23
 225 1293 225 1293 262.5 1256.5 c 128,-1,24
 300 1220 300 1220 300 1167 c 0,25,26
 300 1116 300 1116 263.5 1077.5 c 128,-1,27
 227 1039 227 1039 176 1039 c 0,17,18
EndSplineSet
EndChar

StartChar: ellipsis
Encoding: 8230 8230 542
Width: 440
VWidth: 2441
GlyphClass: 1
Flags: HW
LayerCount: 2
Fore
SplineSet
52 -24 m 128,-1,1
 22 -24 22 -24 2 9 c 128,-1,2
 -18 42 -18 42 -18 86 c 128,-1,3
 -18 130 -18 130 2.5 163 c 128,-1,4
 23 196 23 196 52 196 c 0,5,6
 82 196 82 196 103.5 163 c 128,-1,7
 125 130 125 130 125 86 c 128,-1,8
 125 42 125 42 103.5 9 c 128,-1,0
 82 -24 82 -24 52 -24 c 128,-1,1
204 -24 m 128,-1,10
 174 -24 174 -24 154 9 c 128,-1,11
 134 42 134 42 134 86 c 128,-1,12
 134 130 134 130 154 163 c 128,-1,13
 174 196 174 196 204 196 c 128,-1,14
 234 196 234 196 255 163 c 128,-1,15
 276 130 276 130 276 86 c 128,-1,16
 276 42 276 42 255 9 c 128,-1,9
 234 -24 234 -24 204 -24 c 128,-1,10
358 -24 m 128,-1,18
 328 -24 328 -24 307.5 9 c 128,-1,19
 287 42 287 42 287 86 c 128,-1,20
 287 130 287 130 307.5 163 c 128,-1,21
 328 196 328 196 358 196 c 128,-1,22
 388 196 388 196 409 163 c 128,-1,23
 430 130 430 130 430 86 c 128,-1,24
 430 42 430 42 409 9 c 128,-1,17
 388 -24 388 -24 358 -24 c 128,-1,18
EndSplineSet
EndChar

StartChar: exclam
Encoding: 33 33 543
Width: 302
VWidth: 2441
GlyphClass: 1
Flags: HW
LayerCount: 2
Fore
SplineSet
151 -27 m 128,-1,1
 102 -27 102 -27 67 9.5 c 128,-1,2
 32 46 32 46 32 98 c 0,3,4
 32 152 32 152 67 188 c 128,-1,5
 102 224 102 224 151 224 c 128,-1,6
 200 224 200 224 235 187.5 c 128,-1,7
 270 151 270 151 270 98 c 0,8,9
 270 47 270 47 235 10 c 128,-1,0
 200 -27 200 -27 151 -27 c 128,-1,1
88 473 m 1,10,-1
 37 1470 l 2,11,12
 36.8709677419 1474.83870968 36.8709677419 1474.83870968 36.8709677419 1479.54422477 c 0,13,14
 36.8709677419 1547.77419355 36.8709677419 1547.77419355 64 1588 c 0,15,16
 93 1631 93 1631 142 1631 c 128,-1,17
 191 1631 191 1631 220 1588 c 0,18,19
 247.129032258 1547.77419355 247.129032258 1547.77419355 247.129032258 1457.66597294 c 0,20,21
 247.129032258 1451.4516129 247.129032258 1451.4516129 247 1445 c 2,22,-1
 191 473 l 1,23,-1
 88 473 l 1,10,-1
EndSplineSet
EndChar

StartChar: question
Encoding: 63 63 545
Width: 512
VWidth: 2441
GlyphClass: 1
Flags: HW
LayerCount: 2
Fore
SplineSet
278 -27 m 0,0,1
 230 -27 230 -27 197.5 9.5 c 128,-1,2
 165 46 165 46 165 98 c 0,3,4
 165 152 165 152 197.5 188 c 128,-1,5
 230 224 230 224 278 224 c 0,6,7
 324 224 324 224 356 187.5 c 128,-1,8
 388 151 388 151 388 98 c 0,9,10
 388 47 388 47 356 10 c 128,-1,11
 324 -27 324 -27 278 -27 c 0,0,1
202 527 m 2,12,13
 202 637 202 637 215 711.5 c 128,-1,14
 228 786 228 786 247 841 c 128,-1,15
 266 896 266 896 285.5 948.5 c 128,-1,16
 305 1001 305 1001 319 1069 c 128,-1,17
 333 1137 333 1137 333 1237 c 0,18,19
 333 1325 333 1325 312.5 1381.5 c 128,-1,20
 292 1438 292 1438 250 1438 c 0,21,22
 206 1438 206 1438 174 1374 c 0,23,24
 158 1337 158 1337 156 1319.5 c 128,-1,25
 154 1302 154 1302 161 1281 c 1,26,-1
 154 1267 l 1,27,-1
 134 1277 l 1,28,-1
 32 1377 l 1,29,30
 69 1496 69 1496 130 1560 c 128,-1,31
 191 1624 191 1624 278 1624 c 0,32,33
 370 1624 370 1624 425 1528.5 c 128,-1,34
 480 1433 480 1433 480 1225 c 0,35,36
 480 1111 480 1111 466 1036.5 c 128,-1,37
 452 962 452 962 434 907 c 128,-1,38
 416 852 416 852 396.5 802 c 128,-1,39
 377 752 377 752 364 687 c 128,-1,40
 351 622 351 622 351 527 c 2,41,-1
 351 427 l 1,42,-1
 202 427 l 1,43,-1
 202 527 l 2,12,13
EndSplineSet
EndChar

StartChar: periodcentered
Encoding: 183 183 547
Width: 302
VWidth: 2441
GlyphClass: 1
Flags: HW
LayerCount: 2
Fore
SplineSet
151 691 m 128,-1,1
 102 691 102 691 67 727.5 c 128,-1,2
 32 764 32 764 32 815 c 0,3,4
 32 869 32 869 67 906 c 128,-1,5
 102 943 102 943 151 943 c 128,-1,6
 200 943 200 943 235 906 c 128,-1,7
 270 869 270 869 270 815 c 0,8,9
 270 764 270 764 235 727.5 c 128,-1,0
 200 691 200 691 151 691 c 128,-1,1
EndSplineSet
Substitution2: "Single Substitution lookup 11 subtable" periodcentered.loclCAT
Substitution2: "Single Substitution lookup 10 subtable" periodcentered.loclCAT
Substitution2: "'aalt' Access All Alternates in Latin lookup 0 subtable" periodcentered.loclCAT
EndChar

StartChar: bullet
Encoding: 8226 8226 548
Width: 406
VWidth: 2441
GlyphClass: 1
Flags: HW
LayerCount: 2
Fore
SplineSet
202 542 m 128,-1,1
 132 542 132 542 82 594.5 c 128,-1,2
 32 647 32 647 32 720 c 0,3,4
 32 795 32 795 84.5 848 c 128,-1,5
 137 901 137 901 202 901 c 0,6,7
 270 901 270 901 322 847.5 c 128,-1,8
 374 794 374 794 374 720 c 0,9,10
 374 647 374 647 323 594.5 c 128,-1,0
 272 542 272 542 202 542 c 128,-1,1
EndSplineSet
EndChar

StartChar: asterisk
Encoding: 42 42 549
Width: 493
VWidth: 2441
GlyphClass: 1
Flags: HW
LayerCount: 2
Fore
SplineSet
151 271 m 1,0,-1
 36 410 l 1,1,-1
 164 764 l 1,2,-1
 22 848 l 1,3,-1
 68 1079 l 1,4,-1
 191 937 l 1,5,-1
 170 1323 l 1,6,-1
 322 1323 l 1,7,-1
 299 937 l 1,8,-1
 430 1069 l 1,9,-1
 470 848 l 1,10,-1
 314 764 l 1,11,-1
 444 415 l 1,12,-1
 331 271 l 1,13,-1
 243 613 l 1,14,-1
 151 271 l 1,0,-1
EndSplineSet
Substitution2: "'ss01' Style Set 1 in Latin lookup 35 subtable" asterisk.ss01
Substitution2: "'salt' Stylistic Alternatives in Latin lookup 34 subtable" asterisk.ss01
Substitution2: "'aalt' Access All Alternates in Latin lookup 0 subtable" asterisk.ss01
EndChar

StartChar: uni2E12
Encoding: 11794 11794 550
Width: 231
VWidth: 2212
GlyphClass: 1
Flags: HW
LayerCount: 2
Fore
SplineSet
32 -246 m 1,0,-1
 32 -113 l 1,1,2
 69 -113 69 -113 84 -67.5 c 128,-1,3
 99 -22 99 -22 99 47 c 0,4,5
 99 117 99 117 84 164 c 128,-1,6
 69 211 69 211 32 211 c 1,7,-1
 32 340 l 1,8,9
 106 340 106 340 152.5 274.5 c 128,-1,10
 199 209 199 209 199 45 c 0,11,12
 199 -114 199 -114 152.5 -180 c 128,-1,13
 106 -246 106 -246 32 -246 c 1,0,-1
EndSplineSet
EndChar

StartChar: numbersign
Encoding: 35 35 551
Width: 489
VWidth: 2441
GlyphClass: 1
Flags: HW
LayerCount: 2
Fore
SplineSet
197 606 m 1,0,-1
 273 606 l 1,1,-1
 291 972 l 1,2,-1
 217 972 l 1,3,-1
 197 606 l 1,0,-1
243 24 m 1,4,-1
 267 447 l 1,5,-1
 191 447 l 1,6,-1
 169 35 l 1,7,-1
 62 32 l 1,8,-1
 83 442 l 1,9,-1
 18 442 l 1,10,-1
 22 601 l 1,11,-1
 89 601 l 1,12,-1
 108 969 l 1,13,-1
 32 969 l 1,14,-1
 34 1130 l 1,15,-1
 111 1130 l 1,16,-1
 133 1523 l 1,17,-1
 243 1528 l 1,18,-1
 222 1135 l 1,19,-1
 297 1135 l 1,20,-1
 317 1519 l 1,21,-1
 429 1521 l 1,22,-1
 407 1140 l 1,23,-1
 466 1140 l 1,24,-1
 460 976 l 1,25,-1
 403 976 l 1,26,-1
 382 613 l 1,27,-1
 456 613 l 1,28,-1
 450 454 l 1,29,-1
 378 454 l 1,30,-1
 355 35 l 1,31,-1
 243 24 l 1,4,-1
EndSplineSet
EndChar

StartChar: slash
Encoding: 47 47 552
Width: 512
VWidth: 2441
GlyphClass: 1
Flags: HW
LayerCount: 2
Fore
SplineSet
179 -103 m 1,0,-1
 32 -56 l 1,1,-1
 333 1624 l 1,2,-1
 480 1572 l 1,3,-1
 179 -103 l 1,0,-1
EndSplineSet
Substitution2: "'frac' Diagonal Fractions in Latin lookup 23 subtable" fraction
Substitution2: "'aalt' Access All Alternates in Latin lookup 0 subtable" fraction
EndChar

StartChar: backslash
Encoding: 92 92 553
Width: 512
VWidth: 2441
GlyphClass: 1
Flags: HW
LayerCount: 2
Fore
SplineSet
333 -103 m 1,0,-1
 32 1572 l 1,1,-1
 179 1624 l 1,2,-1
 480 -56 l 1,3,-1
 333 -103 l 1,0,-1
EndSplineSet
EndChar

StartChar: asterisk.ss01
Encoding: 65572 -1 555
Width: 493
VWidth: 2441
GlyphClass: 1
Flags: HW
LayerCount: 2
Fore
SplineSet
151 417 m 1,0,-1
 36 557 l 1,1,-1
 164 911 l 1,2,-1
 22 994 l 1,3,-1
 68 1225 l 1,4,-1
 191 1084 l 1,5,-1
 170 1470 l 1,6,-1
 322 1470 l 1,7,-1
 299 1084 l 1,8,-1
 430 1216 l 1,9,-1
 470 994 l 1,10,-1
 314 911 l 1,11,-1
 444 561 l 1,12,-1
 331 417 l 1,13,-1
 243 759 l 1,14,-1
 151 417 l 1,0,-1
EndSplineSet
EndChar

StartChar: parenleft
Encoding: 40 40 556
Width: 512
VWidth: 2449
GlyphClass: 1
Flags: HW
LayerCount: 2
Fore
SplineSet
378 -246 m 1,0,1
 280 -151 280 -151 201 9 c 128,-1,2
 122 169 122 169 77 370.5 c 128,-1,3
 32 572 32 572 32 789 c 128,-1,4
 32 1006 32 1006 77 1202.5 c 128,-1,5
 122 1399 122 1399 198.5 1554 c 128,-1,6
 275 1709 275 1709 371 1802 c 1,7,-1
 480 1636 l 1,8,9
 365 1506 365 1506 287 1283.5 c 128,-1,10
 209 1061 209 1061 209 786 c 0,11,12
 209 602 209 602 242 434.5 c 128,-1,13
 275 267 275 267 335.5 129 c 128,-1,14
 396 -9 396 -9 476 -97 c 1,15,-1
 378 -246 l 1,0,1
EndSplineSet
EndChar

StartChar: parenright
Encoding: 41 41 557
Width: 512
VWidth: 2449
GlyphClass: 1
Flags: HW
LayerCount: 2
Fore
SplineSet
133 -246 m 1
 231 -151 231 -151 309 9 c 0
 389 169 389 169 434 370 c 0
 480 571 480 571 480 789 c 0
 480 1006 480 1006 434 1202 c 0
 388 1399 388 1399 312 1554 c 0
 235 1709 235 1709 140 1802 c 1
 32 1636 l 1
 147 1506 147 1506 225 1284 c 0
 302.012658228 1063.82278481 302.012658228 1063.82278481 302.012658228 792.953693318 c 0,0,0
 302.012658228 789.481012658 302.012658228 789.481012658 302 786 c 0
 302 602 302 602 268 435 c 0
 234 267 234 267 176 128 c 0
 116 -10 116 -10 34 -97 c 1
 133 -246 l 1
EndSplineSet
EndChar

StartChar: braceleft
Encoding: 123 123 558
Width: 512
VWidth: 2486
GlyphClass: 1
Flags: HW
LayerCount: 2
Fore
SplineSet
438 -187 m 2,0,1
 355 -187 355 -187 289.5 -151.5 c 128,-1,2
 224 -116 224 -116 188 -23.5 c 128,-1,3
 153.894736842 64.1315789474 153.894736842 64.1315789474 153.894736842 223.114958449 c 0,0,0
 153.894736842 231.947368421 153.894736842 231.947368421 154 241 c 2,4,-1
 158 485 l 2,5,6
 158 592 158 592 146.5 644.5 c 128,-1,7
 135 697 135 697 112 712.5 c 128,-1,8
 89 728 89 728 55 728 c 2,9,-1
 32 728 l 1,10,-1
 32 924 l 1,11,-1
 55 924 l 2,12,13
 108 924 108 924 134 970.5 c 128,-1,14
 160 1017 160 1017 160 1156 c 2,15,-1
 158 1331 l 2,16,17
 158 1543 158 1543 231.5 1650 c 128,-1,18
 305 1757 305 1757 407 1757 c 2,19,-1
 480 1757 l 1,20,-1
 480 1580 l 1,21,-1
 416 1580 l 2,22,23
 377 1580 377 1580 348.5 1526.5 c 128,-1,24
 321.868852459 1476.50819672 321.868852459 1476.50819672 321.868852459 1373.69067455 c 0,0,0
 321.868852459 1366.47540984 321.868852459 1366.47540984 322 1359 c 2,25,-1
 325 1187 l 2,26,27
 325 1052 325 1052 294 962 c 128,-1,28
 263 872 263 872 213 826 c 1,29,30
 261 787 261 787 291.5 695.5 c 128,-1,31
 322 604 322 604 322 448 c 2,32,-1
 320 243 l 2,33,34
 320 99 320 99 346.5 43 c 128,-1,35
 373 -13 373 -13 425 -13 c 2,36,-1
 478 -13 l 1,37,-1
 478 -187 l 1,38,-1
 438 -187 l 2,0,1
EndSplineSet
EndChar

StartChar: braceright
Encoding: 125 125 559
Width: 512
VWidth: 2486
GlyphClass: 1
Flags: HW
LayerCount: 2
Fore
SplineSet
74 -187 m 2
 157 -187 157 -187 223 -152 c 0
 288 -116 288 -116 325 -23 c 0
 358.390243902 60.9268292683 358.390243902 60.9268292683 358.390243902 208.37656157 c 0,0,0
 358.390243902 224.317073171 358.390243902 224.317073171 358 241 c 2
 354 485 l 2
 354 592 354 592 366 645 c 0
 377 697 377 697 400 713 c 0
 422 728 422 728 457 728 c 2
 480 728 l 1
 480 924 l 1
 457 924 l 2
 404 924 404 924 378 970 c 0
 351.964285714 1014.35714286 351.964285714 1014.35714286 351.964285714 1146.11989796 c 0,0,0
 351.964285714 1151 351.964285714 1151 352 1156 c 2
 354 1331 l 2
 354 1543 354 1543 281 1651 c 0
 207 1757 207 1757 105 1757 c 2
 32 1757 l 1
 32 1580 l 1
 96 1580 l 2
 135 1580 135 1580 163 1527 c 0
 190.129032258 1476.48387097 190.129032258 1476.48387097 190.129032258 1373.45993757 c 0,0,0
 190.129032258 1366.35483871 190.129032258 1366.35483871 190 1359 c 2
 187 1187 l 2
 187 1052 187 1052 217 963 c 0
 248 872 248 872 299 826 c 1
 251 787 251 787 220 696 c 0
 189.96875 606.875 189.96875 606.875 189.96875 457.6875 c 0,0,0
 189.96875 452.875 189.96875 452.875 190 448 c 2
 192 243 l 2
 192 99 192 99 165 43 c 0
 138 -13 138 -13 87 -13 c 2
 34 -13 l 1
 34 -187 l 1
 74 -187 l 2
EndSplineSet
EndChar

StartChar: bracketleft
Encoding: 91 91 560
Width: 465
VWidth: 2516
GlyphClass: 1
Flags: HW
LayerCount: 2
Fore
SplineSet
32 -142 m 1,0,-1
 32 1711 l 1,1,-1
 430 1711 l 1,2,-1
 430 1513 l 1,3,-1
 208 1513 l 1,4,-1
 208 48 l 1,5,-1
 433 48 l 1,6,-1
 433 -142 l 1,7,-1
 32 -142 l 1,0,-1
EndSplineSet
EndChar

StartChar: bracketright
Encoding: 93 93 561
Width: 465
VWidth: 2516
GlyphClass: 1
Flags: HW
LayerCount: 2
Fore
SplineSet
433 -142 m 1
 433 1711 l 1
 34 1711 l 1
 34 1513 l 1
 256 1513 l 1
 256 48 l 1
 32 48 l 1
 32 -142 l 1
 433 -142 l 1
EndSplineSet
EndChar

StartChar: hyphen
Encoding: 45 45 562
Width: 426
VWidth: 2441
GlyphClass: 1
Flags: HW
LayerCount: 2
Fore
SplineSet
32 681 m 1,0,-1
 32 876 l 1,1,-1
 394 876 l 1,2,-1
 394 681 l 1,3,-1
 32 681 l 1,0,-1
EndSplineSet
EndChar

StartChar: endash
Encoding: 8211 8211 564
Width: 512
VWidth: 2441
GlyphClass: 1
Flags: HW
LayerCount: 2
Fore
SplineSet
32 681 m 1,0,-1
 32 876 l 1,1,-1
 480 876 l 1,2,-1
 480 681 l 1,3,-1
 32 681 l 1,0,-1
EndSplineSet
EndChar

StartChar: emdash
Encoding: 8212 8212 565
Width: 440
VWidth: 2441
GlyphClass: 1
Flags: HW
LayerCount: 2
Fore
SplineSet
-15 681 m 1,0,-1
 -15 876 l 1,1,-1
 433 876 l 1,2,-1
 433 681 l 1,3,-1
 -15 681 l 1,0,-1
EndSplineSet
EndChar

StartChar: underscore
Encoding: 95 95 569
Width: 507
VWidth: 2441
GlyphClass: 1
Flags: HW
LayerCount: 2
Fore
SplineSet
29 -240 m 1,0,-1
 29 -49 l 1,1,-1
 477 -49 l 1,2,-1
 477 -240 l 1,3,-1
 29 -240 l 1,0,-1
EndSplineSet
EndChar

StartChar: quotedblleft
Encoding: 8220 8220 572
Width: 515
VWidth: 2441
GlyphClass: 1
Flags: HW
LayerCount: 2
Fore
SplineSet
168 1558 m 1,0,-1
 252 1479 l 1,1,2
 217 1413 217 1413 193.5 1346 c 128,-1,3
 170 1279 170 1279 170 1221 c 0,4,5
 170 1186 170 1186 182.5 1163 c 128,-1,6
 195 1140 195 1140 207 1113 c 128,-1,7
 219 1086 219 1086 219 1045 c 0,8,9
 219 984 219 984 192.5 946 c 128,-1,10
 166 908 166 908 130 908 c 0,11,12
 93 908 93 908 62.5 947 c 128,-1,13
 32 986 32 986 32 1065 c 0,14,15
 32 1175 32 1175 64 1292 c 128,-1,16
 96 1409 96 1409 168 1558 c 1,0,-1
398 1558 m 1,17,-1
 480 1479 l 1,18,19
 445 1413 445 1413 422.5 1346 c 128,-1,20
 400 1279 400 1279 400 1221 c 0,21,22
 400 1186 400 1186 412.5 1163 c 128,-1,23
 425 1140 425 1140 437.5 1113 c 128,-1,24
 450 1086 450 1086 450 1045 c 0,25,26
 450 984 450 984 423 946 c 128,-1,27
 396 908 396 908 360 908 c 0,28,29
 323 908 323 908 292.5 947 c 128,-1,30
 262 986 262 986 262 1065 c 0,31,32
 262 1175 262 1175 294 1292 c 128,-1,33
 326 1409 326 1409 398 1558 c 1,17,-1
EndSplineSet
EndChar

StartChar: quoteleft
Encoding: 8216 8216 574
Width: 343
VWidth: 2441
GlyphClass: 1
Flags: HW
LayerCount: 2
Fore
SplineSet
202 1558 m 1,0,-1
 311 1479 l 1,1,2
 267 1413 267 1413 237.5 1346 c 128,-1,3
 208 1279 208 1279 208 1221 c 0,4,5
 208 1186 208 1186 223.5 1163 c 128,-1,6
 239 1140 239 1140 254 1113 c 128,-1,7
 269 1086 269 1086 269 1045 c 0,8,9
 269 984 269 984 234.5 946 c 128,-1,10
 200 908 200 908 157 908 c 0,11,12
 111 908 111 908 71.5 947 c 128,-1,13
 32 986 32 986 32 1065 c 0,14,15
 32 1175 32 1175 71.5 1292 c 128,-1,16
 111 1409 111 1409 202 1558 c 1,0,-1
EndSplineSet
EndChar

StartChar: quoteright
Encoding: 8217 8217 575
Width: 342
VWidth: 2441
GlyphClass: 1
Flags: HW
LayerCount: 2
Fore
SplineSet
139 908 m 1,0,-1
 32 986 l 1,1,2
 76 1049 76 1049 105.5 1117.5 c 128,-1,3
 135 1186 135 1186 135 1245 c 0,4,5
 135 1280 135 1280 118.5 1303 c 128,-1,6
 102 1326 102 1326 88 1352.5 c 128,-1,7
 74 1379 74 1379 74 1421 c 0,8,9
 74 1482 74 1482 108 1520 c 128,-1,10
 142 1558 142 1558 186 1558 c 0,11,12
 232 1558 232 1558 271 1518.5 c 128,-1,13
 310 1479 310 1479 310 1402 c 0,14,15
 310 1292 310 1292 270 1173.5 c 128,-1,16
 230 1055 230 1055 139 908 c 1,0,-1
EndSplineSet
EndChar

StartChar: guillemotleft
Encoding: 171 171 576
Width: 519
VWidth: 2441
GlyphClass: 1
Flags: HW
LayerCount: 2
Fore
SplineSet
401 114 m 1,0,-1
 230 554 l 1,1,-1
 230 634 l 1,2,-1
 396 1020 l 1,3,-1
 474 881 l 1,4,-1
 346 591 l 1,5,-1
 480 244 l 1,6,-1
 401 114 l 1,0,-1
205 114 m 1,7,-1
 32 554 l 1,8,-1
 32 634 l 1,9,-1
 201 1020 l 1,10,-1
 273 888 l 1,11,-1
 152 591 l 1,12,-1
 281 242 l 1,13,-1
 205 114 l 1,7,-1
EndSplineSet
EndChar

StartChar: guilsinglleft
Encoding: 8249 8249 578
Width: 376
VWidth: 2441
GlyphClass: 1
Flags: HW
LayerCount: 2
Fore
SplineSet
237 105 m 1,0,-1
 32 545 l 1,1,-1
 32 627 l 1,2,-1
 232 1016 l 1,3,-1
 337 867 l 1,4,-1
 198 583 l 1,5,-1
 344 254 l 1,6,-1
 237 105 l 1,0,-1
EndSplineSet
EndChar

StartChar: guilsinglright
Encoding: 8250 8250 579
Width: 374
VWidth: 2441
GlyphClass: 1
Flags: HW
LayerCount: 2
Fore
SplineSet
137 105 m 1,0,-1
 32 254 l 1,1,-1
 177 583 l 1,2,-1
 37 867 l 1,3,-1
 142 1016 l 1,4,-1
 342 627 l 1,5,-1
 342 545 l 1,6,-1
 137 105 l 1,0,-1
EndSplineSet
EndChar

StartChar: quotedbl
Encoding: 34 34 580
Width: 474
VWidth: 2441
GlyphClass: 1
Flags: HW
LayerCount: 2
Fore
SplineSet
32 1624 m 1
 198 1624 l 1
 198 1477 198 1477 195 1389 c 0
 193 1301 193 1301 188 1241 c 0
 183 1181 183 1181 177 1127 c 0
 171 1072 171 1072 164 994 c 1
 67 994 l 1
 60 1073 60 1073 52 1127 c 0
 46 1182 46 1182 42 1240 c 0
 37 1298 37 1298 34 1388 c 0
 32 1477 32 1477 32 1624 c 1
276 1624 m 1
 442 1624 l 1
 442 1477 442 1477 440 1389 c 0
 438 1301 438 1301 433 1241 c 0
 428 1181 428 1181 422 1127 c 0
 416 1072 416 1072 408 994 c 1
 310 994 l 1
 303 1073 303 1073 297 1127 c 0
 291 1182 291 1182 286 1240 c 0
 281 1298 281 1298 279 1388 c 0
 276 1477 276 1477 276 1624 c 1
EndSplineSet
Substitution2: "'ss03' Style Set 3 in Latin lookup 37 subtable" quotedbl.ss03
Substitution2: "'aalt' Access All Alternates in Latin lookup 0 subtable" quotedbl.ss03
EndChar

StartChar: quotesingle
Encoding: 39 39 581
Width: 231
VWidth: 2441
GlyphClass: 1
Flags: HW
LayerCount: 2
Fore
SplineSet
32 1624 m 1,0,-1
 199 1624 l 1,1,2
 199 1477 199 1477 196.5 1389.5 c 128,-1,3
 194 1302 194 1302 188.5 1241.5 c 128,-1,4
 183 1181 183 1181 177 1126.5 c 128,-1,5
 171 1072 171 1072 164 994 c 1,6,-1
 67 994 l 1,7,8
 60 1073 60 1073 53.5 1127 c 128,-1,9
 47 1181 47 1181 42 1240 c 128,-1,10
 37 1299 37 1299 34.5 1388 c 128,-1,11
 32 1477 32 1477 32 1624 c 1,0,-1
EndSplineSet
Substitution2: "'ss03' Style Set 3 in Latin lookup 37 subtable" quotesingle.ss03
Substitution2: "'aalt' Access All Alternates in Latin lookup 0 subtable" quotesingle.ss03
EndChar

StartChar: quotesingle.ss03
Encoding: 65574 -1 583
Width: 248
VWidth: 2441
GlyphClass: 1
Flags: HW
LayerCount: 2
Fore
SplineSet
143 986 m 1,0,-1
 32 1004 l 1,1,2
 53 1123 53 1123 60 1206 c 0,3,4
 65.1578947368 1267.15789474 65.1578947368 1267.15789474 65.1578947368 1320.98614958 c 0,5,6
 65.1578947368 1340.21052632 65.1578947368 1340.21052632 64.5 1358.5 c 0,7,8
 62 1428 62 1428 62 1507 c 0,9,10
 62 1565 62 1565 83 1600.5 c 128,-1,11
 104 1636 104 1636 137 1636 c 0,12,13
 172 1636 172 1636 194 1590.5 c 128,-1,14
 216 1545 216 1545 216 1472 c 0,15,16
 216 1416 216 1416 210 1352.5 c 128,-1,17
 204 1289 204 1289 187 1202.5 c 128,-1,18
 170 1116 170 1116 143 986 c 1,0,-1
EndSplineSet
EndChar

StartChar: hyphen_greater.dlig
Encoding: 65575 -1 584
Width: 505
VWidth: 2441
GlyphClass: 1
Flags: HW
LayerCount: 2
Fore
SplineSet
22 681 m 1,0,-1
 22 876 l 1,1,-1
 303 876 l 1,2,-1
 303 681 l 1,3,-1
 22 681 l 1,0,-1
214 114 m 1,4,-1
 214 368 l 1,5,-1
 402 778 l 1,6,-1
 215 1137 l 1,7,-1
 215 1384 l 1,8,-1
 470 848 l 1,9,-1
 470 715 l 1,10,-1
 214 114 l 1,4,-1
EndSplineSet
Ligature2: "'dlig' Discretionary Ligatures in Latin lookup 32 subtable" hyphen greater
EndChar

StartChar: exclam_equal_equal.dlig
Encoding: 65576 -1 585
Width: 457
VWidth: 2410
GlyphClass: 1
Flags: HW
LayerCount: 2
Fore
SplineSet
-4 34 m 1,0,-1
 -4 226 l 1,1,-1
 175 226 l 1,2,-1
 191 480 l 1,3,-1
 50 480 l 1,4,-1
 50 686 l 1,5,-1
 203 686 l 1,6,-1
 219 942 l 1,7,-1
 -4 942 l 1,8,-1
 -4 1134 l 1,9,-1
 231 1134 l 1,10,-1
 248 1414 l 1,11,-1
 292 1373 l 1,12,-1
 277 1134 l 1,13,-1
 444 1134 l 1,14,-1
 444 942 l 1,15,-1
 265 942 l 1,16,-1
 249 686 l 1,17,-1
 390 686 l 1,18,-1
 390 480 l 1,19,-1
 237 480 l 1,20,-1
 221 226 l 1,21,-1
 444 226 l 1,22,-1
 444 34 l 1,23,-1
 209 34 l 1,24,-1
 192 -246 l 1,25,-1
 148 -210 l 1,26,-1
 163 34 l 1,27,-1
 -4 34 l 1,0,-1
EndSplineSet
Ligature2: "'dlig' Discretionary Ligatures in Latin lookup 32 subtable" exclam equal equal
EndChar

StartChar: uni20B5
Encoding: 8373 8373 594
Width: 491
VWidth: 2441
GlyphClass: 2
Flags: HW
AnchorPoint: "Anchor-2" 274 0 basechar 0
AnchorPoint: "Anchor-0" 264 1521 basechar 0
LayerCount: 2
Fore
SplineSet
166 759 m 0,0,1
 166 542 166 542 185.5 413 c 128,-1,2
 205 284 205 284 235 224 c 1,3,-1
 235 1286 l 1,4,5
 205 1235 205 1235 185.5 1110 c 128,-1,6
 166 985 166 985 166 759 c 0,0,1
235 -173 m 1,7,-1
 235 -19 l 1,8,9
 177 -2 177 -2 129.5 76 c 128,-1,10
 82 154 82 154 53 316 c 128,-1,11
 24 478 24 478 22 752 c 0,12,13
 22 1030 22 1030 53 1191.5 c 128,-1,14
 84 1353 84 1353 134.5 1427.5 c 128,-1,15
 185 1502 185 1502 235 1521 c 1,16,-1
 235 1647 l 1,17,-1
 348 1647 l 1,18,-1
 348 1521 l 1,19,20
 392 1502 392 1502 422 1458 c 128,-1,21
 452 1414 452 1414 470 1351 c 1,22,-1
 420 1162 l 1,23,-1
 412 1140 l 1,24,-1
 400 1148 l 1,25,26
 394 1167 394 1167 396 1195 c 0,27,28
 396.25 1198.5 396.25 1198.5 396.25 1202.140625 c 0,29,30
 396.25 1227.625 396.25 1227.625 384 1260 c 0,31,32
 368 1292 368 1292 348 1311 c 1,33,-1
 348 191 l 1,34,35
 371 210 371 210 387.5 244 c 128,-1,36
 404 278 404 278 418 319 c 1,37,-1
 454 135 l 1,38,39
 408 25 408 25 348 -7 c 1,40,-1
 348 -173 l 1,41,-1
 235 -173 l 1,7,-1
EndSplineSet
EndChar

StartChar: cent
Encoding: 162 162 595
Width: 512
VWidth: 2441
GlyphClass: 2
Flags: HW
AnchorPoint: "Anchor-2" 287 105 basechar 0
AnchorPoint: "Anchor-0" 287 1245 basechar 0
LayerCount: 2
Fore
SplineSet
183 671 m 0,0,1
 183 539 183 539 194.5 456 c 128,-1,2
 206 373 206 373 225 327 c 1,3,-1
 267 1053 l 1,4,5
 232 1029 232 1029 207.5 944 c 128,-1,6
 183 859 183 859 183 671 c 0,0,1
310 -179 m 1,7,-1
 198 -179 l 1,8,-1
 212 95 l 1,9,10
 123 134 123 134 77.5 273 c 128,-1,11
 32 412 32 412 32 671 c 0,12,13
 32 888 32 888 66 1018 c 128,-1,14
 100 1148 100 1148 156 1206.5 c 128,-1,15
 212 1265 212 1265 278 1267 c 1,16,-1
 293 1521 l 1,17,-1
 401 1521 l 1,18,-1
 387 1242 l 1,19,20
 450 1203 450 1203 480 1113 c 1,21,-1
 432 952 l 1,22,-1
 426 927 l 1,23,-1
 413 935 l 1,24,25
 407 952 407 952 405.5 975.5 c 128,-1,26
 404 999 404 999 384 1028 c 0,27,28
 380 1033 380 1033 376 1037 c 1,29,-1
 335 263 l 1,30,31
 385 277 385 277 422 359 c 1,32,-1
 467 186 l 1,33,34
 417 91 417 91 324 81 c 1,35,-1
 310 -179 l 1,7,-1
EndSplineSet
EndChar

StartChar: colonmonetary
Encoding: 8353 8353 596
Width: 491
VWidth: 2441
GlyphClass: 2
Flags: HW
AnchorPoint: "Anchor-2" 274 0 basechar 0
AnchorPoint: "Anchor-0" 264 1521 basechar 0
LayerCount: 2
Fore
SplineSet
166 759 m 0,0,1
 166 620 166 620 174 510 c 1,2,-1
 241 1296 l 1,3,4
 209 1247 209 1247 187.5 1121.5 c 128,-1,5
 166 996 166 996 166 759 c 0,0,1
213 286 m 1,6,7
 225 247 225 247 239 219 c 1,8,-1
 331 1323 l 1,9,10
 315 1330 315 1330 299 1330 c 1,11,-1
 213 286 l 1,6,7
118 -173 m 1,12,-1
 137 61 l 1,13,14
 87 140 87 140 55.5 303 c 128,-1,15
 24 466 24 466 22 752 c 0,16,17
 22 978 22 978 43 1126 c 128,-1,18
 64 1274 64 1274 99 1358 c 128,-1,19
 134 1442 134 1442 176 1481.5 c 128,-1,20
 218 1521 218 1521 261 1528 c 1,21,-1
 272 1647 l 1,22,-1
 328 1647 l 1,23,-1
 318 1531 l 1,24,25
 334 1526 334 1526 348 1521 c 1,26,-1
 360 1647 l 1,27,-1
 418 1647 l 1,28,-1
 404 1482 l 1,29,30
 446 1436 446 1436 470 1351 c 1,31,-1
 420 1162 l 1,32,-1
 412 1140 l 1,33,-1
 400 1148 l 1,34,35
 394 1167 394 1167 396 1195 c 0,36,37
 396.25 1198.5 396.25 1198.5 396.25 1202.140625 c 0,38,39
 396.25 1227.625 396.25 1227.625 384 1260 c 1,40,-1
 293 170 l 1,41,42
 297 170 297 170 301 170 c 0,43,44
 337 170 337 170 366.5 213 c 128,-1,45
 396 256 396 256 418 319 c 1,46,-1
 454 135 l 1,47,48
 422 54 422 54 380.5 15 c 128,-1,49
 339 -24 339 -24 277 -24 c 1,50,-1
 266 -173 l 1,51,-1
 207 -173 l 1,52,-1
 218 -12 l 1,53,54
 202 -5 202 -5 189 5 c 1,55,-1
 174 -173 l 1,56,-1
 118 -173 l 1,12,-1
EndSplineSet
EndChar

StartChar: currency
Encoding: 164 164 597
Width: 512
VWidth: 2441
GlyphClass: 1
Flags: HW
LayerCount: 2
Fore
SplineSet
255 647 m 128,-1,1
 294 647 294 647 313 703 c 128,-1,2
 332 759 332 759 332 843 c 0,3,4
 332 926 332 926 313 982.5 c 128,-1,5
 294 1039 294 1039 255 1039 c 0,6,7
 218 1039 218 1039 198 982 c 128,-1,8
 178 925 178 925 178 843 c 0,9,10
 178 760 178 760 197 703.5 c 128,-1,0
 216 647 216 647 255 647 c 128,-1,1
124 368 m 1,11,-1
 32 478 l 1,12,-1
 86 654 l 1,13,14
 73 698 73 698 65 747 c 128,-1,15
 57 796 57 796 57 845 c 0,16,17
 57 896 57 896 64 946.5 c 128,-1,18
 71 997 71 997 86 1035 c 1,19,-1
 32 1209 l 1,20,-1
 124 1321 l 1,21,-1
 165 1189 l 1,22,23
 208.12 1237.02 208.12 1237.02 255.0816 1237.02 c 0,0,0
 256.04 1237.02 256.04 1237.02 257 1237 c 0,24,25
 303 1237 303 1237 345 1191 c 1,26,-1
 386 1321 l 1,27,-1
 478 1216 l 1,28,-1
 423 1045 l 1,29,30
 440 996 440 996 447.5 946 c 128,-1,31
 455 896 455 896 455 845 c 0,32,33
 455 791 455 791 446.5 742.5 c 128,-1,34
 438 694 438 694 426 647 c 1,35,-1
 480 478 l 1,36,-1
 386 368 l 1,37,-1
 347 498 l 1,38,39
 308 449 308 449 257 449 c 0,40,41
 205 449 205 449 165 501 c 1,42,-1
 124 368 l 1,11,-1
EndSplineSet
EndChar

StartChar: dollar
Encoding: 36 36 598
Width: 525
VWidth: 2441
GlyphClass: 1
Flags: HW
LayerCount: 2
Fore
SplineSet
314 205 m 1,0,1
 341 226 341 226 353 286.5 c 128,-1,2
 365 347 365 347 365 432 c 0,3,4
 365 520 365 520 350.5 571 c 128,-1,5
 336 622 336 622 314 640 c 1,6,-1
 314 205 l 1,0,1
204 906 m 1,7,-1
 204 1272 l 1,8,9
 186 1262 186 1262 171 1221.5 c 128,-1,10
 156 1181 156 1181 156 1109 c 0,11,12
 156 1041 156 1041 165.5 989.5 c 128,-1,13
 175 938 175 938 204 906 c 1,7,-1
204 -114 m 1,14,-1
 204 35 l 1,15,16
 151 45 151 45 106 78.5 c 128,-1,17
 61 112 61 112 32 175 c 1,18,-1
 101 352 l 1,19,20
 105 345 105 345 106 328.5 c 128,-1,21
 107 312 107 312 109 303 c 0,22,23
 117 271 117 271 139.5 243 c 128,-1,24
 162 215 162 215 204 200 c 1,25,-1
 204 708 l 1,26,27
 123 771 123 771 79.5 851.5 c 128,-1,28
 36 932 36 932 36 1088 c 0,29,30
 36 1212 36 1212 57.5 1285 c 128,-1,31
 79 1358 79 1358 117.5 1393 c 128,-1,32
 156 1428 156 1428 204 1442 c 1,33,-1
 204 1589 l 1,34,-1
 320 1589 l 1,35,-1
 320 1582 l 2,36,37
 320 1577 320 1577 317 1566.5 c 128,-1,38
 314 1556 314 1556 314 1538 c 2,39,-1
 314 1445 l 1,40,41
 361 1433 361 1433 390.5 1406 c 128,-1,42
 420 1379 420 1379 446 1321 c 1,43,-1
 391 1158 l 1,44,45
 385 1163 385 1163 384 1180 c 128,-1,46
 383 1197 383 1197 379 1209 c 0,47,48
 359 1272 359 1272 314 1279 c 1,49,-1
 314 832 l 1,50,51
 372 786 372 786 409 740 c 128,-1,52
 446 694 446 694 463 624 c 128,-1,53
 480 554 480 554 480 442 c 0,54,55
 480 261 480 261 436.5 162 c 128,-1,56
 393 63 393 63 314 39 c 1,57,-1
 314 -114 l 1,58,-1
 204 -114 l 1,14,-1
EndSplineSet
EndChar

StartChar: dong
Encoding: 8363 8363 599
Width: 512
VWidth: 2441
GlyphClass: 2
Flags: HW
AnchorPoint: "Anchor-4" 341 1333 basechar 0
AnchorPoint: "Anchor-2" 239 261 basechar 0
AnchorPoint: "Anchor-1" 443 1155 basechar 0
AnchorPoint: "Anchor-0" 239 1155 basechar 0
LayerCount: 2
Fore
SplineSet
32 154 m 1,0,-1
 465 154 l 1,1,-1
 465 0 l 1,2,-1
 32 0 l 1,3,-1
 32 154 l 1,0,-1
222 393 m 0,4,5
 303 393 303 393 304 713 c 0,6,7
 304 892 304 892 284 970 c 128,-1,8
 264 1048 264 1048 231 1048 c 0,9,10
 208 1048 208 1048 192 1022.5 c 128,-1,11
 176 997 176 997 168 929.5 c 128,-1,12
 160 862 160 862 160 737 c 0,13,14
 160 598 160 598 168 523.5 c 128,-1,15
 176 449 176 449 191 421 c 128,-1,16
 206 393 206 393 222 393 c 0,4,5
193 242 m 0,17,18
 149 242 149 242 111.5 277 c 128,-1,19
 74 312 74 312 53 414.5 c 128,-1,20
 32 517 32 517 32 715 c 0,21,22
 32 908 32 908 52 1010.5 c 128,-1,23
 72 1113 72 1113 108 1152 c 128,-1,24
 144 1191 144 1191 195 1191 c 0,25,26
 286 1191 286 1191 304 1062 c 1,27,-1
 304 1245 l 1,28,-1
 160 1245 l 1,29,-1
 160 1428 l 1,30,-1
 304 1428 l 1,31,-1
 304 1560 l 1,32,-1
 447 1560 l 1,33,-1
 447 1545 l 1,34,35
 429 1528 429 1528 429 1475 c 2,36,-1
 429 1428 l 1,37,-1
 480 1428 l 1,38,-1
 480 1245 l 1,39,-1
 429 1245 l 1,40,-1
 429 401 l 2,41,42
 429 366 429 366 430 331 c 128,-1,43
 431 296 431 296 438 261 c 1,44,-1
 315 261 l 1,45,46
 308 285 308 285 303.5 309 c 128,-1,47
 299 333 299 333 299 366 c 1,48,49
 283 310 283 310 253.5 276 c 128,-1,50
 224 242 224 242 193 242 c 0,17,18
EndSplineSet
EndChar

StartChar: Euro
Encoding: 8364 8364 600
Width: 483
VWidth: 2441
GlyphClass: 1
Flags: HW
LayerCount: 2
Fore
SplineSet
310 -27 m 0,0,1
 253 -27 253 -27 198.5 23 c 128,-1,2
 144 73 144 73 105.5 190.5 c 128,-1,3
 67 308 67 308 57 508 c 1,4,-1
 14 508 l 1,5,-1
 31 699 l 1,6,-1
 51 699 l 1,7,8
 51 729 51 729 52.5 771 c 128,-1,9
 54 813 54 813 54 845 c 1,10,-1
 14 845 l 1,11,-1
 31 1035 l 1,12,-1
 63 1035 l 1,13,14
 78 1223 78 1223 120 1331.5 c 128,-1,15
 162 1440 162 1440 215.5 1486.5 c 128,-1,16
 269 1533 269 1533 316 1533 c 0,17,18
 425 1533 425 1533 462 1451 c 1,19,-1
 435 1274 l 1,20,21
 420 1274 420 1274 411.5 1291.5 c 128,-1,22
 403 1309 403 1309 386 1324.5 c 128,-1,23
 369 1340 369 1340 328 1340 c 0,24,25
 285 1340 285 1340 254.5 1269.5 c 128,-1,26
 224 1199 224 1199 209 1035 c 1,27,-1
 395 1035 l 1,28,-1
 365 845 l 1,29,-1
 199 845 l 1,30,31
 197 813 197 813 197 773.5 c 128,-1,32
 197 734 197 734 197 699 c 1,33,-1
 344 699 l 1,34,-1
 314 508 l 1,35,-1
 203 508 l 1,36,37
 209 354 209 354 239 263.5 c 128,-1,38
 269 173 269 173 330 173 c 128,-1,39
 391 173 391 173 423 235 c 1,40,-1
 458 54 l 1,41,42
 428 8 428 8 389 -9.5 c 128,-1,43
 350 -27 350 -27 310 -27 c 0,0,1
EndSplineSet
EndChar

StartChar: florin
Encoding: 402 402 601
Width: 464
VWidth: 2370
GlyphClass: 1
Flags: HW
LayerCount: 2
Fore
SplineSet
87 -246 m 0,0,1
 60 -246 60 -246 35.5 -235 c 128,-1,2
 11 -224 11 -224 -3 -199 c 1,3,-1
 28 1 l 1,4,5
 34 -6 34 -6 38.5 -25 c 128,-1,6
 43 -44 43 -44 70 -44 c 0,7,8
 92 -44 92 -44 101 13 c 128,-1,9
 110 70 110 70 114 203 c 2,10,-1
 135 847 l 1,11,-1
 57 847 l 1,12,-1
 57 1021 l 1,13,-1
 139 1021 l 1,14,-1
 145 1202 l 2,15,16
 151 1378 151 1378 174.5 1474 c 128,-1,17
 198 1570 198 1570 238.5 1606.5 c 128,-1,18
 279 1643 279 1643 333 1643 c 0,19,20
 402 1643 402 1643 445 1565 c 1,21,-1
 411 1349 l 1,22,23
 405 1349 405 1349 401 1371 c 0,24,25
 392.109756098 1451.01219512 392.109756098 1451.01219512 347.116448543 1451.01219512 c 0,0,0
 346.56097561 1451.01219512 346.56097561 1451.01219512 346 1451 c 0,26,27
 319 1451 319 1451 307.5 1392.5 c 128,-1,28
 296 1334 296 1334 291 1179 c 2,29,-1
 284 1021 l 1,30,-1
 361 1021 l 1,31,-1
 361 847 l 1,32,-1
 279 847 l 1,33,-1
 256 197 l 2,34,35
 252 21 252 21 228 -76 c 128,-1,36
 204 -173 204 -173 167.5 -209.5 c 128,-1,37
 131 -246 131 -246 87 -246 c 0,0,1
EndSplineSet
EndChar

StartChar: uni20B2
Encoding: 8370 8370 603
Width: 485
VWidth: 2441
GlyphClass: 1
Flags: HW
LayerCount: 2
Fore
SplineSet
141 778 m 0,0,1
 141 554 141 554 159 411 c 128,-1,2
 177 268 177 268 206 207 c 1,3,-1
 206 1314 l 1,4,5
 176 1275 176 1275 158.5 1152.5 c 128,-1,6
 141 1030 141 1030 141 778 c 0,0,1
206 -173 m 1,7,-1
 206 -12 l 1,8,9
 119 32 119 32 67.5 217.5 c 128,-1,10
 16 403 16 403 16 743 c 1,11,12
 20 1034 20 1034 44.5 1199.5 c 128,-1,13
 69 1365 69 1365 112 1439.5 c 128,-1,14
 155 1514 155 1514 206 1531 c 1,15,-1
 206 1647 l 1,16,-1
 293 1647 l 1,17,-1
 293 1535 l 1,18,19
 350 1523 350 1523 390.5 1477 c 128,-1,20
 431 1431 431 1431 452 1367 c 1,21,-1
 409 1186 l 1,22,23
 401 1196 401 1196 392.5 1229 c 128,-1,24
 384 1262 384 1262 361.5 1295 c 128,-1,25
 339 1328 339 1328 293 1338 c 1,26,-1
 293 161 l 1,27,28
 323 173 323 173 359 240 c 1,29,-1
 359 569 l 1,30,-1
 325 569 l 1,31,-1
 325 759 l 1,32,-1
 464 759 l 1,33,-1
 464 135 l 1,34,35
 426 69 426 69 380.5 29.5 c 128,-1,36
 335 -10 335 -10 293 -19 c 1,37,-1
 293 -173 l 1,38,-1
 206 -173 l 1,7,-1
EndSplineSet
EndChar

StartChar: uni20AD
Encoding: 8365 8365 604
Width: 408
VWidth: 2441
GlyphClass: 1
Flags: HW
LayerCount: 2
Fore
SplineSet
162 643 m 1,0,-1
 143 564 l 1,1,-1
 146 0 l 1,2,-1
 17 0 l 1,3,-1
 17 771 l 1,4,-1
 -34 771 l 1,5,-1
 -34 950 l 1,6,-1
 17 950 l 1,7,-1
 17 1521 l 1,8,-1
 162 1521 l 1,9,-1
 162 1504 l 1,10,11
 152 1490 152 1490 149 1473 c 128,-1,12
 146 1456 146 1456 146 1414 c 2,13,-1
 146 939 l 1,14,-1
 275 1533 l 1,15,16
 297 1528 297 1528 328 1524.5 c 128,-1,17
 359 1521 359 1521 377 1521 c 2,18,-1
 400 1521 l 1,19,-1
 268 950 l 1,20,-1
 380 950 l 1,21,-1
 380 771 l 1,22,-1
 254 771 l 1,23,-1
 414 0 l 1,24,-1
 282 -12 l 1,25,-1
 162 643 l 1,0,-1
EndSplineSet
EndChar

StartChar: uni20BA
Encoding: 8378 8378 606
Width: 501
VWidth: 2441
GlyphClass: 1
Flags: HW
LayerCount: 2
Fore
SplineSet
88 0 m 1,0,-1
 88 652 l 1,1,-1
 24 596 l 1,2,-1
 24 747 l 1,3,-1
 88 803 l 1,4,-1
 88 945 l 1,5,-1
 24 888 l 1,6,-1
 24 1039 l 1,7,-1
 88 1097 l 1,8,-1
 88 1521 l 1,9,-1
 234 1521 l 1,10,11
 234 1497 234 1497 228.5 1487 c 128,-1,12
 223 1477 223 1477 223 1438 c 2,13,-1
 223 1211 l 1,14,-1
 367 1333 l 1,15,-1
 367 1181 l 1,16,-1
 223 1060 l 1,17,-1
 223 918 l 1,18,-1
 367 1039 l 1,19,-1
 367 888 l 1,20,-1
 223 767 l 1,21,-1
 223 193 l 1,22,23
 292 193 292 193 322.5 270 c 128,-1,24
 353 347 353 347 353 561 c 1,25,-1
 472 561 l 1,26,27
 472 337 472 337 442 215 c 128,-1,28
 412 93 412 93 347.5 46.5 c 128,-1,29
 283 0 283 0 179 0 c 2,30,-1
 88 0 l 1,0,-1
EndSplineSet
EndChar

StartChar: uni20BC
Encoding: 8380 8380 607
Width: 515
VWidth: 2441
GlyphClass: 1
Flags: HW
LayerCount: 2
Fore
SplineSet
201 242 m 1,0,-1
 201 1225 l 1,1,2
 168 1193 168 1193 155 1109 c 128,-1,3
 142 1025 142 1025 142 876 c 2,4,-1
 142 79 l 2,5,6
 142 47 142 47 146 30.5 c 128,-1,7
 150 14 150 14 150 0 c 1,8,-1
 32 0 l 1,9,-1
 32 874 l 2,10,11
 32 1065 32 1065 52.5 1178 c 128,-1,12
 73 1291 73 1291 111.5 1347.5 c 128,-1,13
 150 1404 150 1404 201 1419 c 1,14,-1
 201 1624 l 1,15,-1
 309 1624 l 1,16,-1
 309 1419 l 1,17,18
 358 1402 358 1402 397.5 1344 c 128,-1,19
 437 1286 437 1286 458.5 1171.5 c 128,-1,20
 480 1057 480 1057 480 867 c 2,21,-1
 480 0 l 1,22,-1
 374 0 l 1,23,-1
 374 869 l 2,24,25
 374 1025 374 1025 359 1112 c 128,-1,26
 344 1199 344 1199 309 1228 c 1,27,-1
 309 242 l 1,28,-1
 201 242 l 1,0,-1
EndSplineSet
EndChar

StartChar: uni20A6
Encoding: 8358 8358 608
Width: 445
VWidth: 2441
GlyphClass: 2
Flags: HW
AnchorPoint: "Anchor-2" 211 0 basechar 0
AnchorPoint: "Anchor-0" 211 1521 basechar 0
LayerCount: 2
Fore
SplineSet
285 627 m 1,0,-1
 285 638 l 1,1,-1
 283 638 l 1,2,-1
 285 627 l 1,0,-1
138 962 m 1,3,-1
 138 806 l 1,4,-1
 164 806 l 1,5,-1
 138 962 l 1,3,-1
-11 638 m 1,6,-1
 -11 806 l 1,7,-1
 30 806 l 1,8,-1
 30 1521 l 1,9,-1
 138 1521 l 1,10,-1
 254 806 l 1,11,-1
 285 806 l 1,12,-1
 285 1521 l 1,13,-1
 403 1521 l 1,14,-1
 403 1504 l 1,15,16
 392 1490 392 1490 390 1473 c 128,-1,17
 388 1456 388 1456 388 1414 c 2,18,-1
 388 806 l 1,19,-1
 437 806 l 1,20,-1
 437 638 l 1,21,-1
 388 638 l 1,22,-1
 388 0 l 1,23,-1
 297 0 l 1,24,-1
 193 638 l 1,25,-1
 138 638 l 1,26,-1
 138 0 l 1,27,-1
 30 0 l 1,28,-1
 30 638 l 1,29,-1
 -11 638 l 1,6,-1
EndSplineSet
EndChar

StartChar: peseta
Encoding: 8359 8359 609
Width: 453
VWidth: 2441
GlyphClass: 1
Flags: HW
LayerCount: 2
Fore
SplineSet
206 -30 m 0,0,1
 157 -30 157 -30 140 37.5 c 128,-1,2
 125.55 94.875 125.55 94.875 125.55 239.31125 c 0,0,0
 125.55 264.8 125.55 264.8 126 293 c 2,3,-1
 132 494 l 1,4,-1
 96 494 l 1,5,-1
 101 632 l 1,6,-1
 134 632 l 1,7,-1
 134 745 l 1,8,-1
 210 769 l 1,9,-1
 228 774 l 1,10,-1
 232 757 l 1,11,12
 223 740 223 740 216.5 721.5 c 128,-1,13
 210 703 210 703 210 662 c 2,14,-1
 210 632 l 1,15,-1
 248 632 l 1,16,-1
 240 494 l 1,17,-1
 208 494 l 1,18,-1
 202 310 l 2,19,20
 200 250.5 200 250.5 200 210 c 0,0,0
 200 169.5 200 169.5 202 148 c 128,-1,21
 206 105 206 105 224 105 c 0,22,23
 235 105 235 105 248 119 c 1,24,-1
 262 210 l 1,25,-1
 266 230 l 1,26,-1
 273 226 l 1,27,28
 279 212 279 212 276 192.5 c 128,-1,29
 273 173 273 173 282 151 c 0,30,31
 303 93 303 93 333 93 c 0,32,33
 348 93 348 93 358.5 117.5 c 128,-1,34
 369 142 369 142 369 170 c 0,35,36
 369 197 369 197 362.5 222 c 128,-1,37
 356 247 356 247 329 271 c 0,38,39
 291 306 291 306 272 352 c 128,-1,40
 253 398 253 398 253 473 c 0,41,42
 253 556 253 556 280.5 601.5 c 128,-1,43
 308 647 308 647 348 647 c 0,44,45
 404 647 404 647 439 566 c 1,46,-1
 403 461 l 1,47,-1
 396 440 l 1,48,-1
 389 442 l 1,49,50
 389 459 389 459 390 472.5 c 128,-1,51
 391 486 391 486 384 501 c 0,52,53
 369 520 369 520 351 520 c 0,54,55
 336 520 336 520 329 505.5 c 128,-1,56
 322 491 322 491 322 468 c 0,57,58
 322 419 322 419 361 384 c 0,59,60
 405 340 405 340 423 294.5 c 128,-1,61
 441 249 441 249 441 179 c 0,62,63
 441 84 441 84 410.5 24.5 c 128,-1,64
 380 -35 380 -35 336 -35 c 0,65,66
 294 -35 294 -35 262 14 c 1,67,68
 238 -30 238 -30 206 -30 c 0,0,1
94 918 m 2,69,70
 162 918 162 918 162 1153 c 0,71,72
 162 1246 162 1246 149 1304.5 c 128,-1,73
 136 1363 136 1363 94 1363 c 2,74,-1
 88 1363 l 1,75,-1
 88 918 l 1,76,-1
 94 918 l 2,69,70
-7 1521 m 1,77,-1
 90 1521 l 2,78,79
 148 1521 148 1521 186 1471 c 128,-1,80
 224 1421 224 1421 242.5 1338 c 128,-1,81
 261 1255 261 1255 261 1158 c 0,82,83
 261 995 261 995 221 882 c 128,-1,84
 181 769 181 769 94 769 c 2,85,-1
 88 769 l 1,86,-1
 88 0 l 1,87,-1
 -7 0 l 1,88,-1
 -7 1521 l 1,77,-1
EndSplineSet
EndChar

StartChar: uni20B1
Encoding: 8369 8369 610
Width: 431
VWidth: 2441
GlyphClass: 2
Flags: HW
AnchorPoint: "Anchor-2" 73 0 basechar 0
AnchorPoint: "Anchor-0" 201 1521 basechar 0
LayerCount: 2
Fore
SplineSet
144 825 m 1,0,-1
 192 825 l 2,1,2
 238 825 238 825 260 935 c 1,3,-1
 144 935 l 1,4,-1
 144 825 l 1,0,-1
271 1074 m 0,5,6
 271 1095 271 1095 269 1116 c 1,7,-1
 144 1116 l 1,8,-1
 144 1039 l 1,9,-1
 269 1039 l 2,10,11
 271 1041 271 1041 271 1048 c 128,-1,12
 271 1055 271 1055 271 1074 c 0,5,6
144 1328 m 1,13,-1
 144 1221 l 1,14,-1
 260 1221 l 1,15,16
 239 1328 239 1328 192 1328 c 2,17,-1
 144 1328 l 1,13,-1
10 0 m 1,18,-1
 10 925 l 1,19,-1
 -18 925 l 1,20,-1
 -18 1039 l 1,21,-1
 10 1039 l 1,22,-1
 10 1106 l 1,23,-1
 -18 1106 l 1,24,-1
 -18 1221 l 1,25,-1
 10 1221 l 1,26,-1
 10 1521 l 1,27,-1
 197 1521 l 2,28,29
 280 1521 280 1521 331 1447.5 c 128,-1,30
 382 1374 382 1374 397 1221 c 1,31,-1
 430 1221 l 1,32,-1
 430 1106 l 1,33,-1
 402 1106 l 1,34,35
 402 1094 402 1094 402 1079 c 0,36,37
 402 1060 402 1060 402 1039 c 1,38,-1
 430 1039 l 1,39,-1
 430 925 l 1,40,-1
 393 925 l 1,41,42
 372 786 372 786 320.5 709 c 128,-1,43
 269 632 269 632 202 632 c 2,44,-1
 144 632 l 1,45,-1
 144 0 l 1,46,-1
 10 0 l 1,18,-1
EndSplineSet
EndChar

StartChar: uni20BD
Encoding: 8381 8381 611
Width: 472
VWidth: 2441
GlyphClass: 2
Flags: HW
AnchorPoint: "Anchor-2" 107 0 basechar 0
AnchorPoint: "Anchor-0" 241 1521 basechar 0
LayerCount: 2
Fore
SplineSet
181 825 m 1,0,-1
 231 825 l 2,1,2
 266 825 266 825 290.5 891 c 128,-1,3
 315 957 315 957 315 1074 c 0,4,5
 315 1209 315 1209 290.5 1268.5 c 128,-1,6
 266 1328 266 1328 231 1328 c 2,7,-1
 181 1328 l 1,8,-1
 181 825 l 1,0,-1
41 0 m 1,9,-1
 41 305 l 1,10,-1
 4 305 l 1,11,-1
 4 496 l 1,12,-1
 41 496 l 1,13,-1
 41 632 l 1,14,-1
 4 632 l 1,15,-1
 4 825 l 1,16,-1
 41 825 l 1,17,-1
 41 1521 l 1,18,-1
 237 1521 l 2,19,20
 342 1521 342 1521 397 1415 c 128,-1,21
 452 1309 452 1309 452 1079 c 0,22,23
 452 869 452 869 391 750.5 c 128,-1,24
 330 632 330 632 243 632 c 2,25,-1
 181 632 l 1,26,-1
 181 496 l 1,27,-1
 294 496 l 1,28,-1
 291 305 l 1,29,-1
 181 305 l 1,30,-1
 181 0 l 1,31,-1
 41 0 l 1,9,-1
EndSplineSet
EndChar

StartChar: uni20B9
Encoding: 8377 8377 612
Width: 512
VWidth: 2441
GlyphClass: 1
Flags: HW
LayerCount: 2
Fore
SplineSet
32 845 m 1,0,-1
 153 845 l 2,1,2
 202 845 202 845 228 881.5 c 128,-1,3
 254 918 254 918 263 983 c 1,4,-1
 32 983 l 1,5,-1
 32 1148 l 1,6,-1
 263 1148 l 1,7,8
 256 1221 256 1221 229 1262.5 c 128,-1,9
 202 1304 202 1304 153 1304 c 2,10,-1
 32 1304 l 1,11,-1
 32 1519 l 1,12,-1
 480 1519 l 1,13,-1
 480 1360 l 1,14,-1
 341 1360 l 1,15,16
 399 1279 399 1279 416 1148 c 1,17,-1
 480 1148 l 1,18,-1
 480 983 l 1,19,-1
 420 983 l 1,20,21
 411 869 411 869 369.5 787.5 c 128,-1,22
 328 706 328 706 275 669 c 1,23,-1
 437 0 l 1,24,-1
 275 0 l 1,25,-1
 128 632 l 1,26,-1
 32 632 l 1,27,-1
 32 845 l 1,0,-1
EndSplineSet
EndChar

StartChar: sterling
Encoding: 163 163 613
Width: 493
VWidth: 2441
GlyphClass: 1
Flags: HW
LayerCount: 2
Fore
SplineSet
72 -19 m 1,0,-1
 22 159 l 1,1,2
 64 208 64 208 82.5 252 c 128,-1,3
 101 296 101 296 105.5 361.5 c 128,-1,4
 110 427 110 427 110 542 c 0,5,6
 110 588 110 588 107.5 643.5 c 128,-1,7
 105 699 105 699 99 759 c 1,8,-1
 40 759 l 1,9,-1
 40 950 l 1,10,-1
 80 950 l 1,11,12
 78 985 78 985 76 1021 c 128,-1,13
 74 1057 74 1057 74 1094 c 0,14,15
 74 1326 74 1326 136.5 1423.5 c 128,-1,16
 199 1521 199 1521 281 1521 c 0,17,18
 317 1521 317 1521 360.5 1492 c 128,-1,19
 404 1463 404 1463 428 1407 c 1,20,-1
 368 1242 l 1,21,22
 352 1281 352 1281 338 1304.5 c 128,-1,23
 324 1328 324 1328 291 1328 c 0,24,25
 255 1328 255 1328 236.5 1267 c 128,-1,26
 218 1206 218 1206 217 1097 c 0,27,28
 217 1065 217 1065 218.5 1028 c 128,-1,29
 220 991 220 991 223 950 c 1,30,-1
 320 950 l 1,31,-1
 320 759 l 1,32,-1
 243 759 l 1,33,34
 247 701 247 701 250 648.5 c 128,-1,35
 253 596 253 596 253 547 c 0,36,37
 253 454 253 454 250 383 c 128,-1,38
 247 312 247 312 231 244 c 1,39,40
 259 249 259 249 280 228 c 128,-1,41
 301 207 301 207 321 185 c 128,-1,42
 341 163 341 163 368 163 c 0,43,44
 416 163 416 163 446 210 c 1,45,-1
 470 27 l 1,46,47
 430 -36 430 -36 366 -37 c 0,48,49
 330 -37 330 -37 296.5 -9 c 128,-1,50
 263 19 263 19 232 46 c 128,-1,51
 201 73 201 73 172 73 c 0,52,53
 149 73 149 73 126.5 49 c 128,-1,54
 104 25 104 25 72 -19 c 1,0,-1
EndSplineSet
EndChar

StartChar: uni20A9
Encoding: 8361 8361 614
Width: 445
VWidth: 2441
GlyphClass: 2
Flags: HW
AnchorPoint: "Anchor-2" 213 0 basechar 0
AnchorPoint: "Anchor-0" 217 1521 basechar 0
LayerCount: 2
Fore
SplineSet
297 674 m 1,0,-1
 297 708 l 1,1,-1
 294 708 l 1,2,-1
 297 674 l 1,0,-1
138 676 m 1,3,-1
 140 708 l 1,4,-1
 136 708 l 1,5,-1
 138 676 l 1,3,-1
84 0 m 1,6,-1
 48 708 l 1,7,-1
 -11 708 l 1,8,-1
 -11 832 l 1,9,-1
 42 832 l 1,10,-1
 6 1521 l 1,11,-1
 107 1521 l 1,12,-1
 132 832 l 1,13,-1
 149 832 l 1,14,-1
 188 1321 l 1,15,-1
 245 1321 l 1,16,-1
 285 832 l 1,17,-1
 301 832 l 1,18,-1
 319 1521 l 1,19,-1
 414 1521 l 1,20,-1
 380 832 l 1,21,-1
 437 832 l 1,22,-1
 437 708 l 1,23,-1
 373 708 l 1,24,-1
 337 0 l 1,25,-1
 275 0 l 1,26,-1
 219 708 l 1,27,-1
 207 708 l 1,28,-1
 151 0 l 1,29,-1
 84 0 l 1,6,-1
EndSplineSet
EndChar

StartChar: yen
Encoding: 165 165 615
Width: 463
VWidth: 2441
GlyphClass: 1
Flags: HW
LayerCount: 2
Fore
SplineSet
301 0 m 1,0,-1
 162 0 l 1,1,-1
 162 273 l 1,2,-1
 55 273 l 1,3,-1
 55 440 l 1,4,-1
 162 440 l 1,5,-1
 162 557 l 1,6,-1
 55 557 l 1,7,-1
 55 725 l 1,8,-1
 156 725 l 1,9,-1
 -1 1521 l 1,10,-1
 140 1521 l 1,11,-1
 230 969 l 1,12,-1
 316 1521 l 1,13,-1
 447 1521 l 1,14,-1
 305 725 l 1,15,-1
 402 725 l 1,16,-1
 402 557 l 1,17,-1
 301 557 l 1,18,-1
 301 440 l 1,19,-1
 402 440 l 1,20,-1
 402 273 l 1,21,-1
 301 273 l 1,22,-1
 301 0 l 1,0,-1
EndSplineSet
EndChar

StartChar: asteriskmath
Encoding: 8727 8727 616
Width: 493
VWidth: 2441
GlyphClass: 1
Flags: HW
LayerCount: 2
Fore
SplineSet
151 303 m 1,0,-1
 36 442 l 1,1,-1
 164 796 l 1,2,-1
 22 879 l 1,3,-1
 68 1111 l 1,4,-1
 191 969 l 1,5,-1
 170 1355 l 1,6,-1
 322 1355 l 1,7,-1
 299 969 l 1,8,-1
 430 1101 l 1,9,-1
 470 879 l 1,10,-1
 314 796 l 1,11,-1
 444 447 l 1,12,-1
 331 303 l 1,13,-1
 243 645 l 1,14,-1
 151 303 l 1,0,-1
EndSplineSet
EndChar

StartChar: uni2215
Encoding: 8725 8725 618
Width: 470
VWidth: 2408
GlyphClass: 1
Flags: HW
LayerCount: 2
Fore
SplineSet
128 -246 m 1,0,-1
 10 -216 l 1,1,-1
 340 1922 l 1,2,-1
 458 1889 l 1,3,-1
 128 -246 l 1,0,-1
EndSplineSet
EndChar

StartChar: element
Encoding: 8712 8712 619
Width: 512
VWidth: 2441
GlyphClass: 1
Flags: HW
LayerCount: 2
Fore
SplineSet
347 -19 m 2,0,1
 194 -19 194 -19 113 124.5 c 128,-1,2
 32 268 32 268 32 550 c 0,3,4
 32 831 32 831 115.5 983 c 128,-1,5
 199 1135 199 1135 345 1135 c 2,6,-1
 480 1135 l 1,7,-1
 480 979 l 1,8,-1
 361 979 l 2,9,10
 255 979 255 979 209 895 c 128,-1,11
 163 811 163 811 157 629 c 1,12,-1
 480 629 l 1,13,-1
 480 473 l 1,14,-1
 157 473 l 1,15,16
 161 292 161 292 206 214.5 c 128,-1,17
 251 137 251 137 361 137 c 2,18,-1
 480 137 l 1,19,-1
 480 -19 l 1,20,-1
 347 -19 l 2,0,1
EndSplineSet
EndChar

StartChar: plus
Encoding: 43 43 621
Width: 512
VWidth: 2441
GlyphClass: 1
Flags: HW
LayerCount: 2
Fore
SplineSet
190 254 m 1,0,-1
 190 683 l 1,1,-1
 32 683 l 1,2,-1
 32 886 l 1,3,-1
 190 886 l 1,4,-1
 190 1277 l 1,5,-1
 330 1277 l 1,6,-1
 330 886 l 1,7,-1
 480 886 l 1,8,-1
 480 683 l 1,9,-1
 330 683 l 1,10,-1
 330 254 l 1,11,-1
 190 254 l 1,0,-1
EndSplineSet
EndChar

StartChar: minus
Encoding: 8722 8722 622
Width: 512
VWidth: 2441
GlyphClass: 1
Flags: HW
LayerCount: 2
Fore
SplineSet
32 683 m 1,0,-1
 32 886 l 1,1,-1
 480 886 l 1,2,-1
 480 683 l 1,3,-1
 32 683 l 1,0,-1
EndSplineSet
Substitution2: "'sups' Superscript in Latin lookup 20 subtable" uni207B
Substitution2: "'aalt' Access All Alternates in Latin lookup 0 subtable" uni207B
EndChar

StartChar: multiply
Encoding: 215 215 623
Width: 512
VWidth: 2441
GlyphClass: 1
Flags: HW
LayerCount: 2
Fore
SplineSet
371 335 m 1,0,-1
 251 640 l 1,1,-1
 135 347 l 1,2,-1
 32 489 l 1,3,-1
 167 820 l 1,4,-1
 32 1160 l 1,5,-1
 139 1304 l 1,6,-1
 253 1006 l 1,7,-1
 371 1302 l 1,8,-1
 480 1165 l 1,9,-1
 338 823 l 1,10,-1
 475 484 l 1,11,-1
 371 335 l 1,0,-1
EndSplineSet
EndChar

StartChar: divide
Encoding: 247 247 624
Width: 512
VWidth: 2441
GlyphClass: 1
Flags: HW
LayerCount: 2
Fore
SplineSet
258 259 m 0,0,1
 223 259 223 259 197.5 288 c 128,-1,2
 172 317 172 317 172 356 c 0,3,4
 172 398 172 398 197.5 428.5 c 128,-1,5
 223 459 223 459 258 459 c 0,6,7
 296 459 296 459 321.5 428.5 c 128,-1,8
 347 398 347 398 347 356 c 0,9,10
 347 317 347 317 321.5 288 c 128,-1,11
 296 259 296 259 258 259 c 0,0,1
32 666 m 1,12,-1
 32 869 l 1,13,-1
 480 869 l 1,14,-1
 480 666 l 1,15,-1
 32 666 l 1,12,-1
258 1065 m 0,16,17
 223 1065 223 1065 197.5 1093 c 128,-1,18
 172 1121 172 1121 172 1162 c 0,19,20
 172 1204 172 1204 197.5 1234.5 c 128,-1,21
 223 1265 223 1265 258 1265 c 0,22,23
 296 1265 296 1265 321.5 1233.5 c 128,-1,24
 347 1202 347 1202 347 1162 c 0,25,26
 347 1120 347 1120 321.5 1092.5 c 128,-1,27
 296 1065 296 1065 258 1065 c 0,16,17
EndSplineSet
EndChar

StartChar: equal
Encoding: 61 61 625
Width: 512
VWidth: 2441
GlyphClass: 1
Flags: HW
LayerCount: 2
Fore
SplineSet
32 422 m 1,0,-1
 32 617 l 1,1,-1
 480 617 l 1,2,-1
 480 422 l 1,3,-1
 32 422 l 1,0,-1
32 927 m 1,4,-1
 32 1123 l 1,5,-1
 480 1123 l 1,6,-1
 480 927 l 1,7,-1
 32 927 l 1,4,-1
EndSplineSet
EndChar

StartChar: notequal
Encoding: 8800 8800 626
Width: 512
VWidth: 2441
GlyphClass: 1
Flags: HW
LayerCount: 2
Fore
SplineSet
32 422 m 1,0,-1
 32 617 l 1,1,-1
 157 617 l 1,2,-1
 223 927 l 1,3,-1
 32 927 l 1,4,-1
 32 1123 l 1,5,-1
 267 1123 l 1,6,-1
 340 1458 l 1,7,-1
 454 1396 l 1,8,-1
 394 1123 l 1,9,-1
 480 1123 l 1,10,-1
 480 927 l 1,11,-1
 353 927 l 1,12,-1
 284 617 l 1,13,-1
 480 617 l 1,14,-1
 480 422 l 1,15,-1
 243 422 l 1,16,-1
 170 88 l 1,17,-1
 54 147 l 1,18,-1
 114 422 l 1,19,-1
 32 422 l 1,0,-1
EndSplineSet
EndChar

StartChar: greater
Encoding: 62 62 627
Width: 512
VWidth: 2441
GlyphClass: 1
Flags: HW
LayerCount: 2
Fore
SplineSet
32 114 m 1,0,-1
 32 373 l 1,1,-1
 337 778 l 1,2,-1
 34 1137 l 1,3,-1
 34 1384 l 1,4,-1
 480 848 l 1,5,-1
 480 715 l 1,6,-1
 32 114 l 1,0,-1
EndSplineSet
EndChar

StartChar: less
Encoding: 60 60 628
Width: 512
VWidth: 2441
GlyphClass: 1
Flags: HW
LayerCount: 2
Fore
SplineSet
480 114 m 1,0,-1
 32 715 l 1,1,-1
 32 848 l 1,2,-1
 478 1384 l 1,3,-1
 478 1137 l 1,4,-1
 175 778 l 1,5,-1
 480 373 l 1,6,-1
 480 114 l 1,0,-1
EndSplineSet
EndChar

StartChar: lessequal
Encoding: 8804 8804 630
Width: 511
VWidth: 2441
GlyphClass: 1
Flags: HW
LayerCount: 2
Fore
SplineSet
45 56 m 1,0,-1
 45 249 l 1,1,-1
 479 249 l 1,2,-1
 479 56 l 1,3,-1
 45 56 l 1,0,-1
479 324 m 1,4,-1
 31 789 l 1,5,-1
 31 930 l 1,6,-1
 479 1402 l 1,7,-1
 479 1174 l 1,8,-1
 158 859 l 1,9,-1
 479 557 l 1,10,-1
 479 324 l 1,4,-1
EndSplineSet
EndChar

StartChar: plusminus
Encoding: 177 177 631
Width: 512
VWidth: 2441
GlyphClass: 1
Flags: HW
LayerCount: 2
Fore
SplineSet
32 12 m 1,0,-1
 32 224 l 1,1,-1
 480 224 l 1,2,-1
 480 12 l 1,3,-1
 32 12 l 1,0,-1
187 376 m 1,4,-1
 187 803 l 1,5,-1
 34 803 l 1,6,-1
 34 1013 l 1,7,-1
 187 1013 l 1,8,-1
 187 1402 l 1,9,-1
 333 1402 l 1,10,-1
 333 1013 l 1,11,-1
 478 1013 l 1,12,-1
 478 803 l 1,13,-1
 333 803 l 1,14,-1
 333 376 l 1,15,-1
 187 376 l 1,4,-1
EndSplineSet
EndChar

StartChar: asciitilde
Encoding: 126 126 633
Width: 512
VWidth: 2441
GlyphClass: 1
Flags: HW
LayerCount: 2
Fore
SplineSet
355 620 m 0,0,1
 312 620 312 620 285 654.5 c 128,-1,2
 258 689 258 689 237.5 722 c 128,-1,3
 217 755 217 755 198 755 c 0,4,5
 176 755 176 755 156 722 c 128,-1,6
 136 689 136 689 121 643 c 1,7,-1
 32 759 l 1,8,9
 50 827 50 827 87.5 893.5 c 128,-1,10
 125 960 125 960 175 960 c 128,-1,11
 225 960 225 960 252.5 927 c 128,-1,12
 280 894 280 894 297 860.5 c 128,-1,13
 314 827 314 827 334 827 c 128,-1,14
 354 827 354 827 368 857.5 c 128,-1,15
 382 888 382 888 401 932 c 1,16,-1
 480 799 l 1,17,18
 458 724 458 724 427 672 c 128,-1,19
 396 620 396 620 355 620 c 0,0,1
EndSplineSet
Substitution2: "'ss01' Style Set 1 in Latin lookup 35 subtable" asciitilde.ss01
Substitution2: "'salt' Stylistic Alternatives in Latin lookup 34 subtable" asciitilde.ss01
Substitution2: "'aalt' Access All Alternates in Latin lookup 0 subtable" asciitilde.ss01
EndChar

StartChar: logicalnot
Encoding: 172 172 634
Width: 484
VWidth: 2441
GlyphClass: 1
Flags: HW
LayerCount: 2
Fore
SplineSet
258 376 m 1,0,-1
 258 662 l 1,1,-1
 32 662 l 1,2,-1
 32 894 l 1,3,-1
 452 894 l 1,4,-1
 452 376 l 1,5,-1
 258 376 l 1,0,-1
EndSplineSet
EndChar

StartChar: asciicircum
Encoding: 94 94 635
Width: 496
VWidth: 2441
GlyphClass: 1
Flags: HW
LayerCount: 2
Fore
SplineSet
166 837 m 1,0,-1
 32 876 l 1,1,-1
 214 1521 l 1,2,-1
 305 1521 l 1,3,-1
 464 879 l 1,4,-1
 328 837 l 1,5,-1
 254 1153 l 1,6,-1
 166 837 l 1,0,-1
EndSplineSet
Substitution2: "'ss01' Style Set 1 in Latin lookup 35 subtable" asciicircum.ss01
Substitution2: "'salt' Stylistic Alternatives in Latin lookup 34 subtable" asciicircum.ss01
Substitution2: "'aalt' Access All Alternates in Latin lookup 0 subtable" asciicircum.ss01
EndChar

StartChar: infinity
Encoding: 8734 8734 636
Width: 428
VWidth: 2441
GlyphClass: 1
Flags: HW
LayerCount: 2
Fore
SplineSet
335 734 m 0,0,1
 335 783 335 783 325.5 816.5 c 128,-1,2
 316 850 316 850 298 850 c 0,3,4
 272 850 272 850 249 734 c 1,5,6
 270.821138211 612.991869919 270.821138211 612.991869919 297.561306101 612.991869919 c 0,0,0
 315.997694455 612.991869919 315.997694455 612.991869919 325.5 646.5 c 128,-1,9
 335 680 335 680 335 734 c 0,0,1
153 734 m 1,10,11
 137 853 137 853 107 855 c 0,12,13
 89 855 89 855 79.5 820.5 c 128,-1,14
 70 786 70 786 70 734 c 0,15,16
 70 688 70 688 79 652.5 c 128,-1,17
 88 617 88 617 109 617 c 0,18,19
 135 617 135 617 153 734 c 1,10,11
426 730 m 0,20,21
 426 600 426 600 393 506 c 128,-1,22
 360 412 360 412 310 412 c 0,23,24
 279 412 279 412 251 450.5 c 128,-1,25
 223 489 223 489 202 566 c 1,26,27
 180 498 180 498 151.5 456.5 c 128,-1,28
 123 415 123 415 95 415 c 0,29,30
 46 415 46 415 12 504.5 c 128,-1,31
 -22 594 -22 594 -22 734 c 0,32,33
 -22 869 -22 869 11 962 c 128,-1,34
 44 1055 44 1055 95 1055 c 0,35,36
 125 1055 125 1055 153.5 1019 c 128,-1,37
 182 983 182 983 204 901 c 1,38,39
 244 1052 244 1052 310 1053 c 0,40,41
 359 1053 359 1053 392.5 965 c 128,-1,42
 426 877 426 877 426 730 c 0,20,21
EndSplineSet
EndChar

StartChar: emptyset
Encoding: 8709 8709 637
Width: 445
VWidth: 2441
GlyphClass: 1
Flags: HW
LayerCount: 2
Fore
SplineSet
211 410 m 0,0,1
 260 410 260 410 289.5 519.5 c 128,-1,2
 319 629 319 629 319 796 c 0,3,4
 319 869 319 869 313 932 c 1,5,-1
 147 484 l 1,6,7
 173 410 173 410 211 410 c 0,0,1
106 796 m 0,8,9
 106 723 106 723 111 659 c 1,10,-1
 277 1106 l 1,11,12
 249 1176 249 1176 211 1177 c 0,13,14
 164 1177 164 1177 135 1069.5 c 128,-1,15
 106 962 106 962 106 796 c 0,8,9
62 254 m 1,16,-1
 -11 327 l 1,17,-1
 42 471 l 1,18,19
 6 608 6 608 6 796 c 0,20,21
 6 945 6 945 29.5 1065.5 c 128,-1,22
 53 1186 53 1186 99 1258 c 128,-1,23
 145 1330 145 1330 211 1330 c 0,24,25
 279 1330 279 1330 330 1250 c 1,26,-1
 364 1342 l 1,27,-1
 437 1270 l 1,28,-1
 382 1121 l 1,29,30
 420 984 420 984 420 796 c 0,31,32
 420 649 420 649 395.5 527 c 128,-1,33
 371 405 371 405 324 332 c 128,-1,34
 277 259 277 259 211 259 c 0,35,36
 143 259 143 259 95 340 c 1,37,-1
 62 254 l 1,16,-1
EndSplineSet
EndChar

StartChar: integral
Encoding: 8747 8747 638
Width: 474
VWidth: 2358
GlyphClass: 1
Flags: HW
LayerCount: 2
Fore
SplineSet
120 -246 m 0,0,1
 74 -246 74 -246 32 -208 c 1,2,-1
 32 -12 l 1,3,4
 48 -24 48 -24 65 -36 c 128,-1,5
 82 -48 82 -48 100 -48 c 0,6,7
 130 -48 130 -48 143 1 c 128,-1,8
 156 50 156 50 156 158 c 2,9,-1
 156 1463 l 2,10,11
 156 1669 156 1669 213 1762 c 128,-1,12
 270 1855 270 1855 356 1855 c 0,13,14
 402 1855 402 1855 442 1820 c 1,15,-1
 442 1624 l 1,16,17
 426 1636 426 1636 407.5 1647 c 128,-1,18
 389 1658 389 1658 375 1658 c 0,19,20
 343 1658 343 1658 329.5 1611 c 128,-1,21
 316 1564 316 1564 316 1437 c 2,22,-1
 316 137 l 2,23,24
 316 -61 316 -61 258 -153.5 c 128,-1,25
 200 -246 200 -246 120 -246 c 0,0,1
EndSplineSet
EndChar

StartChar: uni2126
Encoding: 8486 8486 639
Width: 451
VWidth: 2441
GlyphClass: 1
Flags: HW
LayerCount: 2
Fore
SplineSet
220 1367 m 128,-1,1
 169 1367 169 1367 146 1253.5 c 128,-1,2
 123 1140 123 1140 123 916 c 0,3,4
 123 701 123 701 138 553 c 128,-1,5
 153 405 153 405 191 329 c 1,6,-1
 191 0 l 1,7,-1
 -5 0 l 1,8,-1
 -5 278 l 1,9,-1
 80 278 l 1,10,11
 40 366 40 366 19 542 c 128,-1,12
 -2 718 -2 718 -2 964 c 0,13,14
 -2 1313 -2 1313 57 1480 c 128,-1,15
 116 1647 116 1647 218 1647 c 0,16,17
 317 1647 317 1647 378 1482.5 c 128,-1,18
 439 1318 439 1318 439 964 c 0,19,20
 439 720 439 720 419 545.5 c 128,-1,21
 399 371 399 371 357 278 c 1,22,-1
 443 278 l 1,23,-1
 443 0 l 1,24,-1
 245 0 l 1,25,-1
 245 329 l 1,26,27
 289 410 289 410 302.5 559 c 128,-1,28
 316 708 316 708 316 918 c 0,29,30
 314 1142 314 1142 292.5 1254.5 c 128,-1,0
 271 1367 271 1367 220 1367 c 128,-1,1
EndSplineSet
EndChar

StartChar: uni2206
Encoding: 8710 8710 640
Width: 479
VWidth: 2441
GlyphClass: 1
Flags: HW
LayerCount: 2
Fore
SplineSet
320 222 m 1,0,-1
 239 1284 l 1,1,-1
 235 1284 l 1,2,-1
 150 222 l 1,3,-1
 320 222 l 1,0,-1
310 1647 m 1,4,-1
 459 156 l 1,5,-1
 459 0 l 1,6,-1
 11 0 l 1,7,-1
 11 159 l 1,8,-1
 162 1647 l 1,9,-1
 310 1647 l 1,4,-1
EndSplineSet
EndChar

StartChar: product
Encoding: 8719 8719 641
Width: 512
VWidth: 2339
GlyphClass: 1
Flags: HW
LayerCount: 2
Fore
SplineSet
32 -246 m 1,0,-1
 32 1521 l 1,1,-1
 480 1521 l 1,2,3
 480 1502 480 1502 475 1492 c 128,-1,4
 470 1482 470 1482 468 1445 c 2,5,-1
 468 -246 l 1,6,-1
 323 -246 l 1,7,-1
 323 1351 l 1,8,-1
 179 1351 l 1,9,-1
 179 -246 l 1,10,-1
 32 -246 l 1,0,-1
EndSplineSet
EndChar

StartChar: summation
Encoding: 8721 8721 642
Width: 465
VWidth: 2372
GlyphClass: 1
Flags: HW
LayerCount: 2
Fore
SplineSet
2 -246 m 1,0,-1
 2 -74 l 1,1,-1
 196 693 l 1,2,-1
 9 1458 l 1,3,-1
 9 1631 l 1,4,-1
 434 1631 l 1,5,-1
 434 1434 l 1,6,-1
 183 1434 l 1,7,-1
 358 698 l 1,8,-1
 169 -49 l 1,9,-1
 450 -49 l 1,10,-1
 450 -246 l 1,11,-1
 2 -246 l 1,0,-1
EndSplineSet
EndChar

StartChar: radical
Encoding: 8730 8730 643
Width: 423
VWidth: 2441
GlyphClass: 1
Flags: HW
LayerCount: 2
Fore
SplineSet
121 -17 m 1,0,-1
 40 643 l 1,1,-1
 -24 643 l 1,2,-1
 -24 845 l 1,3,-1
 121 845 l 1,4,-1
 164 473 l 1,5,-1
 296 1647 l 1,6,-1
 424 1647 l 1,7,-1
 232 -17 l 1,8,-1
 121 -17 l 1,0,-1
EndSplineSet
EndChar

StartChar: uni00B5
Encoding: 181 181 644
Width: 439
VWidth: 2328
GlyphClass: 1
Flags: HW
LayerCount: 2
Fore
SplineSet
-13 -246 m 1,0,1
 -13 -161 -13 -161 -5 47 c 128,-1,2
 3 255 3 255 3 553 c 2,3,-1
 3 1135 l 1,4,-1
 122 1135 l 1,5,-1
 122 506 l 2,6,7
 122 368 122 368 131.5 317.5 c 128,-1,8
 141 267 141 267 165 267 c 0,9,10
 193 267 193 267 204.5 327 c 128,-1,11
 216 387 216 387 216 502 c 2,12,-1
 216 1135 l 1,13,-1
 335 1135 l 1,14,-1
 335 376 l 2,15,16
 335 282.989473684 335 282.989473684 355.560221607 282.989473684 c 0,0,0
 362.994210526 282.989473684 362.994210526 282.989473684 374 303 c 128,-1,19
 385 323 385 323 390 347 c 2,20,-1
 396 381 l 1,21,-1
 435 204 l 1,22,23
 396 72 396 72 345 72 c 0,24,25
 320 72 320 72 303.5 102.5 c 128,-1,26
 287 133 287 133 278 182 c 1,27,28
 263 129 263 129 234.5 103.5 c 128,-1,29
 206 78 206 78 176 78 c 0,30,31
 151 78 151 78 128 106.5 c 128,-1,32
 105 135 105 135 96 191 c 1,33,34
 96 131 96 131 95 50.5 c 128,-1,35
 94 -30 94 -30 94 -109 c 128,-1,36
 94 -188 94 -188 94 -246 c 1,37,-1
 -13 -246 l 1,0,1
EndSplineSet
EndChar

StartChar: partialdiff
Encoding: 8706 8706 645
Width: 468
VWidth: 2441
GlyphClass: 1
Flags: HW
LayerCount: 2
Fore
SplineSet
211 170 m 0,0,1
 252 170 252 170 274.5 249.5 c 128,-1,2
 297 329 297 329 307 458 c 128,-1,3
 317 587 317 587 321 732 c 1,4,5
 284 916 284 916 227 916 c 0,6,7
 198 916 198 916 178 870.5 c 128,-1,8
 158 825 158 825 149 750.5 c 128,-1,9
 140 676 140 676 137 589.5 c 128,-1,10
 135.2 537.6 135.2 537.6 135.2 485.88 c 0,0,0
 135.2 451.4 135.2 451.4 136 417 c 0,11,12
 142 291 142 291 159 230.5 c 128,-1,13
 176 170 176 170 211 170 c 0,0,1
199 -27 m 0,14,15
 110 -27 110 -27 63 102.5 c 128,-1,16
 16 232 16 232 6 427 c 0,17,18
 3.67741935484 474.225806452 3.67741935484 474.225806452 3.67741935484 521.151925078 c 0,0,0
 3.67741935484 595.451612903 3.67741935484 595.451612903 9.5 669 c 128,-1,19
 19 789 19 789 43.5 887.5 c 128,-1,20
 68 986 68 986 108.5 1046 c 128,-1,21
 149 1106 149 1106 205 1106 c 0,22,23
 246 1106 246 1106 273 1079.5 c 128,-1,24
 300 1053 300 1053 319 1006 c 1,25,26
 319 1027 319 1027 318 1047 c 128,-1,27
 317 1067 317 1067 316 1091 c 0,28,29
 310 1182 310 1182 300.5 1255 c 128,-1,30
 291 1328 291 1328 268.5 1372 c 128,-1,31
 246 1416 246 1416 203 1416 c 0,32,33
 177 1416 177 1416 144.5 1399 c 128,-1,34
 112 1382 112 1382 85 1342 c 1,35,-1
 75 1550 l 1,36,37
 104 1582 104 1582 138.5 1598 c 128,-1,38
 173 1614 173 1614 205 1614 c 0,39,40
 292 1614 292 1614 341.5 1546.5 c 128,-1,41
 391 1479 391 1479 413.5 1342.5 c 128,-1,42
 436 1206 436 1206 445 1001 c 0,43,44
 451.540540541 876.135135135 451.540540541 876.135135135 451.540540541 759.401753104 c 0,0,0
 451.540540541 679.810810811 451.540540541 679.810810811 448.5 604 c 128,-1,45
 441 417 441 417 413.5 276 c 128,-1,46
 386 135 386 135 332 54 c 128,-1,47
 278 -27 278 -27 199 -27 c 0,14,15
EndSplineSet
EndChar

StartChar: percent
Encoding: 37 37 646
Width: 451
VWidth: 2441
GlyphClass: 1
Flags: HW
LayerCount: 2
Fore
SplineSet
331 132 m 0,0,1
 346 132 346 132 353 172 c 128,-1,2
 360 212 360 212 360 281 c 0,3,4
 360 351 360 351 353 393 c 128,-1,5
 346 435 346 435 329 435 c 0,6,7
 300 435 300 435 300 286 c 0,8,9
 300 132 300 132 331 132 c 0,0,1
331 -24 m 128,-1,11
 282 -24 282 -24 250.5 54 c 128,-1,12
 219 132 219 132 219 284 c 0,13,14
 219 435 219 435 250.5 514.5 c 128,-1,15
 282 594 282 594 331 594 c 128,-1,16
 380 594 380 594 410.5 514.5 c 128,-1,17
 441 435 441 435 441 284 c 128,-1,18
 441 133 441 133 410.5 54.5 c 128,-1,10
 380 -24 380 -24 331 -24 c 128,-1,11
105 1086 m 128,-1,20
 134 1086 134 1086 134 1237 c 128,-1,21
 134 1388 134 1388 103 1389 c 0,22,23
 76 1389 76 1389 76 1237 c 0,24,19
 76 1086 76 1086 105 1086 c 128,-1,20
1 0 m 1,25,-1
 329 1521 l 1,26,-1
 435 1521 l 1,27,-1
 105 0 l 1,28,-1
 1 0 l 1,25,-1
105 925 m 0,29,30
 56 925 56 925 24.5 1003 c 128,-1,31
 -7 1081 -7 1081 -7 1237 c 0,32,33
 -7 1388 -7 1388 24.5 1467.5 c 128,-1,34
 56 1547 56 1547 105 1547 c 128,-1,35
 154 1547 154 1547 185.5 1466.5 c 128,-1,36
 217 1386 217 1386 217 1235 c 0,37,38
 217 1079 217 1079 186.5 1002 c 128,-1,39
 156 925 156 925 105 925 c 0,29,30
EndSplineSet
EndChar

StartChar: perthousand
Encoding: 8240 8240 647
Width: 471
VWidth: 2441
GlyphClass: 1
Flags: HW
LayerCount: 2
Fore
SplineSet
344 126 m 0,0,1
 359 126 359 126 367 165.5 c 128,-1,2
 375 205 375 205 375 273 c 0,3,4
 375 417 375 417 344 417 c 0,5,6
 315 417 315 417 314 273 c 0,7,8
 314 205 314 205 322.5 165.5 c 128,-1,9
 331 126 331 126 344 126 c 0,0,1
110 126 m 0,10,11
 123 126 123 126 131.5 165.5 c 128,-1,12
 140 205 140 205 140 273 c 0,13,14
 140 417 140 417 108 417 c 0,15,16
 80.9655172414 417 80.9655172414 417 80.9655172414 282.75980975 c 0,0,0
 80.9655172414 277.965517241 80.9655172414 277.965517241 81 273 c 0,17,18
 81 205 81 205 88 165.5 c 128,-1,19
 95 126 95 126 110 126 c 0,10,11
346 -21 m 0,20,21
 303 -21 303 -21 271.5 48 c 128,-1,22
 240 117 240 117 238 273 c 0,23,24
 238 417 238 417 270.5 494 c 128,-1,25
 303 571 303 571 346 571 c 128,-1,26
 389 571 389 571 419.5 497.5 c 128,-1,27
 450 424 450 424 450 271 c 0,28,29
 450 117 450 117 418.5 48 c 128,-1,30
 387 -21 387 -21 346 -21 c 0,20,21
110 -21 m 128,-1,32
 69 -21 69 -21 37 48 c 128,-1,33
 5 117 5 117 5 273 c 0,34,35
 5 424 5 424 37.5 497.5 c 128,-1,36
 70 571 70 571 110 571 c 0,37,38
 153 571 153 571 185.5 494 c 128,-1,39
 218 417 218 417 218 271 c 0,40,41
 218 117 218 117 184.5 48 c 128,-1,31
 151 -21 151 -21 110 -21 c 128,-1,32
5 547 m 1,42,-1
 5 720 l 1,43,-1
 453 1299 l 1,44,-1
 453 1128 l 1,45,-1
 5 547 l 1,42,-1
110 1106 m 0,46,47
 123 1106 123 1106 131.5 1145 c 128,-1,48
 140 1184 140 1184 140 1253 c 0,49,50
 140 1396.00689655 140 1396.00689655 108.439857313 1396.00689655 c 0,0,0
 80.9655172414 1396.00689655 80.9655172414 1396.00689655 80.9655172414 1262.69203329 c 0,0,0
 80.9655172414 1257.93103448 80.9655172414 1257.93103448 81 1253 c 0,53,54
 81 1185 81 1185 88 1145.5 c 128,-1,55
 95 1106 95 1106 110 1106 c 0,46,47
110 957 m 128,-1,57
 69 957 69 957 37 1028 c 128,-1,58
 5 1099 5 1099 5 1253 c 0,59,60
 5 1404 5 1404 37.5 1477 c 128,-1,61
 70 1550 70 1550 110 1550 c 0,62,63
 153 1550 153 1550 185.5 1477 c 128,-1,64
 218 1404 218 1404 218 1250 c 128,-1,65
 218 1096 218 1096 184.5 1026.5 c 128,-1,56
 151 957 151 957 110 957 c 128,-1,57
EndSplineSet
EndChar

StartChar: circleplus
Encoding: 8853 8853 648
Width: 471
VWidth: 2441
GlyphClass: 1
Flags: HW
LayerCount: 2
Fore
SplineSet
188 445 m 1,0,-1
 188 701 l 1,1,-1
 118 701 l 1,2,-1
 118 818 l 1,3,-1
 188 818 l 1,4,-1
 188 1050 l 1,5,-1
 274 1050 l 1,6,-1
 274 818 l 1,7,-1
 340 818 l 1,8,-1
 340 701 l 1,9,-1
 274 701 l 1,10,-1
 274 445 l 1,11,-1
 188 445 l 1,0,-1
229 389 m 128,-1,13
 287 389 287 389 324 489 c 128,-1,14
 361 589 361 589 361 752 c 128,-1,15
 361 915 361 915 324 1014 c 128,-1,16
 287 1113 287 1113 229 1113 c 128,-1,17
 171 1113 171 1113 134 1014.5 c 128,-1,18
 97 916 97 916 97 752 c 0,19,20
 97 589 97 589 134 489 c 128,-1,12
 171 389 171 389 229 389 c 128,-1,13
229 266 m 0,21,22
 132 266 132 266 68.5 395.5 c 128,-1,23
 5 525 5 525 5 752 c 0,24,25
 5 978 5 978 68.5 1107.5 c 128,-1,26
 132 1237 132 1237 229 1237 c 0,27,28
 324 1237 324 1237 388.5 1108 c 128,-1,29
 453 979 453 979 453 752 c 0,30,31
 453 526 453 526 388.5 396 c 128,-1,32
 324 266 324 266 229 266 c 0,21,22
EndSplineSet
EndChar

StartChar: arrowup
Encoding: 8593 8593 651
Width: 489
VWidth: 2441
GlyphClass: 1
Flags: HW
LayerCount: 2
Fore
SplineSet
171 0 m 1,0,-1
 171 957 l 1,1,-1
 106 762 l 1,2,-1
 18 920 l 1,3,-1
 211 1502 l 1,4,-1
 271 1502 l 1,5,-1
 466 920 l 1,6,-1
 380 762 l 1,7,-1
 313 955 l 1,8,-1
 313 0 l 1,9,-1
 171 0 l 1,0,-1
EndSplineSet
EndChar

StartChar: uni2197
Encoding: 8599 8599 652
Width: 488
VWidth: 2441
GlyphClass: 1
Flags: HW
LayerCount: 2
Fore
SplineSet
13 373 m 1,0,-1
 252 1116 l 1,1,-1
 96 1057 l 1,2,-1
 88 1250 l 1,3,-1
 420 1370 l 1,4,-1
 461 1267 l 1,5,-1
 428 598 l 1,6,-1
 314 610 l 1,7,-1
 337 967 l 1,8,-1
 118 278 l 1,9,-1
 13 373 l 1,0,-1
EndSplineSet
EndChar

StartChar: arrowright
Encoding: 8594 8594 653
Width: 468
VWidth: 2441
GlyphClass: 1
Flags: HW
LayerCount: 2
Fore
SplineSet
0 823 m 1,0,-1
 270 823 l 1,1,-1
 119 1177 l 1,2,-1
 220 1272 l 1,3,-1
 448 767 l 1,4,-1
 448 681 l 1,5,-1
 220 175 l 1,6,-1
 119 273 l 1,7,-1
 270 622 l 1,8,-1
 0 622 l 1,9,-1
 0 823 l 1,0,-1
EndSplineSet
EndChar

StartChar: arrowboth
Encoding: 8596 8596 659
Width: 440
VWidth: 2441
GlyphClass: 1
Flags: HW
LayerCount: 2
Fore
SplineSet
328 1197 m 1,0,-1
 433 774 l 1,1,-1
 433 662 l 1,2,-1
 328 249 l 1,3,-1
 232 345 l 1,4,-1
 295 622 l 1,5,-1
 123 622 l 1,6,-1
 186 345 l 1,7,-1
 90 249 l 1,8,-1
 -15 662 l 1,9,-1
 -15 774 l 1,10,-1
 92 1197 l 1,11,-1
 186 1109 l 1,12,-1
 123 820 l 1,13,-1
 296 820 l 1,14,-1
 232 1109 l 1,15,-1
 328 1197 l 1,0,-1
EndSplineSet
EndChar

StartChar: arrowupdn
Encoding: 8597 8597 660
Width: 512
VWidth: 2441
GlyphClass: 1
Flags: HW
LayerCount: 2
Fore
SplineSet
480 398 m 1,0,-1
 281 88 l 1,1,-1
 232 88 l 1,2,-1
 32 403 l 1,3,-1
 89 589 l 1,4,-1
 180 447 l 1,5,-1
 180 1057 l 1,6,-1
 89 913 l 1,7,-1
 38 1109 l 1,8,-1
 232 1416 l 1,9,-1
 281 1416 l 1,10,-1
 480 1106 l 1,11,-1
 431 908 l 1,12,-1
 339 1057 l 1,13,-1
 339 442 l 1,14,-1
 431 589 l 1,15,-1
 480 398 l 1,0,-1
EndSplineSet
EndChar

StartChar: uni21E7
Encoding: 8679 8679 661
Width: 512
VWidth: 2441
GlyphClass: 1
Flags: HW
LayerCount: 2
Fore
SplineSet
224 126 m 1,0,-1
 290 126 l 1,1,-1
 290 1020 l 1,2,-1
 367 1020 l 1,3,-1
 257 1326 l 1,4,-1
 154 1020 l 1,5,-1
 224 1020 l 1,6,-1
 224 126 l 1,0,-1
129 0 m 1,7,-1
 129 892 l 1,8,-1
 32 892 l 1,9,-1
 32 999 l 1,10,-1
 243 1553 l 1,11,-1
 271 1553 l 1,12,-1
 480 999 l 1,13,-1
 480 892 l 1,14,-1
 385 892 l 1,15,-1
 385 0 l 1,16,-1
 129 0 l 1,7,-1
EndSplineSet
EndChar

StartChar: uni21E8
Encoding: 8680 8680 662
Width: 440
VWidth: 2441
GlyphClass: 1
Flags: HW
LayerCount: 2
Fore
SplineSet
71 837 m 1,0,-1
 71 547 l 1,1,-1
 266 547 l 1,2,-1
 266 496 l 1,3,-1
 343 694 l 1,4,-1
 266 886 l 1,5,-1
 266 837 l 1,6,-1
 71 837 l 1,0,-1
-15 964 m 1,7,-1
 181 964 l 1,8,-1
 181 1223 l 1,9,-1
 222 1223 l 1,10,-1
 433 725 l 1,11,-1
 433 659 l 1,12,-1
 222 163 l 1,13,-1
 181 163 l 1,14,-1
 181 420 l 1,15,-1
 -15 420 l 1,16,-1
 -15 964 l 1,7,-1
EndSplineSet
EndChar

StartChar: uni2B06
Encoding: 11014 11014 665
Width: 512
VWidth: 2441
GlyphClass: 1
Flags: HW
LayerCount: 2
Fore
SplineSet
480 999 m 1,0,-1
 480 892 l 1,1,-1
 373 892 l 1,2,-1
 373 0 l 1,3,-1
 141 0 l 1,4,-1
 141 892 l 1,5,-1
 32 892 l 1,6,-1
 32 999 l 1,7,-1
 243 1553 l 1,8,-1
 271 1553 l 1,9,-1
 480 999 l 1,0,-1
EndSplineSet
EndChar

StartChar: uni2B05
Encoding: 11013 11013 668
Width: 440
VWidth: 2441
GlyphClass: 1
Flags: HW
LayerCount: 2
Fore
SplineSet
433 420 m 1,0,-1
 239 420 l 1,1,-1
 239 163 l 1,2,-1
 198 163 l 1,3,-1
 -15 659 l 1,4,-1
 -15 725 l 1,5,-1
 198 1223 l 1,6,-1
 239 1223 l 1,7,-1
 239 964 l 1,8,-1
 433 964 l 1,9,-1
 433 420 l 1,0,-1
EndSplineSet
EndChar

StartChar: dneighthblock
Encoding: 9601 9601 669
Width: -402
VWidth: 2440
GlyphClass: 1
Flags: HW
LayerCount: 2
Fore
SplineSet
0 -246 m 1,0,-1
 0 -550 l 1,1,-1
 -434 -550 l 1,2,-1
 -434 -246 l 1,3,-1
 0 -246 l 1,0,-1
EndSplineSet
EndChar

StartChar: dnquarterblock
Encoding: 9602 9602 670
Width: 55
VWidth: 250
GlyphClass: 1
Flags: HW
LayerCount: 2
Fore
SplineSet
-33 -246 m 1,0,-1
 -33 -122 l 1,1,-1
 56 -122 l 1,2,-1
 56 -246 l 1,3,-1
 -33 -246 l 1,0,-1
EndSplineSet
EndChar

StartChar: dnthreeeighthsblock
Encoding: 9603 9603 671
Width: 229
VWidth: 1223
GlyphClass: 1
Flags: HW
LayerCount: 2
Fore
SplineSet
-33 -246 m 1,0,-1
 -33 305 l 1,1,-1
 230 305 l 1,2,-1
 230 -246 l 1,3,-1
 -33 -246 l 1,0,-1
EndSplineSet
EndChar

StartChar: dnhalfblock
Encoding: 9604 9604 672
Width: 316
VWidth: 1709
GlyphClass: 1
Flags: HW
LayerCount: 2
Fore
SplineSet
-32 -246 m 1,0,-1
 -32 732 l 1,1,-1
 317 732 l 1,2,-1
 317 -246 l 1,3,-1
 -32 -246 l 1,0,-1
EndSplineSet
EndChar

StartChar: dnfiveeighthsblock
Encoding: 9605 9605 673
Width: 368
VWidth: 2002
GlyphClass: 1
Flags: HW
LayerCount: 2
Fore
SplineSet
-33 -246 m 1,0,-1
 -33 1160 l 1,1,-1
 369 1160 l 1,2,-1
 369 -246 l 1,3,-1
 -33 -246 l 1,0,-1
EndSplineSet
EndChar

StartChar: dnthreequartersblock
Encoding: 9606 9606 674
Width: 403
VWidth: 2196
GlyphClass: 1
Flags: HW
LayerCount: 2
Fore
SplineSet
-32 -246 m 1,0,-1
 -32 1587 l 1,1,-1
 404 1587 l 1,2,-1
 404 -246 l 1,3,-1
 -32 -246 l 1,0,-1
EndSplineSet
EndChar

StartChar: dnseveneighthsblock
Encoding: 9607 9607 675
Width: 414
VWidth: 2335
GlyphClass: 1
Flags: HW
LayerCount: 2
Fore
SplineSet
-33 -246 m 1,0,-1
 -33 2015 l 1,1,-1
 415 2015 l 1,2,-1
 415 -246 l 1,3,-1
 -33 -246 l 1,0,-1
EndSplineSet
EndChar

StartChar: fullblock
Encoding: 9608 9608 676
Width: 414
VWidth: 2441
GlyphClass: 1
Flags: HW
LayerCount: 2
Fore
SplineSet
-33 -246 m 1,0,-1
 -33 2441 l 1,1,-1
 415 2441 l 1,2,-1
 415 -246 l 1,3,-1
 -33 -246 l 1,0,-1
EndSplineSet
EndChar

StartChar: uphalfblock
Encoding: 9600 9600 677
Width: 414
VWidth: 2441
GlyphClass: 1
Flags: HW
LayerCount: 2
Fore
SplineSet
-33 732 m 1,0,-1
 -33 2441 l 1,1,-1
 415 2441 l 1,2,-1
 415 732 l 1,3,-1
 -33 732 l 1,0,-1
EndSplineSet
EndChar

StartChar: upeighthblock
Encoding: 9620 9620 678
Width: 414
VWidth: 2441
GlyphClass: 1
Flags: HW
LayerCount: 2
Fore
SplineSet
-33 2015 m 1,0,-1
 -33 2441 l 1,1,-1
 415 2441 l 1,2,-1
 415 2015 l 1,3,-1
 -33 2015 l 1,0,-1
EndSplineSet
EndChar

StartChar: lefteighthblock
Encoding: 9615 9615 679
Width: 91
VWidth: 2441
GlyphClass: 1
Flags: HW
LayerCount: 2
Fore
SplineSet
0 -246 m 1,0,-1
 0 2441 l 1,1,-1
 59 2441 l 1,2,-1
 59 -246 l 1,3,-1
 0 -246 l 1,0,-1
EndSplineSet
EndChar

StartChar: leftquarterblock
Encoding: 9614 9614 680
Width: 153
VWidth: 2441
GlyphClass: 1
Flags: HW
LayerCount: 2
Fore
SplineSet
0 -246 m 1,0,-1
 0 2441 l 1,1,-1
 121 2441 l 1,2,-1
 121 -246 l 1,3,-1
 0 -246 l 1,0,-1
EndSplineSet
EndChar

StartChar: leftthreeeighthsblock
Encoding: 9613 9613 681
Width: 213
VWidth: 2441
GlyphClass: 1
Flags: HW
LayerCount: 2
Fore
SplineSet
0 -246 m 1,0,-1
 0 2441 l 1,1,-1
 181 2441 l 1,2,-1
 181 -246 l 1,3,-1
 0 -246 l 1,0,-1
EndSplineSet
EndChar

StartChar: lefthalfblock
Encoding: 9612 9612 682
Width: 272
VWidth: 2441
GlyphClass: 1
Flags: HW
LayerCount: 2
Fore
SplineSet
0 -246 m 1,0,-1
 0 2441 l 1,1,-1
 240 2441 l 1,2,-1
 240 -246 l 1,3,-1
 0 -246 l 1,0,-1
EndSplineSet
EndChar

StartChar: leftfiveeighthsblock
Encoding: 9611 9611 683
Width: 331
VWidth: 2441
GlyphClass: 1
Flags: HW
LayerCount: 2
Fore
SplineSet
0 -246 m 1,0,-1
 0 2441 l 1,1,-1
 299 2441 l 1,2,-1
 299 -246 l 1,3,-1
 0 -246 l 1,0,-1
EndSplineSet
EndChar

StartChar: leftthreequartersblock
Encoding: 9610 9610 684
Width: 393
VWidth: 2441
GlyphClass: 1
Flags: HW
LayerCount: 2
Fore
SplineSet
0 -246 m 1,0,-1
 0 2441 l 1,1,-1
 361 2441 l 1,2,-1
 361 -246 l 1,3,-1
 0 -246 l 1,0,-1
EndSplineSet
EndChar

StartChar: leftseveneighthsblock
Encoding: 9609 9609 685
Width: 479
VWidth: 2441
GlyphClass: 1
Flags: HW
LayerCount: 2
Fore
SplineSet
0 -246 m 1,0,-1
 0 2441 l 1,1,-1
 421 2441 l 1,2,-1
 421 -246 l 1,3,-1
 0 -246 l 1,0,-1
EndSplineSet
EndChar

StartChar: righthalfblock
Encoding: 9616 9616 686
Width: 511
VWidth: 2441
GlyphClass: 1
Flags: HW
LayerCount: 2
Fore
SplineSet
32 -246 m 1,0,-1
 32 2441 l 1,1,-1
 272 2441 l 1,2,-1
 272 -246 l 1,3,-1
 32 -246 l 1,0,-1
EndSplineSet
EndChar

StartChar: righteighthblock
Encoding: 9621 9621 687
Width: 511
VWidth: 2441
GlyphClass: 1
Flags: HW
LayerCount: 2
Fore
SplineSet
32 -246 m 1,0,-1
 32 2441 l 1,1,-1
 91 2441 l 1,2,-1
 91 -246 l 1,3,-1
 32 -246 l 1,0,-1
EndSplineSet
EndChar

StartChar: dnleftquadrant
Encoding: 9622 9622 688
Width: 207
VWidth: 1709
GlyphClass: 1
Flags: HW
LayerCount: 2
Fore
SplineSet
0 -246 m 1,0,-1
 0 732 l 1,1,-1
 175 732 l 1,2,-1
 175 -246 l 1,3,-1
 0 -246 l 1,0,-1
EndSplineSet
EndChar

StartChar: dnrightquadrant
Encoding: 9623 9623 689
Width: 381
VWidth: 1709
GlyphClass: 1
Flags: HW
LayerCount: 2
Fore
SplineSet
32 -246 m 1,0,-1
 32 732 l 1,1,-1
 207 732 l 1,2,-1
 207 -246 l 1,3,-1
 32 -246 l 1,0,-1
EndSplineSet
EndChar

StartChar: upleftquadrant
Encoding: 9624 9624 690
Width: 337
VWidth: 2441
GlyphClass: 1
Flags: HW
LayerCount: 2
Fore
SplineSet
0 732 m 1,0,-1
 0 2441 l 1,1,-1
 305 2441 l 1,2,-1
 305 732 l 1,3,-1
 0 732 l 1,0,-1
EndSplineSet
EndChar

StartChar: upleftdnleftdnrightquadrant
Encoding: 9625 9625 691
Width: 414
VWidth: 2441
GlyphClass: 1
Flags: HW
LayerCount: 2
Fore
SplineSet
-33 -246 m 1,0,-1
 -33 2441 l 1,1,-1
 191 2441 l 1,2,-1
 191 1097 l 1,3,-1
 415 1097 l 1,4,-1
 415 -246 l 1,5,-1
 -33 -246 l 1,0,-1
EndSplineSet
EndChar

StartChar: upleftdnrightquadrant
Encoding: 9626 9626 692
Width: 414
VWidth: 2441
GlyphClass: 1
Flags: HW
LayerCount: 2
Fore
SplineSet
191 1097 m 1,0,-1
 415 1097 l 1,1,-1
 415 -246 l 1,2,-1
 191 -246 l 1,3,-1
 191 1097 l 1,0,-1
191 1097 m 1,4,-1
 -33 1097 l 1,5,-1
 -33 2441 l 1,6,-1
 191 2441 l 1,7,-1
 191 1097 l 1,4,-1
EndSplineSet
EndChar

StartChar: upleftuprightdnleftquadrant
Encoding: 9627 9627 693
Width: 414
VWidth: 2441
GlyphClass: 1
Flags: HW
LayerCount: 2
Fore
SplineSet
-33 -246 m 1,0,-1
 -33 2441 l 1,1,-1
 415 2441 l 1,2,-1
 415 1097 l 1,3,-1
 191 1097 l 1,4,-1
 191 -246 l 1,5,-1
 -33 -246 l 1,0,-1
EndSplineSet
EndChar

StartChar: upleftuprightdnrightquadrant
Encoding: 9628 9628 694
Width: 414
VWidth: 2441
GlyphClass: 1
Flags: HW
LayerCount: 2
Fore
SplineSet
191 -246 m 1,0,-1
 191 1097 l 1,1,-1
 -33 1097 l 1,2,-1
 -33 2441 l 1,3,-1
 415 2441 l 1,4,-1
 415 -246 l 1,5,-1
 191 -246 l 1,0,-1
EndSplineSet
EndChar

StartChar: uprightquadrant
Encoding: 9629 9629 695
Width: 642
VWidth: 2441
GlyphClass: 1
Flags: HW
LayerCount: 2
Fore
SplineSet
32 732 m 1,0,-1
 32 2441 l 1,1,-1
 337 2441 l 1,2,-1
 337 732 l 1,3,-1
 32 732 l 1,0,-1
EndSplineSet
EndChar

StartChar: uprightdnleftquadrant
Encoding: 9630 9630 696
Width: 414
VWidth: 2441
GlyphClass: 1
Flags: HW
LayerCount: 2
Fore
SplineSet
-33 -246 m 1,0,-1
 -33 1097 l 1,1,-1
 191 1097 l 1,2,-1
 191 -246 l 1,3,-1
 -33 -246 l 1,0,-1
191 1097 m 1,4,-1
 191 2441 l 1,5,-1
 415 2441 l 1,6,-1
 415 1097 l 1,7,-1
 191 1097 l 1,4,-1
EndSplineSet
EndChar

StartChar: uprightdnleftdnrightquadrant
Encoding: 9631 9631 697
Width: 414
VWidth: 2441
GlyphClass: 1
Flags: HW
LayerCount: 2
Fore
SplineSet
-33 -246 m 1,0,-1
 -33 1097 l 1,1,-1
 191 1097 l 1,2,-1
 191 2441 l 1,3,-1
 415 2441 l 1,4,-1
 415 -246 l 1,5,-1
 -33 -246 l 1,0,-1
EndSplineSet
EndChar

StartChar: lightshade
Encoding: 9617 9617 698
Width: 440
VWidth: 2430
GlyphClass: 1
Flags: HW
LayerCount: 2
Fore
SplineSet
-15 -246 m 1
 -15 -126 l 1
 43 -126 l 1
 43 -246 l 1
 -15 -246 l 1
142 -246 m 1
 142 -126 l 1
 200 -126 l 1
 200 -246 l 1
 142 -246 l 1
296 -246 m 1
 296 -126 l 1
 355 -126 l 1
 355 -246 l 1
 296 -246 l 1
63 -52 m 1
 63 67 l 1
 122 67 l 1
 122 -52 l 1
 63 -52 l 1
218 -52 m 1
 218 67 l 1
 276 67 l 1
 276 -52 l 1
 218 -52 l 1
375 -52 m 1
 375 67 l 1
 433 67 l 1
 433 -52 l 1
 375 -52 l 1
-15 141 m 1
 -15 262 l 1
 43 262 l 1
 43 141 l 1
 -15 141 l 1
142 141 m 1
 142 262 l 1
 200 262 l 1
 200 141 l 1
 142 141 l 1
296 141 m 1
 296 262 l 1
 355 262 l 1
 355 141 l 1
 296 141 l 1
375 335 m 1
 375 456 l 1
 433 456 l 1
 433 335 l 1
 375 335 l 1
218 335 m 1
 218 456 l 1
 276 456 l 1
 276 335 l 1
 218 335 l 1
63 335 m 1
 63 456 l 1
 122 456 l 1
 122 335 l 1
 63 335 l 1
-15 530 m 1
 -15 650 l 1
 43 650 l 1
 43 530 l 1
 -15 530 l 1
142 530 m 1
 142 650 l 1
 200 650 l 1
 200 530 l 1
 142 530 l 1
296 530 m 1
 296 650 l 1
 355 650 l 1
 355 530 l 1
 296 530 l 1
63 724 m 1
 63 844 l 1
 122 844 l 1
 122 724 l 1
 63 724 l 1
218 724 m 1
 218 844 l 1
 276 844 l 1
 276 724 l 1
 218 724 l 1
375 724 m 1
 375 844 l 1
 433 844 l 1
 433 724 l 1
 375 724 l 1
-15 918 m 1
 -15 1037 l 1
 43 1037 l 1
 43 918 l 1
 -15 918 l 1
142 918 m 1
 142 1037 l 1
 200 1037 l 1
 200 918 l 1
 142 918 l 1
296 918 m 1
 296 1037 l 1
 355 1037 l 1
 355 918 l 1
 296 918 l 1
63 1111 m 1
 63 1231 l 1
 122 1231 l 1
 122 1111 l 1
 63 1111 l 1
218 1111 m 1
 218 1231 l 1
 276 1231 l 1
 276 1111 l 1
 218 1111 l 1
375 1111 m 1
 375 1231 l 1
 433 1231 l 1
 433 1111 l 1
 375 1111 l 1
-15 1305 m 1
 -15 1425 l 1
 43 1425 l 1
 43 1305 l 1
 -15 1305 l 1
142 1305 m 1
 142 1425 l 1
 200 1425 l 1
 200 1305 l 1
 142 1305 l 1
296 1305 m 1
 296 1425 l 1
 355 1425 l 1
 355 1305 l 1
 296 1305 l 1
63 1499 m 1
 63 1619 l 1
 122 1619 l 1
 122 1499 l 1
 63 1499 l 1
218 1499 m 1
 218 1619 l 1
 276 1619 l 1
 276 1499 l 1
 218 1499 l 1
375 1499 m 1
 375 1619 l 1
 433 1619 l 1
 433 1499 l 1
 375 1499 l 1
296 1693 m 1
 296 1814 l 1
 355 1814 l 1
 355 1693 l 1
 296 1693 l 1
142 1693 m 1
 142 1814 l 1
 200 1814 l 1
 200 1693 l 1
 142 1693 l 1
-15 1693 m 1
 -15 1814 l 1
 43 1814 l 1
 43 1693 l 1
 -15 1693 l 1
63 1887 m 1
 63 2007 l 1
 122 2007 l 1
 122 1887 l 1
 63 1887 l 1
218 1887 m 1
 218 2007 l 1
 276 2007 l 1
 276 1887 l 1
 218 1887 l 1
375 1887 m 1
 375 2007 l 1
 433 2007 l 1
 433 1887 l 1
 375 1887 l 1
-15 2081 m 1
 -15 2201 l 1
 43 2201 l 1
 43 2081 l 1
 -15 2081 l 1
142 2081 m 1
 142 2201 l 1
 200 2201 l 1
 200 2081 l 1
 142 2081 l 1
296 2081 m 1
 296 2201 l 1
 355 2201 l 1
 355 2081 l 1
 296 2081 l 1
63 2275 m 1
 63 2395 l 1
 122 2395 l 1
 122 2275 l 1
 63 2275 l 1
218 2275 m 1
 218 2395 l 1
 276 2395 l 1
 276 2275 l 1
 218 2275 l 1
375 2275 m 1
 375 2395 l 1
 433 2395 l 1
 433 2275 l 1
 375 2275 l 1
EndSplineSet
EndChar

StartChar: mediumshade
Encoding: 9618 9618 699
Width: 414
VWidth: 2436
GlyphClass: 1
Flags: HW
LayerCount: 2
Fore
SplineSet
-33 -246 m 1
 -33 -80 l 1
 42 -80 l 1
 42 -246 l 1
 -33 -246 l 1
116 -246 m 1
 116 -80 l 1
 193 -80 l 1
 193 -246 l 1
 116 -246 l 1
264 -246 m 1
 264 -80 l 1
 342 -80 l 1
 342 -246 l 1
 264 -246 l 1
40 -53 m 1
 40 112 l 1
 117 112 l 1
 117 -53 l 1
 40 -53 l 1
189 -53 m 1
 189 112 l 1
 266 112 l 1
 266 -53 l 1
 189 -53 l 1
340 -53 m 1
 340 112 l 1
 415 112 l 1
 415 -53 l 1
 340 -53 l 1
-33 140 m 1
 -33 305 l 1
 42 305 l 1
 42 140 l 1
 -33 140 l 1
116 140 m 1
 116 305 l 1
 193 305 l 1
 193 140 l 1
 116 140 l 1
264 140 m 1
 264 305 l 1
 342 305 l 1
 342 140 l 1
 264 140 l 1
340 333 m 1
 340 498 l 1
 415 498 l 1
 415 333 l 1
 340 333 l 1
189 333 m 1
 189 498 l 1
 266 498 l 1
 266 333 l 1
 189 333 l 1
40 333 m 1
 40 498 l 1
 117 498 l 1
 117 333 l 1
 40 333 l 1
-33 524 m 1
 -33 690 l 1
 42 690 l 1
 42 524 l 1
 -33 524 l 1
116 524 m 1
 116 690 l 1
 193 690 l 1
 193 524 l 1
 116 524 l 1
264 524 m 1
 264 690 l 1
 342 690 l 1
 342 524 l 1
 264 524 l 1
40 717 m 1
 40 883 l 1
 117 883 l 1
 117 717 l 1
 40 717 l 1
189 717 m 1
 189 883 l 1
 266 883 l 1
 266 717 l 1
 189 717 l 1
340 717 m 1
 340 883 l 1
 415 883 l 1
 415 717 l 1
 340 717 l 1
-33 910 m 1
 -33 1076 l 1
 42 1076 l 1
 42 910 l 1
 -33 910 l 1
116 910 m 1
 116 1076 l 1
 193 1076 l 1
 193 910 l 1
 116 910 l 1
264 910 m 1
 264 1076 l 1
 342 1076 l 1
 342 910 l 1
 264 910 l 1
40 1103 m 1
 40 1269 l 1
 117 1269 l 1
 117 1103 l 1
 40 1103 l 1
189 1103 m 1
 189 1269 l 1
 266 1269 l 1
 266 1103 l 1
 189 1103 l 1
340 1103 m 1
 340 1269 l 1
 415 1269 l 1
 415 1103 l 1
 340 1103 l 1
-33 1296 m 1
 -33 1461 l 1
 42 1461 l 1
 42 1296 l 1
 -33 1296 l 1
116 1296 m 1
 116 1461 l 1
 193 1461 l 1
 193 1296 l 1
 116 1296 l 1
264 1296 m 1
 264 1461 l 1
 342 1461 l 1
 342 1296 l 1
 264 1296 l 1
40 1488 m 1
 40 1653 l 1
 117 1653 l 1
 117 1488 l 1
 40 1488 l 1
189 1488 m 1
 189 1653 l 1
 266 1653 l 1
 266 1488 l 1
 189 1488 l 1
340 1488 m 1
 340 1653 l 1
 415 1653 l 1
 415 1488 l 1
 340 1488 l 1
264 1681 m 1
 264 1846 l 1
 342 1846 l 1
 342 1681 l 1
 264 1681 l 1
116 1681 m 1
 116 1846 l 1
 193 1846 l 1
 193 1681 l 1
 116 1681 l 1
-33 1681 m 1
 -33 1846 l 1
 42 1846 l 1
 42 1681 l 1
 -33 1681 l 1
40 1873 m 1
 40 2039 l 1
 117 2039 l 1
 117 1873 l 1
 40 1873 l 1
189 1873 m 1
 189 2039 l 1
 266 2039 l 1
 266 1873 l 1
 189 1873 l 1
340 1873 m 1
 340 2039 l 1
 415 2039 l 1
 415 1873 l 1
 340 1873 l 1
-33 2066 m 1
 -33 2232 l 1
 42 2232 l 1
 42 2066 l 1
 -33 2066 l 1
116 2066 m 1
 116 2232 l 1
 193 2232 l 1
 193 2066 l 1
 116 2066 l 1
264 2066 m 1
 264 2232 l 1
 342 2232 l 1
 342 2066 l 1
 264 2066 l 1
40 2259 m 1
 40 2425 l 1
 117 2425 l 1
 117 2259 l 1
 40 2259 l 1
189 2259 m 1
 189 2425 l 1
 266 2425 l 1
 266 2259 l 1
 189 2259 l 1
340 2259 m 1
 340 2425 l 1
 415 2425 l 1
 415 2259 l 1
 340 2259 l 1
EndSplineSet
EndChar

